/* XPM */
static char * collect_xpm[] = {
"64 64 663 2",
"  	c #C2D46E",
". 	c #C0D570",
"+ 	c #C0D56E",
"@ 	c #C2D56C",
"# 	c #C1D671",
"$ 	c #C2D470",
"% 	c #BFD46F",
"& 	c #BFD46D",
"* 	c #C3D56F",
"= 	c #C2D770",
"- 	c #C0D471",
"; 	c #C2D772",
"> 	c #C3D571",
", 	c #BED46F",
"' 	c #BCD26E",
") 	c #BBD16D",
"! 	c #C0D26E",
"~ 	c #C1D36F",
"{ 	c #C0D672",
"] 	c #AFC968",
"^ 	c #B0C866",
"/ 	c #B0CA69",
"( 	c #AEC968",
"_ 	c #ACCA6A",
": 	c #B4CC6A",
"< 	c #ADC869",
"[ 	c #AFC86A",
"} 	c #BCD06D",
"| 	c #B4CE6B",
"1 	c #AEC96A",
"2 	c #C3D370",
"3 	c #AFC966",
"4 	c #B5CD6B",
"5 	c #BED26F",
"6 	c #AAC868",
"7 	c #C0D671",
"8 	c #B8D06E",
"9 	c #AAC566",
"0 	c #AAC568",
"a 	c #BAD06C",
"b 	c #B9D26D",
"c 	c #BFD570",
"d 	c #AFCA69",
"e 	c #C1D36D",
"f 	c #ADC867",
"g 	c #AEC867",
"h 	c #C1D572",
"i 	c #ADC766",
"j 	c #BFD66E",
"k 	c #BFD370",
"l 	c #BED06C",
"m 	c #B6CC68",
"n 	c #BBD16C",
"o 	c #BED470",
"p 	c #C4D56F",
"q 	c #BACE6B",
"r 	c #A9C467",
"s 	c #BAD06E",
"t 	c #C3D776",
"u 	c #CADC86",
"v 	c #CEDF8F",
"w 	c #D0DE8F",
"x 	c #CFDD8E",
"y 	c #CCDD8D",
"z 	c #C8DA84",
"A 	c #C3D873",
"B 	c #A8C569",
"C 	c #A8C568",
"D 	c #BED56D",
"E 	c #C9DB85",
"F 	c #E0E9B4",
"G 	c #EBEFCE",
"H 	c #EAF0CE",
"I 	c #EAEDCE",
"J 	c #E9ECCD",
"K 	c #DEE6B5",
"L 	c #C8DA86",
"M 	c #B0C96B",
"N 	c #AFCA6B",
"O 	c #C0D473",
"P 	c #ACC766",
"Q 	c #BBCF6C",
"R 	c #CCDC83",
"S 	c #CEDC9F",
"T 	c #CFD7BF",
"U 	c #CFD5D1",
"V 	c #D2D4CF",
"W 	c #D0D5CF",
"X 	c #DBDED7",
"Y 	c #EDEDE5",
"Z 	c #E8EECC",
"` 	c #CBDC8C",
" .	c #BED36A",
"..	c #BBD16F",
"+.	c #ADC764",
"@.	c #ABC665",
"#.	c #B3CC66",
"$.	c #BAD06B",
"%.	c #BDD26D",
"&.	c #CCDC84",
"*.	c #E2EAB7",
"=.	c #D2DAC2",
"-.	c #9CABA4",
";.	c #7F9394",
">.	c #819594",
",.	c #829494",
"'.	c #9FAEAB",
").	c #D9DED8",
"!.	c #EAEECD",
"~.	c #CEDD8C",
"{.	c #BED374",
"].	c #B8CD7E",
"^.	c #BCD186",
"/.	c #C9DA8C",
"(.	c #D1DF90",
"_.	c #CBDE85",
":.	c #C3D774",
"<.	c #CFDD9F",
"[.	c #D1D9C1",
"}.	c #B9C4BC",
"|.	c #8BA194",
"1.	c #708D7B",
"2.	c #6B8A7B",
"3.	c #638179",
"4.	c #5B7874",
"5.	c #829593",
"6.	c #D1D6CF",
"7.	c #F0F3D6",
"8.	c #DAE6A6",
"9.	c #CFDE8B",
"0.	c #CFDD90",
"a.	c #C1D773",
"b.	c #C7D985",
"c.	c #D7E3B3",
"d.	c #E4E9CB",
"e.	c #E8EDCD",
"f.	c #EBEECF",
"g.	c #DFE7B4",
"h.	c #CBDB83",
"i.	c #E2EBB6",
"j.	c #D1D9C2",
"k.	c #9AA9A4",
"l.	c #899F92",
"m.	c #9FBA91",
"n.	c #A3C18F",
"o.	c #92B28B",
"p.	c #7A9B80",
"q.	c #628078",
"r.	c #819593",
"s.	c #D2D7D0",
"t.	c #F7F8E6",
"u.	c #F0F3D8",
"v.	c #E0E8B5",
"w.	c #CADA82",
"x.	c #EDEEE6",
"y.	c #D8DFD8",
"z.	c #CFD4CE",
"A.	c #CFD7C0",
"B.	c #D0DC9C",
"C.	c #D0DF9E",
"D.	c #889E92",
"E.	c #84A183",
"F.	c #A9C791",
"G.	c #B5D498",
"H.	c #A4C693",
"I.	c #88AA89",
"J.	c #69877B",
"K.	c #788E8C",
"L.	c #B3BEB8",
"M.	c #D4D7D0",
"N.	c #D1D8D1",
"O.	c #D1D6D2",
"P.	c #D0D5D1",
"Q.	c #D0DC9E",
"R.	c #CCDB86",
"S.	c #BFD571",
"T.	c #BED36C",
"U.	c #DADFD9",
"V.	c #9EAEAB",
"W.	c #819393",
"X.	c #809493",
"Y.	c #7F9392",
"Z.	c #9CACA2",
"`.	c #D3DCC1",
" +	c #D4DDC2",
".+	c #9DADA3",
"++	c #9EB891",
"@+	c #AAC791",
"#+	c #A5C593",
"$+	c #A2C492",
"%+	c #9CC092",
"&+	c #88AB8A",
"*+	c #6B897D",
"=+	c #677F7F",
"-+	c #788C8B",
";+	c #829694",
">+	c #9DACA5",
",+	c #D3DBC3",
"'+	c #E3EBB8",
")+	c #BED56B",
"!+	c #BED36E",
"~+	c #CFDE8D",
"{+	c #D0D5CE",
"]+	c #5F7976",
"^+	c #6C887A",
"/+	c #748F7E",
"(+	c #73907E",
"_+	c #8DA494",
":+	c #BCC8BC",
"<+	c #B4BFB9",
"[+	c #778D8B",
"}+	c #ABC890",
"|+	c #BCDC99",
"1+	c #97BC90",
"2+	c #98BC90",
"3+	c #8CAB8B",
"4+	c #6A887C",
"5+	c #637D7A",
"6+	c #6F897C",
"7+	c #759280",
"8+	c #708C7D",
"9+	c #6B8779",
"0+	c #839A92",
"a+	c #B8C3BB",
"b+	c #C8DC83",
"c+	c #C4D974",
"d+	c #819395",
"e+	c #95B189",
"f+	c #ACC991",
"g+	c #A1BC93",
"h+	c #8DA492",
"i+	c #788C8D",
"j+	c #627C7D",
"k+	c #75927E",
"l+	c #ACC98F",
"m+	c #BCDB98",
"n+	c #A3C592",
"o+	c #97BB8F",
"p+	c #98BD91",
"q+	c #89AB8A",
"r+	c #6B867D",
"s+	c #6F8A81",
"t+	c #97B38A",
"u+	c #A0C08E",
"v+	c #91B188",
"w+	c #85A38B",
"x+	c #839A90",
"y+	c #D0D8C0",
"z+	c #D0DD8E",
"A+	c #CFD5D3",
"B+	c #768E7E",
"C+	c #C8E69E",
"D+	c #C1E09A",
"E+	c #A8C692",
"F+	c #7D9B83",
"G+	c #64817C",
"H+	c #61807A",
"I+	c #769681",
"J+	c #A5C391",
"K+	c #B1D396",
"L+	c #9FC491",
"M+	c #93B88F",
"N+	c #8DAF8C",
"O+	c #80A186",
"P+	c #719080",
"Q+	c #7F9C86",
"R+	c #BCDD98",
"S+	c #B2D497",
"T+	c #A1C693",
"U+	c #87A988",
"V+	c #658377",
"W+	c #7F9391",
"X+	c #EDF0D1",
"Y+	c #D0DF8E",
"Z+	c #ECEFD0",
"`+	c #809495",
" @	c #71907E",
".@	c #C0DF99",
"+@	c #AED094",
"@@	c #9DBE8F",
"#@	c #8FB18C",
"$@	c #80A184",
"%@	c #719480",
"&@	c #789C80",
"*@	c #94B88C",
"=@	c #9BBF91",
"-@	c #759482",
";@	c #738F80",
">@	c #81A283",
",@	c #90B28D",
"'@	c #9CC090",
")@	c #A4C694",
"!@	c #A5C794",
"~@	c #9DC28F",
"{@	c #86A885",
"]@	c #668478",
"^@	c #CFD6CF",
"/@	c #8DA396",
"(@	c #95B98D",
"_@	c #8FB48B",
":@	c #96BB90",
"<@	c #8EB48B",
"[@	c #789F80",
"}@	c #769D7E",
"|@	c #8CB08A",
"1@	c #99BD91",
"2@	c #8BAD88",
"3@	c #6D8C7D",
"4@	c #6E8D7E",
"5@	c #8AAE8A",
"6@	c #93B88D",
"7@	c #8CB289",
"8@	c #8DB38A",
"9@	c #8AAC8B",
"0@	c #849C8F",
"a@	c #9EADAA",
"b@	c #DBDDD8",
"c@	c #CDDE8E",
"d@	c #BDC7BE",
"e@	c #8EA296",
"f@	c #74947F",
"g@	c #769A80",
"h@	c #7EA683",
"i@	c #92B78C",
"j@	c #8FB38D",
"k@	c #789F82",
"l@	c #779E81",
"m@	c #8DAF8A",
"n@	c #97BB8D",
"o@	c #759880",
"p@	c #99BD8F",
"q@	c #90B58C",
"r@	c #80A584",
"s@	c #769D80",
"t@	c #799E7F",
"u@	c #8CAD92",
"v@	c #BAC8B9",
"w@	c #DADFD8",
"x@	c #EDEEE8",
"y@	c #CCDD8F",
"z@	c #D1DD9F",
"A@	c #B5C0BC",
"B@	c #788D8E",
"C@	c #5C7975",
"D@	c #638577",
"E@	c #71977E",
"F@	c #85AA88",
"G@	c #86AC87",
"H@	c #759E80",
"I@	c #779E83",
"J@	c #8DB289",
"K@	c #8DB18B",
"L@	c #78A181",
"M@	c #7AA182",
"N@	c #96BA8E",
"O@	c #91B68B",
"P@	c #749B80",
"Q@	c #678E79",
"R@	c #628678",
"S@	c #87A196",
"T@	c #D5DDD2",
"U@	c #EEF1D6",
"V@	c #DCE6B4",
"W@	c #C7D983",
"X@	c #647C7E",
"Y@	c #5A7677",
"Z@	c #5E7B77",
"`@	c #68867A",
" #	c #74977F",
".#	c #769F81",
"+#	c #70987D",
"@#	c #8EB38A",
"##	c #769F7F",
"$#	c #92B78E",
"%#	c #82A785",
"&#	c #749D7F",
"*#	c #6D987C",
"=#	c #638779",
"-#	c #566F76",
";#	c #7C8A97",
">#	c #D3D5D2",
",#	c #F1F4D7",
"'#	c #D9E5A5",
")#	c #C2D675",
"!#	c #CBD984",
"~#	c #D0DB9F",
"{#	c #D4D8C1",
"]#	c #BBC5BD",
"^#	c #8BA292",
"/#	c #769381",
"(#	c #769182",
"_#	c #708C80",
":#	c #6D937C",
"<#	c #6E967C",
"[#	c #6D957B",
"}#	c #789F84",
"|#	c #87AC8A",
"1#	c #87AD88",
"2#	c #749C81",
"3#	c #6F9A7E",
"4#	c #7FA483",
"5#	c #7C9D82",
"6#	c #6F8680",
"7#	c #839194",
"8#	c #B7C0BD",
"9#	c #D1DABF",
"0#	c #CEDD9C",
"a#	c #C7DB82",
"b#	c #D0D8C1",
"c#	c #8CA094",
"d#	c #A0B992",
"e#	c #ABC892",
"f#	c #ABCA91",
"g#	c #A4C290",
"h#	c #93B38C",
"i#	c #83A686",
"j#	c #79A282",
"k#	c #82A786",
"l#	c #759C7F",
"m#	c #71997E",
"n#	c #7BA381",
"o#	c #A0C28F",
"p#	c #AFCE93",
"q#	c #ABC691",
"r#	c #9DB593",
"s#	c #8AA093",
"t#	c #9CA9A0",
"u#	c #CBDD87",
"v#	c #7E9291",
"w#	c #718C7D",
"x#	c #A3C090",
"y#	c #BFDE9B",
"z#	c #BEDD9A",
"A#	c #86AB89",
"B#	c #6C947A",
"C#	c #89AE85",
"D#	c #ABCC93",
"E#	c #BFDC99",
"F#	c #BFDE9A",
"G#	c #A0C08F",
"H#	c #6C867B",
"I#	c #7C8E92",
"J#	c #CED3CF",
"K#	c #EBEFCC",
"L#	c #6D897B",
"M#	c #A8C994",
"N#	c #A6C993",
"O#	c #A1C692",
"P#	c #9CC18E",
"Q#	c #71987D",
"R#	c #6D957A",
"S#	c #6F977D",
"T#	c #A0C290",
"U#	c #A7CA92",
"V#	c #8DAD88",
"W#	c #63787B",
"X#	c #7A8394",
"Y#	c #CCD0D3",
"Z#	c #E9EFCD",
"`#	c #7E9094",
" $	c #607A77",
".$	c #84A288",
"+$	c #85A687",
"@$	c #8CAE89",
"#$	c #8CB08C",
"$$	c #88A68A",
"%$	c #83A187",
"&$	c #738E85",
"*$	c #566978",
"=$	c #747F93",
"-$	c #CBCFD0",
";$	c #BFD46B",
">$	c #CBCFCE",
",$	c #778592",
"'$	c #4F6175",
")$	c #576A78",
"!$	c #5C707B",
"~$	c #5D6F7B",
"{$	c #627A7C",
"]$	c #72957F",
"^$	c #77A082",
"/$	c #749582",
"($	c #5C6E7A",
"_$	c #5C7079",
":$	c #566777",
"<$	c #4C5C75",
"[$	c #D7D9D6",
"}$	c #959DAA",
"|$	c #737E92",
"1$	c #748194",
"2$	c #777F94",
"3$	c #71818E",
"4$	c #688580",
"5$	c #668B7A",
"6$	c #6B937B",
"7$	c #6F967B",
"8$	c #6F987A",
"9$	c #6F977C",
"0$	c #6C947C",
"a$	c #678B7D",
"b$	c #698682",
"c$	c #73818E",
"d$	c #959FAB",
"e$	c #D4DADA",
"f$	c #C9DA7C",
"g$	c #C7DB7C",
"h$	c #C2D673",
"i$	c #C8D97B",
"j$	c #EDECE7",
"k$	c #D8D8D8",
"l$	c #C9CFCF",
"m$	c #CACECF",
"n$	c #CED0CF",
"o$	c #ADB5B8",
"p$	c #71828C",
"q$	c #597277",
"r$	c #658A79",
"s$	c #6E967B",
"t$	c #67897B",
"u$	c #5A7378",
"v$	c #CED0CD",
"w$	c #CDCED0",
"x$	c #CCCDCF",
"y$	c #D6D8D7",
"z$	c #EBECE7",
"A$	c #C9DA7A",
"B$	c #D8E492",
"C$	c #D8E394",
"D$	c #C5D978",
"E$	c #D6E391",
"F$	c #DAE295",
"G$	c #CAD97C",
"H$	c #DEE7B2",
"I$	c #E9ECCF",
"J$	c #EDEECE",
"K$	c #E9F0CE",
"L$	c #EAF0CC",
"M$	c #F8FBE8",
"N$	c #526576",
"O$	c #6E997D",
"P$	c #658578",
"Q$	c #526574",
"R$	c #F8F9E9",
"S$	c #F0F3D4",
"T$	c #E9F1CC",
"U$	c #E9EFCB",
"V$	c #DAE596",
"W$	c #CFDD86",
"X$	c #DCE497",
"Y$	c #DAE394",
"Z$	c #C8DC85",
"`$	c #DCE6A7",
" %	c #CFD0D2",
".%	c #767E93",
"+%	c #4F6573",
"@%	c #648678",
"#%	c #70997B",
"$%	c #6E997B",
"%%	c #577377",
"&%	c #688A7A",
"*%	c #6C9479",
"=%	c #D0D0D2",
"-%	c #F1F4D9",
";%	c #C4D877",
">%	c #C5D97A",
",%	c #DBE698",
"'%	c #D0DE87",
")%	c #C4D672",
"!%	c #CADD84",
"~%	c #E1E9B6",
"{%	c #CED2C1",
"]%	c #959EA5",
"^%	c #67847F",
"/%	c #72828F",
"(%	c #66837E",
"_%	c #6E9080",
":%	c #85A590",
"<%	c #6F8F80",
"[%	c #66837F",
"}%	c #70808D",
"|%	c #939CA3",
"1%	c #CED3BD",
"2%	c #C1D574",
"3%	c #BDD36E",
"4%	c #D9E495",
"5%	c #C2D876",
"6%	c #D0D5C1",
"7%	c #B1B6BC",
"8%	c #4E6472",
"9%	c #B1B9BC",
"0%	c #AFB7BA",
"a%	c #6F808A",
"b%	c #71848B",
"c%	c #BAC3BE",
"d%	c #B8C3BD",
"e%	c #72858C",
"f%	c #6D7F8B",
"g%	c #ADB4BA",
"h%	c #CFDA9E",
"i%	c #C9DC83",
"j%	c #C4D673",
"k%	c #CADB7D",
"l%	c #DDE598",
"m%	c #DBE495",
"n%	c #E4EDB8",
"o%	c #727D91",
"p%	c #959CA2",
"q%	c #D4D7C4",
"r%	c #D1D6C0",
"s%	c #929BA2",
"t%	c #D0D5BF",
"u%	c #919AA1",
"v%	c #919AA3",
"w%	c #CFD3C2",
"x%	c #E3ECB7",
"y%	c #D7E293",
"z%	c #DBE697",
"A%	c #CDCED2",
"B%	c #CFDB9D",
"C%	c #CDDB9E",
"D%	c #CED3BF",
"E%	c #CDD1C0",
"F%	c #CFD3C4",
"G%	c #CDDBA0",
"H%	c #C8DB7F",
"I%	c #E0E89D",
"J%	c #DFE7B6",
"K%	c #C8DB82",
"L%	c #E1E9B8",
"M%	c #C1D66F",
"N%	c #D8E395",
"O%	c #C9DA7E",
"P%	c #C2D677",
"Q%	c #BDD670",
"R%	c #DAE597",
"S%	c #CADB7F",
"T%	c #C9DC80",
"U%	c #BED771",
"V%	c #C0D76F",
"W%	c #C0D56C",
"X%	c #D1DF88",
"Y%	c #D7E391",
"Z%	c #C6DA79",
"`%	c #CBDC7E",
" &	c #E4E89E",
".&	c #E1E79D",
"+&	c #CBDA7D",
"@&	c #CAD97A",
"#&	c #C6DA7B",
"$&	c #BCD56F",
"%&	c #E0E89F",
"&&	c #BCD56D",
"*&	c #CCDB80",
"=&	c #CFDF87",
"-&	c #D9E593",
";&	c #E1E9A0",
">&	c #C7D87A",
",&	c #D1DD87",
"'&	c #CBDC80",
")&	c #C8D979",
"!&	c #E2E8A0",
"~&	c #C9D87B",
"{&	c #C2D471",
"      . . . . +     . .   @ + . . . . # . . . $ # . # . . % . . . . . . . . . . . . . . . . . .     & . % % . # * = # . . . % % ",
"    . . . . . . $ $ . . $ $ . . # . % . . . . . . # - . # . . . . . . . . . . . . . . . . . . . $ $ . . % % . # * # # . . . % % ",
"  . . . . . . . . . . . . . . . . . . . . . % . . . . . . . $ $ . . . . . . . . . . . . . . . . . . . . . . . . # # . . . . . . ",
". . . . . . . . . . . . . . . . . . . . . . . . . . . . . . $ $ . . . . . . . . . . . . . . . . . . . . # # . . . . . . . . . . ",
". . . . . - . . . . . . . . . . $ $ . . . . . . ; # . . . . . . . . . . . . . . . . . . . . . . + . . # + + + . . . . . . . # # ",
". . . . . . . . . . . . . . . . $ > . . . . . , ' ) , . . . . . . . . . . . . . . . . . . . . . # , ) ) ! ~ ) ' % # . . . . # # ",
". . . . . . . . . . . . . . . . . . . . . . { ) ] ^ ) - . . . . . . . . . . . . . . . . . . . . % ) ] / ' ' ( _ ) . . . . . . % ",
". . . . . . . . . . . . . . . . . . % . . % ' : < [ ) - . % . . . . . . . . . . . . . . . . . . # } ] < | | < 1 ) - . . . . . . ",
". . . . . . . . % . 2 $ % . + . # . # # # ) 3 < 4 ) 5 . . . # . . . . . . . . . . . . . # . . ;   ~ ) 4 < 6 4 ' . # . . # # . . ",
". . . . . . . . . # ~ $ . . . . . 7 # # # 8 9 0 a # . % . . . . . . . . . . . . . . . . . . . . $ > # ) ] ] ) # # # . . # # . . ",
". . . . . . . . # # ; . $ . . . . . . # # 8 0 0 a # . . . . + . . . . . . . . . . . . . . . . . . ; # , b ) , # % . . . . . . . ",
". . . . . . . % ) ) , % . . . # . c c . # ) d d ) # . . . . . . # . . . . . . # . . . . . . . # . # $ . # . . . . . . . . . . . ",
"e $ . . . # 7 a f g ) # h . . . . . . . . , ) } , . . . . . . . # . . . . . . . . . . . . . . . # # . . . . . . $ . . . $ $ . . ",
"e $ . . . # 7 ) ] i 4 ) % . . . . . . . . . . . . . . . # . + . c j j j j j j c . . . . . . . . # # + . # # . . . % . . $ $ . . ",
"+ . . . . . . k l m i 3 n . k o . . $ $ # h . . . . . . . . + . % & & & & & & % . . . . . . . . . . . . . . . # # . . . # . . . ",
". . . . . . . # p q r r s - - { . k * & b a % # . . . % . # % t u v w x x x y z A . . . . . . . . . . . . . - > # . . % c c . # ",
"+ . . . . . . # # a B C 8 - - c c . ; ' [ ] } > # . . c . % D E F G G H H I J K L % c c . . . . . . . . . . . . . . . . . . . . ",
"+ . . . . . . . . } M N ) O . . - D ) : P g Q   + c . . % t R S T U V W V X Y Z `  .D j . - . . . . . . . . . . . . . . . . . . ",
"  $ . . . . . . . , ..) o . . . . ' +.@.#.$.%.& & % . %  .&.*.=.-.;.>.,.>.'.).!.~. . .& % % . . . . . . . . . . . . . . . . . . ",
"  $ $ . . . . . . . # # . . . . . {.].^./.(.w w (._.:.:.R <.[.}.|.1.2.3.4.5.6.7.8.9.0.u a.D j . % . . . . . . . . . . . . . . . ",
"+ . . . . . . . - . . . . . . . j b.c.d.e.G H G f.g.z h.i.j.k.l.m.n.o.p.q.r.s.t.u.f.f.v.w. .% # . . . . . . . . . . . . . . . . ",
"+ . . . . . . . . . . . c . . j & y J x.y.6.z.U U A.B.C.=.}.D.E.F.G.H.I.J.K.L.M.N.O.P.T Q.R.:.% % . . . % . . . . . . . . . . . ",
"+ . % % . . # # . . S.c k % . j T.x I U.V.r.W.X.Y.Z.`. +.+|.++@+#+$+%+&+*+=+-+;+>.X.X.>+,+'+&.)+!+. # . % . . . . . . . . . . . ",
"+ . % % . . # # . . S.c % % . j D ~+H {+r.]+^+/+(+_+:+<+[+(+}+|+H.1+2+3+4+5+6+7+7+8+9+0+a+=.S b+c+# % % . . . . . . . . . . . . ",
". . % % . . . . . . . . % % c j D ~+H z.d+^+e+}+f+g+h+i+j+k+l+m+n+o+p+q+r+s+t+f+}+u+v+w+x+Z.y+g.R.% c . . % . . . . . . . . . . ",
". . % % . . . . . . . . . . S.j & z+G A+X.B+}+C+D+E+F+G+H+I+J+K+L+M+N+O+P+Q+E+R+|+S+T+U+V+W+W X+Y+& j . . . . . . . . . . . . . ",
". . . . . . % % . . . . . . c D & w Z+P.`+ @f+.@+@@@#@$@%@&@*@$+=@N+-@;@>@,@'@)@!@n+~@{@]@Y.^@f.w & j . . . . . . . . . . . . . ",
". . . . . % % % . . . . # # . c % u v.y+>+/@g+J+(@_@:@<@[@}@|@2+1@2@3@4@5@1@2+6@<@7@8@9@0@a@b@I c@& j . . . . . . . . . . . . . ",
". . . . . . . . . % . . . . . - . :.w.B.`.d@e@f@g@h@i@j@k@l@m@n@2+|@o@o@|@p@1@q@r@s@t@u@v@w@x@e.y@T.j . . . . . . . . . . . . . ",
". . . . . . . . . . . . . . . . & :.h.z@`.A@B@C@D@E@F@G@H@I@J@p@1@K@L@M@7@N@O@G@P@Q@R@S@T@t.U@V@W@% c . . . . . . . . . . . . . ",
". # . . # # . . . . . . . # . 5 T.R.i.=..+[+X@Y@Z@`@ #.#+#k@@#1@p@8@##L@<@$#%#&#*#=#-#;#>#,#'#W@)#. . . . . . . . . . . . . . . ",
". # . . # # . . . . . . . . + t !#~#{#]#^#/+/#(#_#3@:#<#[#}#@#N@O@G@H@H@|#1#2#3#4#5#6#7#8#9#0#a#:.. . . + # # . . . . . . . . . ",
". . . . . . . . . . + . % . % u v.b#-.c#d#e#f#g#h#i#P@[#[#j#_@i@k#l#+#m#s@l#<#n#o#p#q#r#s#t#T g.u#% c . c j . . - - . . . . . . ",
". . . . . . . . . . . . . % + w f.W v#w#x#y#z#S+n+@#k@[#[#s@A#G@H@[#[#<#B#+#&#C#D#E#F#G#H#I#J#f.w & j % c c . . - . . . . . . - ",
". . . . . . . . . . . . - % & w K#W >.L#o.M#N#O#P#@#k@[#[#Q#s@l@m#R#S#[#[#l#G@6@T#N#U#V#W#X#Y#G v & j . # . .   . . # . . % # . ",
"# . . . . . . . . . % . . % & x Z#z.`# $-@.$.$+$@$G@s@[#<#R#[#[#<#<#<#S#[#s@1##$$$%$.$&$*$=$-$H w & j . % % . . $ % . . % . . # ",
"# . . . # # . . # . + % + % ;$x H >$,$'$)$!$~${$]$##m#[#<#<#<#<#<#<#<#<#<#m#^$/$X@($_$:$<$=$-$H w & j . . c c j . % % !+c - $ $ ",
"# . . . # # . . # . + !+. % T.x K#[$}$|$=$1$2$3$4$5$6$7$<#<#8$9$<#<#<#<#<#0$a$b$c$2$2$|$=$d$e$H c@% j . $ A f$g$h$h$i$i$; . $ $ ",
". . . . . . . . . . . % . % & x I j$k$l$m$n$n$o$p$q$r$9$9$<#9$9$<#<#[#s$*#t$u$p$o$v$w$x$m$y$z$e.y & j . j A$B$C$i$D$E$F$G$. . $ ",
". . . . % % . . . . . . - % % z H$I$J$K$L$7.M$v$2$N$R@O$O$0$r$r$0$s$R#R#8$P$Q$=$n$R$S$T$L$U$J K b.!+% c j A$C$V$W$W$X$Y$G$c % % ",
"+ . . . c . . . . . c c . . . t Z$x x ~+9.`$u. %.%+%@%#%$%5$q$%%&%s$R#*%*#@%+%.%=%-%`$~+~+x x E ;%. . $ c h >%W$,%,%'%i$)%. . . ",
". % . . . % . . . c , c S.A f$i$; D D D  .!%~%{%]%3$^%@%@%4$/%/%(%_%:%:%<%[%}%|%1%v.!% .D + D D . . 2%- c 3%D i$C$C$i$~ c # . . ",
"# # . . . # . $ . . . j , i$4%4%f$D D D & 5%u ~#6%7%3$8%8%p$9%0%a%b%c%d%e%f%g%6%h%i%j%% % j % % $ . . . # c % h$f$k%j%. . . . . ",
"# # . + . . . . - . S.h$i$'%l%m%f$% % & . % D &.n%6%|%o%o%p%q%r%s%s%t%t%u%v%w%x%&. .k - . . . . . . % . $ . - % c c . . . # . # ",
"# # . . . c c c . . 7 f$y%z%'%i$j%. . . . - % :.!%~#{%A%A%1%B%C%D%E%h%h%E%F%G%&.:.% . . . . $ $ # # . . $ . . . . . . . . . . . ",
"# # . . . :.f$f$h$% , H%I%I%k%j % c . . . . % j D h.v.Z+Z+J%K%i%L%L%K%z L%L%E D ~ . . . . . M%. . . % . . . . . . . % . . . . . ",
". . # . c f$C$N%i$D , O%I%I%f$% c . # # . . # 7 . ;%u w v u#:.t E u t P%u u t !+. . . . . # M%# . . . . . . . . - . . + + + + + ",
"% . > . Q%i$N%R%'%D$h S%I%I%T%% c . U%V%. . . # # % j & & % . . % % . . & % - . . . . . . # 7 # . + . + . . . . - . . + + + + W%",
". . + . . :.i$X%V$Y%Z%`% &.&T%. c . V%j c c . $ $ . # c c c c c c c . . c c 7 . . . $ . . $ . . . . . . . . . . . . . . . . . . ",
". . + . . & , k%I%I%S%+&B$B$f$% . . V%h$f$f$h$Q%. . . . . # c c . . . . . . . M%S.c . . c . . . . . . . . . . . . . . . . . . . ",
". . . . . c % k%I%.&S%; Z%@&h$. $ $ c f$4%4%#&$&c . . . . . . . . . . . . . % % % . ! % % c . - . . . . . . . . . . . . . . . . ",
". . . . % c % S%%&I%S%% &&j . . $ $ k i$V$,%W$i$h$. . . . . . . . c . . . . % h$g$k%h h i$f$:.. . . . . . . . . . . . . . . . . ",
"c . . $ . c % S%I%I%*&% j c . . . c c h$#&=&V$Y%f$c . . . . . . . . $ $ . c % k%C$C$i$i$C$N%i$c . . . . . . . . . . . . . . . . ",
"j . . . . c . f$y%y%f$j . . . . . # c % , k%I%I%S%% Q%. . . . . . . $ $ . c . G$-&R%'%'%R%C$f$c . . . . . . . . . . . . . . . . ",
"c . c c c c . j%>%>%h$. c - $ . . . . Q%k k%;&I%S%~ c . . c . . . . c . $ . . t >&,&X$X$=&i$h$j . . . . . . . . . . . . . . . . ",
". . c c c c . c , , c . + . c . . . . c 3%S%I%I%'&c . . . . $ . . . . . . . . . & )&F$C$i$, c c . . . . . . . . . . . . . . . . ",
". % . . . . . . c c . . k k c c . . . c , '&;&!&*&c % # . . Q%c . . . . . . # # & > ~&O%h$c c . . . . . . . . . . . . . . . . . ",
". . . . . . . . . . . . % % c c . . . . c f$C$N%f$c . # . . c . . . . . . . # #   & % , . . . - . . . . . . . . . . . . . . . . ",
". . . . # # . . . . . . % . . . . . . . . h$f$i$j%- . . . . c # $ . . . . . . . . . + + . . . . . . . . . . . . . . . . . . . . ",
"# . . . # # . . . . . . . . . . . . . . . . c % . - . . . . . # $ $ . . . # . . . . . . . % . . . . . . . . . . . . . . . . . . ",
". . ; # . . % % . . . . . . S.S.. + . . > 7 . . . - . . . . # # # . . k . - . . + + . - . . . . . . . . . . . . . . . . . . . . ",
". . # # . . % % . . . . . . S.S.- . . . # # . . . . . . . . # # . . % k . - . . . . . . . . . . . . . . . . . . . . . . . . . . ",
". . . . . . . . O - . . . . . . . . . . $ . . . . . + . . . % . # # . . . . c c k k c c - . . . . . . . . . . . . . . . . . . . ",
". # . . . . . . {&- . . . . . . . - . . . . . . $ . + + . . + . # # . + # + c , o o c . . $ . . . . . . . . . . . . . . . . . . "};
