/* XPM */
static char * grass_xpm[] = {
"64 64 135 2",
"  	c #C2D46E",
". 	c #C0D570",
"+ 	c #C0D56E",
"@ 	c #C2D56C",
"# 	c #C1D671",
"$ 	c #C2D470",
"% 	c #BFD46F",
"& 	c #BFD46D",
"* 	c #C3D56F",
"= 	c #C2D770",
"- 	c #C0D471",
"; 	c #C2D772",
"> 	c #C3D571",
", 	c #BED46F",
"' 	c #BCD26E",
") 	c #BBD16D",
"! 	c #C0D26E",
"~ 	c #C1D36F",
"{ 	c #C0D672",
"] 	c #AFC968",
"^ 	c #B0C866",
"/ 	c #B0CA69",
"( 	c #AEC968",
"_ 	c #ACCA6A",
": 	c #B4CC6A",
"< 	c #ADC869",
"[ 	c #AFC86A",
"} 	c #BCD06D",
"| 	c #B4CE6B",
"1 	c #AEC96A",
"2 	c #C3D370",
"3 	c #B5CD6B",
"4 	c #BED36E",
"5 	c #AAC868",
"6 	c #BFD570",
"7 	c #B8D06E",
"8 	c #A7C467",
"9 	c #AAC568",
"0 	c #BAD06C",
"a 	c #C1D572",
"b 	c #B9D26D",
"c 	c #AFCA69",
"d 	c #C1D36D",
"e 	c #C0D671",
"f 	c #AEC867",
"g 	c #ACC567",
"h 	c #BFD370",
"i 	c #BCD16C",
"j 	c #B6CC6A",
"k 	c #ADC766",
"l 	c #BFD571",
"m 	c #C3D66D",
"n 	c #BACE6B",
"o 	c #A9C467",
"p 	c #A8C568",
"q 	c #C4D56F",
"r 	c #AFCA6B",
"s 	c #C1D66F",
"t 	c #BBD16F",
"u 	c #A7C565",
"v 	c #AAC566",
"w 	c #BBD16C",
"x 	c #B5CD6D",
"y 	c #BFD573",
"z 	c #BDD36E",
"A 	c #B8D16C",
"B 	c #BED26F",
"C 	c #BFD46B",
"D 	c #C5D774",
"E 	c #C9DA7C",
"F 	c #C2D673",
"G 	c #C8D97B",
"H 	c #C9DA7A",
"I 	c #D9E593",
"J 	c #D8E394",
"K 	c #C5D978",
"L 	c #D6E391",
"M 	c #DAE295",
"N 	c #CAD97C",
"O 	c #BFD66E",
"P 	c #DAE596",
"Q 	c #CFDD86",
"R 	c #DCE497",
"S 	c #DAE394",
"T 	c #C5D97A",
"U 	c #DBE698",
"V 	c #D0DE87",
"W 	c #C4D672",
"X 	c #C3D873",
"Y 	c #C3D776",
"Z 	c #DBE495",
"` 	c #CADB7D",
" .	c #C4D673",
"..	c #C7D87A",
"+.	c #DEE699",
"@.	c #D7E293",
"#.	c #D0DE86",
"$.	c #C3D774",
"%.	c #CADB7F",
"&.	c #E0E89D",
"*.	c #E1E79D",
"=.	c #D8E395",
"-.	c #BED56D",
";.	c #BDD670",
">.	c #DAE597",
",.	c #CFDF87",
"'.	c #CBDC80",
").	c #BED36C",
"!.	c #C0D56C",
"~.	c #D1DF88",
"{.	c #D7E391",
"].	c #C6DA79",
"^.	c #CBDC7E",
"/.	c #E4E89E",
"(.	c #C9DC80",
"_.	c #CBDA7D",
":.	c #D8E492",
"<.	c #CAD97A",
"[.	c #D9E495",
"}.	c #C6DA7B",
"|.	c #E0E89F",
"1.	c #BCD56D",
"2.	c #C7DB7C",
"3.	c #CCDB80",
"4.	c #DFE79C",
"5.	c #E1E79F",
"6.	c #D1DD87",
"7.	c #C8D979",
"8.	c #E1E9A0",
"9.	c #E2E8A0",
"0.	c #C9D87B",
"a.	c #C9DA7E",
"b.	c #C0D473",
"c.	c #C2D471",
"d.	c #BED470",
"      . . . . +     . .   @ + . . . . # . . . $ # . # . . % . . . . . . . . . . . . . . . . . .     & . % % . # * = # . . . % % ",
"    . . . . . . $ $ . . $ $ . . # . % . . . . . . # - . # . . . . . . . . . . . . . . . . . . . $ $ . . % % . # * # # . . . % % ",
"  . . . . . . . . . . . . . . . . . . . . . % . . . . . . . $ $ . . . . . . . . . . . . . . . . . . . . . . . . # # . . . . . . ",
". . . . . . . . . . . . . . . . . . . . . . . . . . . . . . $ $ . . . . . . . . . . . . . . . . . . . . # # . . . . . . . . . . ",
". . . . . - . . . . . . . . . . $ $ . . . . . . ; # . . . . . . . . . . . . . . . . . . . . . . + . . # + + + . . . . . . . # # ",
". . . . . . . . . . . . . . . . $ > . . . . . , ' ) , . . . . . . . . . . . . . . . . . . . . . # , ) ) ! ~ ) ' % # . . . . # # ",
". . . . . . . . . . . . . . . . . . . . . . { ) ] ^ ) - . . . . . . . . . . . . . . . . . . . . % ) ] / ' ' ( _ ) . . . . . . % ",
". . . . . . . . . . . . . . . . . . % . . % ' : < [ ) - . % . . . . . . . . . . . . . . . . . . # } ] < | | < 1 ) - . . . . . . ",
". . . . . . . . . . 2 $ . . . # . # # # > ) ] < 3 ) 4 . . . . . . . . . . . . . . . . . . . . .   ~ ) 3 < 5 3 ' . # . . # # . . ",
". . . . . . . . 6 # ~ $ . . . . . . # > # 7 8 9 0 a . % . . . # . . . . . . . . . . . . . . . . $ > # ) ] ] ) # # # . . # # . . ",
". . . . . . . . # # ; . . . . . . 6 % # # 7 9 9 0 # . . . . . . . . . . . . . . . . . . . . . . . ; # , b ) , # % . . . . . . . ",
". . . . . . . % ) ) , . . . . # . . . . # ) ( c ) # . . . . . . . . . . . . . . . . . . . . . . . # $ . # . . . . . . . . . . . ",
"d $ . . . # e 0 f f ) # > $ . . + . . 6 . , ) ) , # . . . . . . . . . . . . . . . . . . . . . . # # . . . . . . $ . . . $ $ . . ",
"d $ . . . # e ) ] g 3 ) % % . . . $ . # . . 6 . . . . . . . . . . . . . . . . . . . . . . . . . # # + . # # . . . % . . $ $ . . ",
"+ . . . . . . h i j k ] ) . h l # .   & # # . - . # . . . . . . . . . . . . . . . . . . . . . . . . . . . . . # # . . . # . . . ",
". . . . . . . # m n o o 7 e - 6 - + * ~ ) b , . . . . # . . . % . . . . . . . . . . . . . . . . . . . . . . - > # . . % 6 6 . # ",
"+ . . . . . . # # 0 p p 7 - - ~ $ q > ) ] ] } # 6 . . . . . . . % % . % . . . . % . $ $ + . 6 # . . . . . . . . . . . . . . . . ",
"+ . . . . . . . . ) c r ) - . # s ! ) 3 < ] ) . . . . . . . . . . % . . % . . . 4 . > * # + . . . . . . . . . . . . . . . . . . ",
"  $ . . . . . . . , ) ' h . . . # t 1 < | ) % . l l . . 6 . $ 2 . % . . . . # . . . # a . . . . . . . . . . . . . . . . . . . . ",
"  $ $ . . . . . . . # # - . . . # 7 8 u 0 # # . l l - . . . $ $ $ . . . # % ) ) % 4 ) t , . . . . . . . . . . . . . . . . . . . ",
"+ . . . . . . . . . . . - . . . # 7 v v 0 a # . . . . . $ $ . . . . . # * i [ ] ' ' ] ] ) . . . . . . . . . . . . . . . . . . . ",
"+ . . . . . . . . + . . 6 . . . # ) f ] w . . . . . . . $ $ . . . . . # * i / f x 3 < ( ) # # . . . . . . . . . . . . . . . . . ",
"+ . % % . . # # . . y 6 h % - . a z A ) , . . $ . . . . . . . . % % . . # % ' | < < 3 ' 6 # . - . . . . . . . . . . . . . . . . ",
"+ . % % . . # # . . l 6 % % . . . . . . . . . . . . . 6 . . . . h % . % . # ; ' ] ] ) # # # h + . . . . . . . . . . . . . . . . ",
". . % % . . . . . . . . % , 6 6 . . % % . . . . . . . 6 . . . . . . . . . . . % } } B - . . . . . . . . . . . . . . . . . . . . ",
". . % % . . . . . . . . . 6 6 6 . . % % . . . . . . . . . . . . . . . . . . . % # . . . . . . . . . . . . . . . . . . . . . . . ",
". . . . . . % % . . . . . . . . . . . . . . . . % % . # . . . . . . . . . . . . . . . . . . . . . . . . . . . . . . . . . . . . ",
". . . . . % % % . . . . # # . . . . . . . . . . % % . # . . . . . . . . . . . # + . . . . . . . . . . . . . . . . . . . . . . . ",
". . . . . . . . . . . . . . . . . . . . . . . . . . l l h % . 6 . . . . . # ; # . . . . % % % % . . . . . . . . . . . . . . . . ",
". . . . . . . . . . . . . . . . . . . . . . . . . . l l . . . . . . . + + # ; # . . . . . % % % . . . . . . . . . . . . . . . . ",
". # . . # # . . . . . . . . . . . . . . # # . . . . . . s s . . . . $     > # . % . . . . . . . . . . . . . . . . . . . . . . . ",
". # . . # # . . . . . . . . . . . . . . # # . . . . . . s s . . . . $     $ . . . . . . # # . . . . . . . . . . . . . . . . . . ",
". . . . . . . . . . . . . . . . . . . . . . . . . . . . . . . . . . . . . . . . . . . . . . . . + . . . 6 6 . . - - . . . . . . ",
". . . . . . . . . . + . - . . . . . . . . . . . . . . . . . . . . . . . . . . . . . . . . . . . . . . # 6 6 - . - . . . . . . - ",
". . . . . . . . . . . . - - . . . . . . . . . . . . . . . . . . . . . . . . . . . . . . . . . . . . # . . . . . . . # . . % # . ",
"# . . . . . . . . . . . . - . . . . . . . . . . . . . . . . . . . . . . . . . . . . . . . . . . . # . . . . # . $ % . . % . . # ",
"# . . . # # . . # . C % . . # . . . . . . . . . . . . . . . . . . . . . . . . . . . . . . . . . . . . . . . 6 6 . % % 4 6 - $ $ ",
"# . . . # # . . # . + % . . # . . . . . . . . . . . . . . . . . . . . . . . . . . . . . . . . . . . . . + D E E F F G G ; . $ $ ",
". . . . . . . . . . . . . - . . . . . . . . . . . . . . . . . . . . . . . . . . . . . . . . . . . . . . + H I J G K L M N . . $ ",
". . . . % % . . . . . . - . . . . . . . . . . . . . . . . . . . . . . . . . . . . . . . . . . . . . . 6 O H J P Q Q R S N 6 % % ",
"+ . . . 6 . . . $ . e 6 . $ . . . . % . . . + . . . . . . . . . . . . . . . . . . . . . . . . . . . - $ 6 a T Q U U V G W . . . ",
". % . . . % . . . 6 O 6 l X E E Y . . . % . . . . . . . . . . . . . . . . . . . . . . . . . . . . . - - l , , G J J G ~ 6 # . . ",
"# # . . . # . $ . . . 6 % G Z Z E 6 6 . . . . . . . . . . . . . . . . . . . . . . . . . . . . . $ . . . . , % F E `  .. . . . . ",
"# # . + . . . . . + . F ..V +.Z E 6 . . . . . . . . . . . . . . . . . . . . . . . . . . . . . . . . . . ~ . # . 6 6 . . . # . # ",
"# # . . . 6 6 6 . . 6 E @.P #.G F 6 . . . . . . . . . . . . . . . . . . . . . . . . . . . . . . . . . - $ . . . . . . . . . . . ",
"# # . . . $.E E F % % %.&.*.E , % . . . . . . . . . . . . . . . . . . . . . . . . . . . . . . . . . . . . + . . . . % . . . . . ",
". . # . 6 E J =.G -.6 %.&.&.` % 6 . . . 6 . . . . . . . . . . . . . . . . . . . . . . . . . . . . . . % % . . + - . . + + + + + ",
"% . > . ;.G =.>.,.K a '.&.&.'.).6 . . . 6 . . . . . . . . . . . . . . . . . . . . . . . . . . . . . . . . . # . - . . + + + + !.",
". . + . . $.G ~.P {.].^./.*.(.. 6 $ O -.6 6 . . - . # . . 6 6 6 . . . . . . # . . . $ . . $ . . . . . . . . . . . . . . . . . . ",
". . + . . & , ` &.&.%._.:.:.E % . . O F G E F 6 . . . . 6 # 6 6 . . . . . . . s l 6 . . 6 . . . . . . . . . . . . . . . . . . . ",
". . . . . 6 % ` &.*.%.; ].<.F . $ $ 6 E [.[.}.% 6 . . . . . . . . . . . . . % % % . ! % % 6 . - . . . . . . . . . . . . . . . . ",
". . . . % 6 % %.|.&.%.% 1.O . . $ $ h E [.U V G F . . . . . . . . . . . . . % F 2.` a a G E $.. . . . . . . . . . . . . . . . . ",
"6 . . $ . 6 % %.&.&.3.% O 6 . . . . 6  .}.V P L E 6 . . . . . . . . $ $ . 6 % ` J J G G J =.G 6 . . . . . . . . . . . . . . . . ",
"O . . . . 6 . E @.@.E O . . . . # . 6 6 , ` &.4.%.% 6 . . . . . . . $ $ . 6 . E I >.V V >.J E 6 . . . . . . . . . . . . . . . . ",
"6 . 6 6 6 6 .  .T T F . 6 - $ . . . % ;.h ` 5.&.%.~ 6 . . . . . . . . . . . . Y ..6.R R ,.G F O . . . . . . . . . . . . . . . . ",
". . 6 6 6 6 . 6 , , 6 . + . 6 . . . . 6 4 %.&.&.'.6 . . . . $ . 6 . . . 6 . . . & 7.M J G , 6 6 . . . . . . . . . . . . . . . . ",
". % . . . . . . 6 6 . . h h 6 6 . . . 6 , '.8.9.3.6 % # . . ;.6 . . . . . . # # & > 0.a.F 6 6 . . . . . . . . . . . . . . . . . ",
". . . . . . . . . . . . % % 6 6 . . . . 6 E J =.E 6 . # . . 6 . . . . . . . # #   & % , . . . - . . . . . . . . . . . . . . . . ",
". . . . # # . . . . . . % . . . . . . . . F E G  .- . . . . 6 # $ . . . . . . . . . + + . . . . . . . . . . . . . . . . . . . . ",
"# . . . # # . . . . . . . . . . . . . . . . 6 % . - . . . . . # $ $ . . . # . . . . . . . % . . . . . . . . . . . . . . . . . . ",
". . ; # . . % % . . . . . . l l . + . . > e . . . - . . . . # # # . . h . - . . + + . - . . . . . . . . . . . . . . . . . . . . ",
". . # # . . % % . . . . . . l l - . . . # # . . . . . . . . # # . . % h . - . . . . . . . . . . . . . . . . . . . . . . . . . . ",
". . . . . . . . b.- . . . . . . . . . . $ . . . . . + . . . % . # # . . . . 6 6 h h 6 6 - . . . . . . . . . . . . . . . . . . . ",
". # . . . . . . c.- . . . . . . . - . . . . . . $ . + + . . + . # # . + # + 6 , d.d.6 . . $ . . . . . . . . . . . . . . . . . . "};
