/* XPM */
static char * player_front_grass_xpm[] = {
"64 64 661 2",
"  	c #C2D46E",
". 	c #C0D570",
"+ 	c #C0D56E",
"@ 	c #C2D56C",
"# 	c #C1D671",
"$ 	c #C2D470",
"% 	c #BFD46F",
"& 	c #BFD46D",
"* 	c #C3D56F",
"= 	c #C2D770",
"- 	c #C0D471",
"; 	c #C2D772",
"> 	c #C3D571",
", 	c #BED46F",
"' 	c #BCD26E",
") 	c #BBD16D",
"! 	c #C0D26E",
"~ 	c #C1D36F",
"{ 	c #C0D672",
"] 	c #AFC968",
"^ 	c #B0C866",
"/ 	c #B0CA69",
"( 	c #AEC968",
"_ 	c #ACCA6A",
": 	c #B4CC6A",
"< 	c #ADC869",
"[ 	c #AFC86A",
"} 	c #BCD06D",
"| 	c #B4CE6B",
"1 	c #AEC96A",
"2 	c #C3D370",
"3 	c #B5CD6B",
"4 	c #BED26F",
"5 	c #AAC868",
"6 	c #B8D06E",
"7 	c #AAC566",
"8 	c #AAC568",
"9 	c #BAD06C",
"0 	c #B9D26D",
"a 	c #AFCA69",
"b 	c #BBD16F",
"c 	c #C1D36D",
"d 	c #C0D671",
"e 	c #ADC867",
"f 	c #AEC867",
"g 	c #C1D572",
"h 	c #ADC766",
"i 	c #C1D870",
"j 	c #BFD870",
"k 	c #C1D86E",
"l 	c #BFD370",
"m 	c #BED06C",
"n 	c #B6CC68",
"o 	c #AFC966",
"p 	c #BBD16C",
"q 	c #BED470",
"r 	c #C2D971",
"s 	c #C3D86F",
"t 	c #C2D76E",
"u 	c #C1D66F",
"v 	c #C4D56F",
"w 	c #BACE6B",
"x 	c #A9C467",
"y 	c #BAD06E",
"z 	c #C4D670",
"A 	c #BED56D",
"B 	c #B5CA6F",
"C 	c #AAB974",
"D 	c #A6B179",
"E 	c #A5B378",
"F 	c #A5B078",
"G 	c #ACBB76",
"H 	c #BBCE72",
"I 	c #C1D66D",
"J 	c #C3D871",
"K 	c #AEBB76",
"L 	c #A6B07B",
"M 	c #A4B179",
"N 	c #BFD570",
"O 	c #A8C568",
"P 	c #BDD46C",
"Q 	c #B3CE67",
"R 	c #9EB16F",
"S 	c #7D8182",
"T 	c #6E688A",
"U 	c #706B8B",
"V 	c #6F6A8A",
"W 	c #6D698A",
"X 	c #848482",
"Y 	c #AEBE77",
"Z 	c #C3D96D",
"` 	c #C4DA6E",
" .	c #6E6989",
"..	c #6E688C",
"+.	c #B0BD77",
"@.	c #C4D970",
"#.	c #AFCA6B",
"$.	c #BDD36E",
"%.	c #B0C76D",
"&.	c #9BB06D",
"*.	c #8B987C",
"=.	c #817E91",
"-.	c #7E72A0",
";.	c #7C73A0",
">.	c #7D719F",
",.	c #878296",
"'.	c #9DA482",
").	c #AEBE75",
"!.	c #BCD06F",
"~.	c #BCD071",
"{.	c #9DA483",
"].	c #7B729F",
"^.	c #7B72A1",
"/.	c #7F72A0",
"(.	c #9EA383",
"_.	c #ADBD76",
":.	c #BECF73",
"<.	c #BCD26D",
"[.	c #B2CC69",
"}.	c #98AE6E",
"|.	c #787E7E",
"1.	c #827F92",
"2.	c #B5B2AB",
"3.	c #D2CDBA",
"4.	c #D0CBB7",
"5.	c #D0CBB5",
"6.	c #D0CBB8",
"7.	c #B6B1AB",
"8.	c #848683",
"9.	c #C5DD6F",
"0.	c #848685",
"a.	c #D1CCB8",
"b.	c #B7B2AE",
"c.	c #878394",
"d.	c #B9D26C",
"e.	c #ABC965",
"f.	c #8EA26D",
"g.	c #686487",
"h.	c #7E6DA1",
"i.	c #D0C0B3",
"j.	c #F8EABB",
"k.	c #F6E9BC",
"l.	c #F8EDBF",
"m.	c #FCF6C2",
"n.	c #7C709E",
"o.	c #665E8D",
"p.	c #90957E",
"q.	c #AAB676",
"r.	c #FBF5C1",
"s.	c #F6E9BD",
"t.	c #F8EBBE",
"u.	c #CEC0B3",
"v.	c #7B6D9E",
"w.	c #B9D26A",
"x.	c #ACC864",
"y.	c #8DA16C",
"z.	c #666584",
"A.	c #7B679C",
"B.	c #C7A7AA",
"C.	c #EEC8B1",
"D.	c #EFC6B2",
"E.	c #F1D4B6",
"F.	c #7D729C",
"G.	c #594D8D",
"H.	c #69618A",
"I.	c #716D88",
"J.	c #68618A",
"K.	c #594D8F",
"L.	c #7D729D",
"M.	c #D1CCB6",
"N.	c #F4D2B6",
"O.	c #F0C5B2",
"P.	c #F1C8B2",
"Q.	c #C7A7AC",
"R.	c #79679B",
"S.	c #A6B479",
"T.	c #B2CC67",
"U.	c #94A770",
"V.	c #6C6988",
"W.	c #7B6299",
"X.	c #C399A5",
"Y.	c #E9B4AC",
"Z.	c #E8B1AA",
"`.	c #ECC3B1",
" +	c #F3E6BC",
".+	c #D8D4BB",
"++	c #988FAE",
"@+	c #766BA5",
"#+	c #756AA2",
"$+	c #796BA6",
"%+	c #796CA4",
"&+	c #786AA5",
"*+	c #766BA3",
"=+	c #988FAC",
"-+	c #F4E7BD",
";+	c #EEC3B3",
">+	c #E9B2AB",
",+	c #EBB5AB",
"'+	c #7A639B",
")+	c #706B89",
"!+	c #BFD573",
"~+	c #C0D76F",
"{+	c #A1B077",
"]+	c #C298A6",
"^+	c #EAB4A8",
"/+	c #E9C3B0",
"(+	c #F2E5BB",
"_+	c #E9E4C4",
":+	c #C9C2C9",
"<+	c #BBB2CD",
"[+	c #BAB1CC",
"}+	c #BBB3CB",
"|+	c #BCB2CB",
"1+	c #BBB0CE",
"2+	c #CAC4C8",
"3+	c #E9E6C7",
"4+	c #F2E4BD",
"5+	c #EAC4B1",
"6+	c #E8B3AB",
"7+	c #EAB3AC",
"8+	c #C498A5",
"9+	c #716C8A",
"0+	c #A7B278",
"a+	c #C5D86F",
"b+	c #BFD571",
"c+	c #C6D96E",
"d+	c #7B669E",
"e+	c #C5A5AA",
"f+	c #ECC6B1",
"g+	c #EDC4B2",
"h+	c #EDCFB3",
"i+	c #F2E7BA",
"j+	c #EDEDC9",
"k+	c #E3DED8",
"l+	c #DED6E1",
"m+	c #DED9E0",
"n+	c #DFD8DF",
"o+	c #E1D7DF",
"p+	c #DED7DF",
"q+	c #E4E0D7",
"r+	c #EFECC9",
"s+	c #F2E9BE",
"t+	c #EBD0B5",
"u+	c #EBC5B2",
"v+	c #C7A4AA",
"w+	c #C3D66D",
"x+	c #A8B379",
"y+	c #CBBDB4",
"z+	c #F4E7BB",
"A+	c #F3E4BB",
"B+	c #F2E6BC",
"C+	c #F3EFBF",
"D+	c #EFEDC7",
"E+	c #DDD6DE",
"F+	c #DDD7E1",
"G+	c #DDD8DE",
"H+	c #DED7DE",
"I+	c #DFD5DE",
"J+	c #F4F0C0",
"K+	c #F3E7BF",
"L+	c #F4E5BE",
"M+	c #F5E8BE",
"N+	c #CBBDB2",
"O+	c #7D709E",
"P+	c #A6B477",
"Q+	c #CEC9B6",
"R+	c #F8F6C3",
"S+	c #F7F6C0",
"T+	c #F5F4BE",
"U+	c #F4F2BF",
"V+	c #EEEBC8",
"W+	c #E1DCD6",
"X+	c #DBD3DE",
"Y+	c #DBD6DD",
"Z+	c #F5F3C0",
"`+	c #F5F3C2",
" @	c #F7F5C2",
".@	c #716C8C",
"+@	c #A7B578",
"@@	c #C5DB6F",
"#@	c #C3DA72",
"$@	c #A6B476",
"%@	c #7E739E",
"&@	c #F9F6C1",
"*@	c #F6F5BF",
"=@	c #E0DBD7",
"-@	c #DBD3E0",
";@	c #DAD4DE",
">@	c #F4F2C1",
",@	c #F8F7C1",
"'@	c #7C739E",
")@	c #A8B679",
"!@	c #AFBC77",
"~@	c #91967F",
"{@	c #69628C",
"]@	c #F6F4C1",
"^@	c #F0ECC6",
"/@	c #E7E1D1",
"(@	c #E1DCD8",
"_@	c #F7F4C1",
":@	c #CCC9B6",
"<@	c #6A618C",
"[@	c #929780",
"}@	c #BBCE74",
"|@	c #ADBC77",
"1@	c #858585",
"2@	c #685F8C",
"3@	c #5C5090",
"4@	c #80759F",
"5@	c #CFCAB6",
"6@	c #F9F8C2",
"7@	c #FAF7C0",
"8@	c #F4F4C2",
"9@	c #F2EFC2",
"0@	c #EFEBC8",
"a@	c #F4F0C3",
"b@	c #68608F",
"c@	c #858583",
"d@	c #ABBC75",
"e@	c #C1D772",
"f@	c #868684",
"g@	c #68618D",
"h@	c #EEEBBE",
"i@	c #D8D4B7",
"j@	c #D6D0B6",
"k@	c #EAE7BC",
"l@	c #F4F4C0",
"m@	c #E9E6BD",
"n@	c #D5D1B6",
"o@	c #EEEBC0",
"p@	c #8176A0",
"q@	c #5C5291",
"r@	c #AFBC76",
"s@	c #B0C075",
"t@	c #93997F",
"u@	c #6A628B",
"v@	c #7F749E",
"w@	c #D7D6B8",
"x@	c #9990A5",
"y@	c #968DA2",
"z@	c #D7D1B7",
"A@	c #F7F3C3",
"B@	c #D7D1B9",
"C@	c #968EA5",
"D@	c #9890A5",
"E@	c #7E769F",
"F@	c #6A638D",
"G@	c #AFBF76",
"H@	c #BBCF70",
"I@	c #B1BE76",
"J@	c #6A638C",
"K@	c #D9D5B8",
"L@	c #9991A6",
"M@	c #978DA5",
"N@	c #D7D2B5",
"O@	c #F4F2C2",
"P@	c #F3F3C1",
"Q@	c #F5F1C1",
"R@	c #F6F4C3",
"S@	c #D5D1B8",
"T@	c #978FA6",
"U@	c #DAD6B9",
"V@	c #6C618B",
"W@	c #93997D",
"X@	c #858784",
"Y@	c #67608C",
"Z@	c #7F779E",
"`@	c #D6D2B7",
" #	c #EAE7BE",
".#	c #81769E",
"+#	c #878785",
"@#	c #848484",
"##	c #675E8D",
"$#	c #5C4D90",
"%#	c #7F729E",
"&#	c #CFC6B7",
"*#	c #FAF2C3",
"=#	c #FDF2C4",
"-#	c #F9F3C3",
";#	c #F5F5C1",
">#	c #F9F3C1",
",#	c #FBF3C2",
"'#	c #F9F1C2",
")#	c #5A4E90",
"!#	c #675F90",
"~#	c #BCCF73",
"{#	c #929580",
"]#	c #7F6CA3",
"^#	c #D0BDB9",
"/#	c #FCE5C5",
"(#	c #FBE4C5",
"_#	c #F8E8C4",
":#	c #F8F1C3",
"<#	c #F6F6C2",
"[#	c #F6F6C0",
"}#	c #F8E8C6",
"|#	c #FAE5C6",
"1#	c #CFBBBA",
"2#	c #C4DA6D",
"3#	c #868885",
"4#	c #887F94",
"5#	c #B8A1AB",
"6#	c #CFB5B8",
"7#	c #CDB2B7",
"8#	c #CDB9B8",
"9#	c #D2CBB9",
"0#	c #D5D3BC",
"a#	c #D5D3BA",
"b#	c #D4D2BD",
"c#	c #D3D1BC",
"d#	c #D5D0BC",
"e#	c #D6D1BD",
"f#	c #D6D1BB",
"g#	c #D7D2BC",
"h#	c #D3CCBC",
"i#	c #CEBAB9",
"j#	c #CDB4B8",
"k#	c #CEB5B9",
"l#	c #B6A2AD",
"m#	c #887E96",
"n#	c #868982",
"o#	c #C0D56C",
"p#	c #BDD170",
"q#	c #B2C277",
"r#	c #9FA581",
"s#	c #877E93",
"t#	c #7B699D",
"u#	c #7A699D",
"v#	c #8073A1",
"w#	c #8D85AA",
"x#	c #958FB1",
"y#	c #968FB1",
"z#	c #948DAF",
"A#	c #938BB0",
"B#	c #928AB1",
"C#	c #928AAF",
"D#	c #918BAF",
"E#	c #938CAE",
"F#	c #958EB0",
"G#	c #9085AD",
"H#	c #8175A3",
"I#	c #796B9E",
"J#	c #7B6AA0",
"K#	c #B1C176",
"L#	c #BED36E",
"M#	c #BACE6F",
"N#	c #B2C075",
"O#	c #837D99",
"P#	c #7B6F9F",
"Q#	c #786F9E",
"R#	c #746AA6",
"S#	c #7267AB",
"T#	c #796EA6",
"U#	c #897FA1",
"V#	c #9288A1",
"W#	c #948AAC",
"X#	c #8B82AF",
"Y#	c #7A70AC",
"Z#	c #7166AA",
"`#	c #7971A0",
" $	c #79709F",
".$	c #766DA2",
"+$	c #9FA684",
"@$	c #C3D774",
"#$	c #C9DA7C",
"$$	c #C2D673",
"%$	c #C8D97B",
"&$	c #ACBC75",
"*$	c #858782",
"=$	c #847E9A",
"-$	c #A7A1BB",
";$	c #C2BAC7",
">$	c #C9C5BA",
",$	c #B6B2B1",
"'$	c #8780AC",
")$	c #6E65A8",
"!$	c #6F65AA",
"~$	c #887EA0",
"{$	c #B6AE8A",
"]$	c #D3CA91",
"^$	c #D6D2AF",
"/$	c #BDB7B9",
"($	c #8A81AE",
"_$	c #6F64A9",
":$	c #B6B2AF",
"<$	c #CBC7BB",
"[$	c #878984",
"}$	c #BFD66E",
"|$	c #CADB7B",
"1$	c #D8E492",
"2$	c #D8E394",
"3$	c #C5D978",
"4$	c #D6E391",
"5$	c #DAE295",
"6$	c #CAD97C",
"7$	c #BFD372",
"8$	c #6D6789",
"9$	c #7468A8",
"0$	c #BDB4CF",
"a$	c #EDE7DB",
"b$	c #F8F6CD",
"c$	c #E2DFC0",
"d$	c #AEA8B4",
"e$	c #8F89AF",
"f$	c #928BB4",
"g$	c #AAA2A0",
"h$	c #D7CE81",
"i$	c #F2EB83",
"j$	c #F6F1A0",
"k$	c #DED9B1",
"l$	c #ACA5AD",
"m$	c #9189B0",
"n$	c #E2DFBC",
"o$	c #FAF5CB",
"p$	c #BEB6CE",
"q$	c #766AA8",
"r$	c #A6B177",
"s$	c #C9DA7A",
"t$	c #DAE596",
"u$	c #CFDD86",
"v$	c #DCE497",
"w$	c #DAE394",
"x$	c #A4B277",
"y$	c #6E668B",
"z$	c #7468A6",
"A$	c #BEB4CF",
"B$	c #ECE5DB",
"C$	c #F7F4CB",
"D$	c #F2F0C0",
"E$	c #DFDCBD",
"F$	c #D7D2BF",
"G$	c #DBD6AC",
"H$	c #E5DE86",
"I$	c #ECE477",
"J$	c #EFE681",
"K$	c #E8E294",
"L$	c #DCD7AF",
"M$	c #F3EFC0",
"N$	c #F6F3CA",
"O$	c #7667A8",
"P$	c #6C6688",
"Q$	c #A7B077",
"R$	c #C5D97A",
"S$	c #DBE698",
"T$	c #D0DE87",
"U$	c #C4D672",
"V$	c #C3D873",
"W$	c #CBDA7D",
"X$	c #C5D774",
"Y$	c #817D98",
"Z$	c #A9A0BD",
"`$	c #C1B9C8",
" %	c #C8C5BC",
".%	c #F4F2B5",
"+%	c #F1EB97",
"@%	c #EDE787",
"#%	c #F0EC95",
"$%	c #F7F3B4",
"%%	c #DAD5B7",
"&%	c #CCC3BC",
"*%	c #837C9B",
"=%	c #D9E495",
"-%	c #DBE495",
";%	c #9BA283",
">%	c #827B9A",
",%	c #756AA4",
"'%	c #7B6FA1",
")%	c #9D94A5",
"!%	c #DAD7B8",
"~%	c #F6F2B3",
"{%	c #F5F2AF",
"]%	c #F6F2B2",
"^%	c #F6F3BC",
"/%	c #786BA3",
"(%	c #9BA185",
"_%	c #CADB7D",
":%	c #C4D673",
"<%	c #C7D87A",
"[%	c #DDE598",
"}%	c #ADBF75",
"|%	c #858681",
"1%	c #665D8A",
"2%	c #564B8F",
"3%	c #C9C5BC",
"4%	c #F4F2CB",
"5%	c #F4F1C8",
"6%	c #E9E4C6",
"7%	c #CAC9B5",
"8%	c #CDC7B7",
"9%	c #EAE4C4",
"0%	c #F3EFC9",
"a%	c #F5F2C9",
"b%	c #CBC4BC",
"c%	c #665F89",
"d%	c #858881",
"e%	c #D7E293",
"f%	c #D0DE86",
"g%	c #BBD071",
"h%	c #B0BD75",
"i%	c #91957E",
"j%	c #665F8B",
"k%	c #7769A4",
"l%	c #E8E4DB",
"m%	c #EAE3DB",
"n%	c #CCC5CC",
"o%	c #968CAE",
"p%	c #978EAD",
"q%	c #CCC6CA",
"r%	c #E8E4D9",
"s%	c #EBE5D9",
"t%	c #8E967E",
"u%	c #CADB7F",
"v%	c #E0E89D",
"w%	c #858680",
"x%	c #817C9A",
"y%	c #6E6987",
"z%	c #6D6888",
"A%	c #A8A0B8",
"B%	c #BDB3CE",
"C%	c #837C9D",
"D%	c #C3DA6E",
"E%	c #D8E395",
"F%	c #E1E79D",
"G%	c #9DA485",
"H%	c #7769A7",
"I%	c #7768A9",
"J%	c #A7B577",
"K%	c #9AA182",
"L%	c #BDD670",
"M%	c #DAE597",
"N%	c #CBDC80",
"O%	c #6E6789",
"P%	c #C6DE70",
"Q%	c #C6DC6D",
"R%	c #C2D86C",
"S%	c #D1DF88",
"T%	c #D7E391",
"U%	c #C6DA79",
"V%	c #CBDC7E",
"W%	c #E4E89E",
"X%	c #C9DC80",
"Y%	c #BED771",
"Z%	c #BACD71",
"`%	c #AEBB75",
" &	c #BACF72",
".&	c #C2D96F",
"+&	c #C4D76E",
"@&	c #CAD97A",
"#&	c #C6DA7B",
"$&	c #E0E89F",
"%&	c #BCD56D",
"&&	c #C9D87B",
"*&	c #CCDB80",
"=&	c #D1DD87",
"-&	c #CFDF87",
";&	c #C8D979",
">&	c #E1E9A0",
",&	c #E2E8A0",
"'&	c #C9DA7E",
")&	c #C0D473",
"!&	c #C2D471",
"      . . . . +     . .   @ + . . . . # . . . $ # . # . . % . . . . . . . . . . . . . . . . . .     & . % % . # * = # . . . % % ",
"    . . . . . . $ $ . . $ $ . . # . % . . . . . . # - . # . . . . . . . . . . . . . . . . . . . $ $ . . % % . # * # # . . . % % ",
"  . . . . . . . . . . . . . . . . . . . . . % . . . . . . . $ $ . . . . . . . . . . . . . . . . . . . . . . . . # # . . . . . . ",
". . . . . . . . . . . . . . . . . . . . . . . . . . . . . . $ $ . . . . . . . . . . . . . . . . . . . . # # . . . . . . . . . . ",
". . . . . - . . . . . . . . . . $ $ . . . . . . ; # . . . . . . . . . . . . . . . . . . . . . . + . . # + + + . . . . . . . # # ",
". . . . . . . . . . . . . . . . $ > . . . . . , ' ) , . . . . . . . . . . . . . . . . . . . . . # , ) ) ! ~ ) ' % # . . . . # # ",
". . . . . . . . . . . . . . . . . . . . . . { ) ] ^ ) - . . . . . . . . . . . . . . . . . . . . % ) ] / ' ' ( _ ) . . . . . . % ",
". . . . . . . . . . . . . . . . . . % . . % ' : < [ ) - . % . . . . . . . . . . . . . . . . . . # } ] < | | < 1 ) - . . . . . . ",
". . . . . . . . % . 2 $ % . + . . . # # # ) ] < 3 ) 4 . . . - . . . . . . . . . . . . . . . . #   ~ ) 3 < 5 3 ' . # . . # # . . ",
". . . . . . . . . # ~ $ . . . . + . # # # 6 7 8 9 # . % . . . . . . . . . . . . . . + . . . . + $ > # ) ] ] ) # # # . . # # . . ",
". . . . . . . . # # ; . $ . . . . . $ # ; 6 8 8 9 # . . . . . + . . . . . . . . . . . . . . . . . ; # , 0 ) , # % . . . . . . . ",
". . . . . . . % ) ) , % . . . # . . + # # ) a a b # . . . . . # . . . . . . . . . . . . . . . . . # $ . # . . . . . . . . . . . ",
"c $ . . . # d 9 e f ) # g . . . . . . . . , 9 ) , . . # . . . . . . . . . . . . . . - . . . . . # # . . . . . . $ . . . $ $ . . ",
"c $ . . . # d ) ] h 3 ) % . . . + . . . . g i j k = = i . . . % . . . . ; = i k = = . . . % . . # # + . # # . . . % . . $ $ . . ",
"+ . . . . . . l m n h o p . l q . . $ $ # # r s t t t = # % . . . . . # = t t t t = u . . . . . . . . . . . . # # . . . # . . . ",
". . . . . . . # v w x x y - - { . # z & A B C D E D F G H I u . . # J H K D D L M G H t # . . . . . . . . . - > # . . % N N . # ",
"+ . . . . . . # # 9 O O 6 - - $ . # # P Q R S T U V W X Y Z t . . = ` Y X T  . ...X +.@.= . . . . . . . . . . . . . . . . . . . ",
"+ . . . . . . . . ) a #.) - . . . N $.%.&.*.=.-.;.-.>.,.'.).!.u t ~.).{.,.>.].^./.,.(._.:.u . . . . . . . . . . . . . . . . . . ",
"  $ . . . . . . . , ) ) l . . . d <.[.}.|.1.2.3.4.5.6.7.,.8._.9.9.Y 0.,.7.4.4.4.a.b.c.X G = k . . . . . . . . . . . . . . . . . ",
"  $ $ . . . . . . . # # - . . . u d.e.f.g.h.i.j.k.l.m.4.n.o.p.q.q.p.o.n.4.r.l.s.t.u.v.T D t = . . . . . . . . . . . . . . . . . ",
"+ . . . . . . . . . . . - . . . # w.x.y.z.A.B.C.D.E.l.a.F.G.H.I.I.J.K.L.M.l.N.O.P.Q.R.V S.t = $ . . . . . . . . . . . . . . . . ",
"+ . . . . . . . . + . . N . . . + <.T.U.V.W.X.Y.Z.`. +.+++@+#+$+%+&+*+=+.+-+;+>+,+X.'+)+E s J $ . . . . . . . . . . . . . . . . ",
"+ . % % . . # # . . !+N l % - . + ~+A {+)+'+]+^+Z./+(+_+:+<+[+}+|+1+|+2+3+4+5+6+7+8+'+9+0+a+= . . . . . . . . . . . . . . . . . ",
"+ . % % . . # # . . b+N % % . . . = c+S.9+d+e+f+g+h+i+j+k+l+m+n+n+o+p+q+r+s+t+u+f+v+d+9+0+w+= . . . . . . . . . . . . . . . . . ",
". . % % . . . . . . . . % , N !+. = @.x+U n.y+z+A+B+C+D+k+E+F+G+H+I+E+k+D+J+K+L+M+N+O+U 0+s u - # . . . . . . . . . . . . . . . ",
". . % % . . . . . . . . . . N b+. J @.P+U -.Q+R+S+T+U+V+W+X+Y+Y+Y+X+X+W+V+Z+`+ @R+Q+-..@+@@@= - . . . . . . . . . . . . . . . . ",
". . . . . . % % . . . . . . . . - #@` $@U %@Q+&@*@U+Z+r+=@X+-@X+;@X+;@=@V+Z+>@ @,@Q+'@9+)@@@r . N . . . . . . . . . . . . . . . ",
". . . . . % % % . . . . # # . ~+# H !@~@{@%@Q+R+,@]@Z+^@/@(@W+W+W+W+=@/@^@`+_@&@R+:@%@<@[@Y }@u d . . $ . . . . . . . . . . . . ",
". . . . . . . . . . . . . . . i t |@1@2@3@4@5@6@7@S+8@9@^@V+0@D+V+V+V+^@a@`+R+R+6@5@4@3@b@c@d@t e@. . $ . . . . . . . . . . . . ",
". . . . . . . . . . . . . . . i r +.f@g@3@4@4.h@i@j@k@`+`+l@Z+`+`+Z+Z+`+`+m@n@i@o@4.p@q@g@f@r@s e@. . . . . . . . . . . . . . . ",
". # . . # # . . . . . . . . . # # H s@t@u@v@a.w@x@y@z@S+]@>@A@>@>@>@>@]@ @B@C@D@w@a.E@F@t@G@H@u # . . . . . . . . . . . . . . . ",
". # . . # # . . . . . . $ . # . # H I@t@J@4@M.K@L@M@N@ @]@>@O@P@Q@O@>@R@ @S@T@D@U@a.4@V@W@G@H@# % . . . . . . . . . . . . . . . ",
". . . . . . . . . . . . $ . . i t |@X@Y@3@Z@4.h@i@`@ #`+R@>@P@P@>@Q@>@`+`+k@`@i@h@4..#3@g@+#_.= i . . , N , . . - - . . . . . . ",
". . . . . . . . . . . . . . . i = |@@###$#%#&#*#=#-#R@R@R@]@;#;#]@]@]@]@]@A@>#,#'#&#%#)#!#X |@= e@. > . N N . . - . . . . . . - ",
". . . . . . . . . . . . - - . d # ~#_.{#Y@]#^#/#(#_#:#<# @ @ @[# @ @ @ @ @:#}#|#|#1#h.Y@~@_.H # # . . . . . . $ . . # . . % # . ",
"# . . . . . . . . . . . # - . N . = 2#).3#4#5#6#7#8#9#0#a#0#b#c#d#e#f#g#0#h#i#j#k#l#m#n#).` = . # . . . . . . . $ % . . % . . # ",
"# . . . # # . . # . o#% . . . . . # J p#q#r#s#t#u#v#w#x#y#z#A#B#C#D#E#F#F#G#H#I#J#s#r#K#p#= # . . . . . . . N N . % % L#N - $ $ ",
"# . . . # # . . # . o#% . . . . . . # M#N#{.O#*+P#Q#R#S#S#T#U#V#W#X#Y#Z#S#R#`# $.$O#+$K#~.# . . . . . . . @$#$#$$$$$%$%$; . $ $ ",
". . . . . . . . . . . . . - . . . j t &$*$=$-$;$>$,$'$)$!$~${$]$^$/$($_$_$'$:$<$;$-$=$[$|@= # % . - . . }$|$1$2$%$3$4$5$6$. . $ ",
". . . . % % . . % + . # 7$. . . . = s D 8$9$0$a$b$c$d$e$f$g$h$i$j$k$l$m$m$d$n$o$a$p$q$..r$s = . $ . . N }$s$2$t$u$u$v$w$6$N % % ",
"+ . . . N . . . . . N . . . . N $ z s x$y$z$A$B$C$D$E$d#F$G$H$I$J$K$L$b#e#E$M$N$B$A$O$P$Q$s r # . . - $ N g R$u$S$S$T$%$U$. . . ",
". % . . . % . . . . ~+N q V$#$W$X$u = G @#Y$Z$`$ %K@h@&@R+.%+%@%@%#%$%R+6@h@%%&%`$Z$*%X &$I = # . . - - b+, , %$2$2$%$~ N # . . ",
"# # . . . # . $ . . . N , %$=%-%6$$ + H ).;%>%,%'%)%!%6@,@T+~%{%{%]%^%S+7@%%)% $/%O#(%+.H u # . $ . . . . , % $$#$_%:%. . . . . ",
"# # . + . . . . . + N $$<%T$[%w$W$. . = ` }%|%1%2%'%3%4%5%6%g#7%8%g#9%0%a%b%P#2%c%d%).@.= . . . . . . . ~ . # . N N . . . # . # ",
"# # . . . N N N # . d #$e%t$f%%$:%. . u = g%h%i%j%k%`$l%m%n%o%P#P#p%q%r%s%`$k%j%t%).~#= . & # . . . . - $ . . . . . . . . . . . ",
"# # . . . @$#$#$$$% % u%v%v%#$, N # . . . = c+h%w%>%Z$A$A$Z$x%y%z%*%A%B%A$Z$C%|%).D%= . % % . . . . . . . + . . . . % . . . . . ",
". . # . N #$2$E%%$A , u%F%F%_%% , + . . # d = ~.).G%*%H%I%C%;%J%J%K%x%O$O$*%;%).~.s # . . . . - . . . % % . . + - . . + + + + + ",
"% . > . L%%$E%M%T$3$g N%v%v%N%& N . . . N N . t ` ).c@O%O%8.G@P%Q%).8.8$8$8.).` R%$ . . . . . $ . . . . . . # . - . . + + + + o#",
". . + . . @$%$S%t$T%U%V%W%F%X%. N . }$}$Y%% . > z Z%`%F F G  &.&+&}@G F D G H = # . $ . . $ . . . . . . . . . . . . . . . . . . ",
". . + . . & , _%v%v%u%W$1$1$#$% . . }$$$#$#$$$d . # u t t = ~+N . # = t t u d . { N . . N . . . . . . . . . . . . . . . . . . . ",
". . . . . N % _%v%F%u%; U%@&$$. $ ~ , #$=%=%#&, N - I t i i . . . $ i = = u . % % . ~ % % N . - . . . . . . . . . . . . . . . . ",
". . . . % N % u%$&v%u%% %&}$. . 2 $ l #$=%S$T$&&$$. . . . . $ . . . . . . . % $$#&#$g g %$#$@$. . . . . . . . . . . . . . . . . ",
"N . . $ . N % u%v%v%*&% }$N . . . . N $$#&T$t$T%#$N . . . . . . . . $ $ . N L#_%2$2$%$%$2$E%#$N . . . . . . . . . . . . . . . . ",
"}$. . . . N . #$e%e%#$}$. . . . . % d % , W$v%v%u%% }$. . . . + . .   $ . . , #$1$M%T$T$M%2$#$N . . . . . . . . . . . . . . . . ",
"N . N N N N . :%R$R$$$. N - $ . . % . , l _%$&v%u%% L%. . % . . . . N . . . . $$<%=&v$v$-&%$$$}$. . . . . . . . . . . . . . . . ",
". . N N N N . N , , N . + . N . . . . N % u%v%v%u%N . . . . . . . + . . . . . . & ;&5$2$%$, N N . . . . . . . . . . . . . . . . ",
". % . . . . . . N N . . l l N N . . . N , N%>&,&*&N % # . . L%N . . . . . . # # & > &&'&$$N N . . . . . . . . . . . . . . . . . ",
". . . . . . . . . . . . % % N N . . . . N #$2$E%#$N . # . . N . . . . . . . # #   & % , . . . - . . . . . . . . . . . . . . . . ",
". . . . # # . . . . . . % . . . . . . . . $$#$%$:%- . . . . N # $ . . . . . . . . . + + . . . . . . . . . . . . . . . . . . . . ",
"# . . . # # . . . . . . . . . . . . . . . . N % . - . . . . . # $ $ . . . # . . . . . . . % . . . . . . . . . . . . . . . . . . ",
". . ; # . . % % . . . . . . b+b+. + . . > d . . . - . . . . # # # . . l . - . . + + . - . . . . . . . . . . . . . . . . . . . . ",
". . # # . . % % . . . . . . b+b+- . . . # # . . . . . . . . # # . . % l . - . . . . . . . . . . . . . . . . . . . . . . . . . . ",
". . . . . . . . )&- . . . . . . . . . . $ . . . . . + . . . % . # # . . . . N N l l N N - . . . . . . . . . . . . . . . . . . . ",
". # . . . . . . !&- . . . . . . . - . . . . . . $ . + + . . + . # # . + # + N , q q N . . $ . . . . . . . . . . . . . . . . . . "};
