/* XPM */
static char * player_right_grass_xpm[] = {
"64 64 496 2",
"  	c #C2D46E",
". 	c #C0D570",
"+ 	c #C0D56E",
"@ 	c #C2D56C",
"# 	c #C1D671",
"$ 	c #C2D470",
"% 	c #BFD46F",
"& 	c #BFD46D",
"* 	c #C3D56F",
"= 	c #C2D770",
"- 	c #C0D471",
"; 	c #C2D772",
"> 	c #C3D571",
", 	c #BED46F",
"' 	c #BCD26E",
") 	c #BBD16D",
"! 	c #C0D26E",
"~ 	c #C1D36F",
"{ 	c #C0D672",
"] 	c #AFC968",
"^ 	c #B0C866",
"/ 	c #B0CA69",
"( 	c #AEC968",
"_ 	c #ACCA6A",
": 	c #B4CC6A",
"< 	c #ADC869",
"[ 	c #AFC86A",
"} 	c #BCD06D",
"| 	c #B4CE6B",
"1 	c #AEC96A",
"2 	c #C3D370",
"3 	c #C1D572",
"4 	c #B5CD6B",
"5 	c #BED26F",
"6 	c #BFD570",
"7 	c #AAC868",
"8 	c #B8D06E",
"9 	c #A8C666",
"0 	c #AAC568",
"a 	c #BAD06C",
"b 	c #A8C568",
"c 	c #B9D26D",
"d 	c #AFCA69",
"e 	c #ADCB69",
"f 	c #C1D36D",
"g 	c #C0D671",
"h 	c #AEC867",
"i 	c #BED470",
"j 	c #BDD36E",
"k 	c #ACC665",
"l 	c #C1D870",
"m 	c #C1D66F",
"n 	c #BFD370",
"o 	c #BCD16C",
"p 	c #B6CC68",
"q 	c #ADC766",
"r 	c #BFD571",
"s 	c #C3D871",
"t 	c #C2D76E",
"u 	c #C2D86C",
"v 	c #C1D66D",
"w 	c #BACE6B",
"x 	c #A9C467",
"y 	c #C4D56F",
"z 	c #BCD26D",
"A 	c #BBCE74",
"B 	c #ACBB76",
"C 	c #A6B179",
"D 	c #BBCE72",
"E 	c #B1CB68",
"F 	c #BFD66C",
"G 	c #AEBE75",
"H 	c #848482",
"I 	c #6E688A",
"J 	c #6F6A8A",
"K 	c #ADBD74",
"L 	c #C4DA6E",
"M 	c #AFCA6B",
"N 	c #B6CF6A",
"O 	c #B0CA67",
"P 	c #AAC26A",
"Q 	c #A8B772",
"R 	c #9DA282",
"S 	c #878296",
"T 	c #7E72A0",
"U 	c #7E72A2",
"V 	c #7C709E",
"W 	c #9DA482",
"X 	c #B0BD75",
"Y 	c #BCD071",
"Z 	c #BBD16F",
"` 	c #AFCB67",
" .	c #B7D269",
"..	c #A9B972",
"+.	c #818181",
"@.	c #847F96",
"#.	c #B6B1AE",
"$.	c #D1CCB8",
"%.	c #D0CBB8",
"&.	c #B7B2AE",
"*.	c #848681",
"=.	c #ADBD76",
"-.	c #C2D471",
";.	c #A5BF68",
">.	c #A8B973",
",.	c #877D95",
"'.	c #9A8BA8",
").	c #D7CAB7",
"!.	c #F7EABE",
"~.	c #F5E8BC",
"{.	c #F9EEC0",
"].	c #FAF7C2",
"^.	c #7C70A0",
"/.	c #655D8C",
"(.	c #90957F",
"_.	c #ADC867",
":.	c #95AB6B",
"<.	c #7C8081",
"[.	c #888397",
"}.	c #B5B2AB",
"|.	c #D7CBB5",
"1.	c #E7C8B3",
"2.	c #EEC5B1",
"3.	c #F2D5B7",
"4.	c #F8EDBF",
"5.	c #7D719F",
"6.	c #584B90",
"7.	c #848683",
"8.	c #AEBE77",
"9.	c #C2D971",
"0.	c #BAD36E",
"a.	c #B2CC67",
"b.	c #94A571",
"c.	c #686487",
"d.	c #D1CCB9",
"e.	c #F6E9BD",
"f.	c #E5B0AA",
"g.	c #E6AFA8",
"h.	c #EAC4AF",
"i.	c #F3E6BA",
"j.	c #DAD6B9",
"k.	c #9D96A8",
"l.	c #B3CD6A",
"m.	c #BFD573",
"n.	c #C0D76F",
"o.	c #BBD46C",
"p.	c #A0AD75",
"q.	c #6D6789",
"r.	c #7C73A0",
"s.	c #F4E7BB",
"t.	c #EEC5B3",
"u.	c #E9C3AE",
"v.	c #F2E4BD",
"w.	c #EBE9C0",
"x.	c #D9D5BA",
"y.	c #CECCB7",
"z.	c #D1CAB7",
"A.	c #B8B1AB",
"B.	c #898196",
"C.	c #858681",
"D.	c #ADBA75",
"E.	c #BCD36B",
"F.	c #AEC769",
"G.	c #B5CD6D",
"H.	c #C3D86F",
"I.	c #A7B278",
"J.	c #706B8B",
"K.	c #7E739E",
"L.	c #CFCAB6",
"M.	c #F5EDBF",
"N.	c #EFD1B5",
"O.	c #E9C3B0",
"P.	c #E9C2B1",
"Q.	c #EDCFB5",
"R.	c #F3E7BD",
"S.	c #F6F4C3",
"T.	c #F7F5C2",
"U.	c #FAF9C3",
"V.	c #FBFAC2",
"W.	c #7E719F",
"X.	c #6F688A",
"Y.	c #C4D670",
"Z.	c #A8B178",
"`.	c #7B729D",
" +	c #F6F3C0",
".+	c #F4E9BB",
"++	c #F1E4BA",
"@+	c #F2E3BC",
"#+	c #F2EEBF",
"$+	c #F5F3C2",
"%+	c #F6F4C1",
"&+	c #F9F8C2",
"*+	c #B9D16F",
"=+	c #C4DB6F",
"-+	c #A6B477",
";+	c #706B89",
">+	c #7C739E",
",+	c #CEC9B5",
"'+	c #F7F7C1",
")+	c #F6F6C2",
"!+	c #F4F2C1",
"~+	c #F8F6C3",
"{+	c #716C8A",
"]+	c #C3DA6E",
"^+	c #A6B476",
"/+	c #CEC9B6",
"(+	c #F4F2BF",
"_+	c #CCC9B6",
":+	c #A6B678",
"<+	c #ACBD76",
"[+	c #91967F",
"}+	c #69628C",
"|+	c #F7F5C4",
"1+	c #F4F1BE",
"2+	c #68618B",
"3+	c #93997F",
"4+	c #AFBF76",
"5+	c #ADBC77",
"6+	c #848685",
"7+	c #675F8E",
"8+	c #5C5090",
"9+	c #80759F",
"0+	c #F6F2C2",
"a+	c #F5F1C1",
"b+	c #F3F1C0",
"c+	c #F7F6C0",
"d+	c #F8F7C1",
"e+	c #7D729D",
"f+	c #594E90",
"g+	c #868883",
"h+	c #AFBC76",
"i+	c #858583",
"j+	c #68618D",
"k+	c #E9E6BD",
"l+	c #D5D1B8",
"m+	c #D7D3B8",
"n+	c #EDEABF",
"o+	c #D9D5B8",
"p+	c #9D94A7",
"q+	c #73669B",
"r+	c #5C4F95",
"s+	c #706A8C",
"t+	c #A5B378",
"u+	c #BACD71",
"v+	c #B0C077",
"w+	c #6A638C",
"x+	c #7F729E",
"y+	c #CFCAB7",
"z+	c #958DA5",
"A+	c #978DA5",
"B+	c #D6D2B7",
"C+	c #F0EDC0",
"D+	c #DCD9BA",
"E+	c #B0AAAE",
"F+	c #74679C",
"G+	c #968EA5",
"H+	c #FCFBC3",
"I+	c #D0CBB7",
"J+	c #868684",
"K+	c #5E4F90",
"L+	c #F9F6C3",
"M+	c #F4F4C0",
"N+	c #EAE8BF",
"O+	c #D7D1B9",
"P+	c #EBE8BF",
"Q+	c #F8F5C2",
"R+	c #C5D86F",
"S+	c #868688",
"T+	c #685F8E",
"U+	c #5A4E90",
"V+	c #7F749E",
"W+	c #F6EFC1",
"X+	c #F6EDC2",
"Y+	c #F4EDC1",
"Z+	c #F7F1C1",
"`+	c #FAF4C2",
" @	c #F7F4BF",
".@	c #F9F6C1",
"+@	c #6D6888",
"@@	c #C4D76E",
"#@	c #929781",
"$@	c #F8F8C2",
"%@	c #F7F0C2",
"&@	c #F6E6C4",
"*@	c #F5E0C5",
"=@	c #F9F1C3",
"-@	c #FCF9C2",
";@	c #7D6FA0",
">@	c #6F698B",
",@	c #8A8395",
"'@	c #BAB3AB",
")@	c #D2CDB9",
"!@	c #D5D0BC",
"~@	c #D5CCBD",
"{@	c #D7C2BF",
"]@	c #D5BCBF",
"^@	c #D5C2BE",
"/@	c #D5CCBB",
"(@	c #D7D2BC",
"_@	c #D6D1BB",
":@	c #D3CCB9",
"<@	c #B8B0AD",
"[@	c #868195",
"}@	c #C0D56C",
"|@	c #BFD070",
"1@	c #B1C176",
"2@	c #A0A680",
"3@	c #898292",
"4@	c #8277A2",
"5@	c #8E83AB",
"6@	c #928AAF",
"7@	c #9488B0",
"8@	c #9586B1",
"9@	c #9687B2",
"0@	c #9588B3",
"a@	c #958BB0",
"b@	c #988EB1",
"c@	c #958EB0",
"d@	c #9085AD",
"e@	c #8276A4",
"f@	c #888098",
"g@	c #BED36E",
"h@	c #B2C277",
"i@	c #817B97",
"j@	c #7E71A7",
"k@	c #8D82AD",
"l@	c #8B82AD",
"m@	c #7A71AA",
"n@	c #7168A9",
"o@	c #7368AA",
"p@	c #7268A7",
"q@	c #7269AA",
"r@	c #756BAA",
"s@	c #7269A2",
"t@	c #796A95",
"u@	c #8C8783",
"v@	c #B1BE76",
"w@	c #C5D774",
"x@	c #C9DA7C",
"y@	c #C2D673",
"z@	c #C8D97B",
"A@	c #847E9A",
"B@	c #A9A0BD",
"C@	c #C4BCC9",
"D@	c #D0CCC0",
"E@	c #BDB8B5",
"F@	c #8982AE",
"G@	c #6F66A9",
"H@	c #7267A9",
"I@	c #7269A8",
"J@	c #7469AB",
"K@	c #897FA1",
"L@	c #B2A789",
"M@	c #C7C379",
"N@	c #C2D172",
"O@	c #C9DA7A",
"P@	c #D9E593",
"Q@	c #D8E394",
"R@	c #C5D978",
"S@	c #D6E391",
"T@	c #DAE295",
"U@	c #CAD97C",
"V@	c #7667A8",
"W@	c #BEB4CF",
"X@	c #EAE6DB",
"Y@	c #F5F3CA",
"Z@	c #E1DEBD",
"`@	c #ADA7B3",
" #	c #9189AE",
".#	c #938BB0",
"+#	c #9590B0",
"@#	c #8880AF",
"##	c #766CA8",
"$#	c #8F839B",
"%#	c #D0C681",
"&#	c #E6E475",
"*#	c #CEDB71",
"=#	c #BFD66E",
"-#	c #DAE596",
";#	c #CFDD86",
">#	c #DCE497",
",#	c #DAE394",
"'#	c #A6B177",
")#	c #ECE3DA",
"!#	c #F4F0CA",
"~#	c #EFECBF",
"{#	c #DDDABB",
"]#	c #D6D4BB",
"^#	c #D9D5BC",
"/#	c #B8B2B4",
"(#	c #7A70A2",
"_#	c #81748E",
":#	c #CDBF80",
"<#	c #E5E376",
"[#	c #BDD670",
"}#	c #C5D97A",
"|#	c #DBE698",
"1#	c #D0DE87",
"2#	c #C4D672",
"3#	c #C3D873",
"4#	c #C3D774",
"5#	c #ABBB74",
"6#	c #827B9C",
"7#	c #A89FBE",
"8#	c #CBC4CB",
"9#	c #EAE5C5",
"0#	c #FAF9C1",
"a#	c #766B8B",
"b#	c #BEB87C",
"c#	c #DCDF74",
"d#	c #CAD972",
"e#	c #DBE495",
"f#	c #B0BD77",
"g#	c #9B9E83",
"h#	c #7F7899",
"i#	c #968AAE",
"j#	c #D8D3BD",
"k#	c #FAF9C0",
"l#	c #7D71A1",
"m#	c #AEB379",
"n#	c #CADB71",
"o#	c #CADB7D",
"p#	c #C4D673",
"q#	c #C7D87A",
"r#	c #DEE699",
"s#	c #C3DA70",
"t#	c #ACBC75",
"u#	c #838383",
"v#	c #847F95",
"w#	c #B4AFA9",
"x#	c #D8D4BB",
"y#	c #EBE5C5",
"z#	c #F1EFC9",
"A#	c #B6B1AD",
"B#	c #838582",
"C#	c #ABBA75",
"D#	c #D7E293",
"E#	c #D0DE86",
"F#	c #BACF70",
"G#	c #9CA280",
"H#	c #837E94",
"I#	c #958BAD",
"J#	c #EAE3D9",
"K#	c #EAE3DB",
"L#	c #968CAE",
"M#	c #858094",
"N#	c #9CA181",
"O#	c #AEBE73",
"P#	c #CADB7F",
"Q#	c #E0E89D",
"R#	c #E1E79D",
"S#	c #C6D96E",
"T#	c #818380",
"U#	c #7E7999",
"V#	c #A89FBC",
"W#	c #807B9B",
"X#	c #828483",
"Y#	c #D8E395",
"Z#	c #BED56D",
"`#	c #9AA084",
" $	c #817C9C",
".$	c #817C9A",
"+$	c #BBCF70",
"@$	c #DAE597",
"#$	c #CFDF87",
"$$	c #CBDC80",
"%$	c #BED36C",
"&$	c #828783",
"*$	c #6D678B",
"=$	c #C1DB6E",
"-$	c #D1DF88",
";$	c #D7E391",
">$	c #C6DA79",
",$	c #CBDC7E",
"'$	c #E4E89E",
")$	c #C9DC80",
"!$	c #BED771",
"~$	c #CBDA7D",
"{$	c #D8E492",
"]$	c #CAD97A",
"^$	c #D9E495",
"/$	c #C6DA7B",
"($	c #E0E89F",
"_$	c #BCD56D",
":$	c #C9D87B",
"<$	c #C7DB7C",
"[$	c #CCDB80",
"}$	c #D7E494",
"|$	c #C2D675",
"1$	c #D1DD87",
"2$	c #CBDA7F",
"3$	c #C8D979",
"4$	c #E1E9A0",
"5$	c #E2E8A0",
"6$	c #C9DA7E",
"7$	c #C0D473",
"      . . . . +     . .   @ + . . . . # . . . $ # . # . . % . . . . . . . . . . . . . . . . . .     & . % % . # * = # . . . % % ",
"    . . . . . . $ $ . . $ $ . . # . % . . . . . . # - . # . . . . . . . . . . . . . . . . . . . $ $ . . % % . # * # # . . . % % ",
"  . . . . . . . . . . . . . . . . . . . . . % . . . . . . . $ $ . . . . . . . . . . . . . . . . . . . . . . . . # # . . . . . . ",
". . . . . . . . . . . . . . . . . . . . . . . . . . . . . . $ $ . . . . . . . . . . . . . . . . . . . . # # . . . . . . . . . . ",
". . . . . - . . . . . . . . . . $ $ . . . . . . ; # . . . . . . . . . . . . . . . . . . . . . . + . . # + + + . . . . . . . # # ",
". . . . . . . . . . . . . . . . $ > . . . . . , ' ) , . . . . . . . . . . . . . . . . . . . . . # , ) ) ! ~ ) ' % # . . . . # # ",
". . . . . . . . . . . . . . . . . . . . . . { ) ] ^ ) - . . . . . . . . . . . . . . . . . . . . % ) ] / ' ' ( _ ) . . . . . . % ",
". . . . . . . . . . . . . . . . . . % . . % ' : < [ ) - . % . . . . . . . . . . . . . . . . . . # } ] < | | < 1 ) - . . . . . . ",
". . . . . . . . . . 2 $ . . . # . . 3 # > ) ] < 4 } 5 6 - . . . . . . . . . . . . . . . . . . .   ~ ) 4 < 7 4 ' . # . . # # . . ",
". . . . . . . . 6 # ~ $ . . . . . . # # # 8 9 0 a # - % . . . . . . . . . . . . . . . . . . . . $ > # ) ] ] ) # # # . . # # . . ",
". . . . . . . . # # ; . . . . . % . . # # 8 b 0 a # # # . . . . . . . . . . . . . . . . . . . . . ; # , c ) , # % . . . . . . . ",
". . . . . . . % ) ) , . . . . # . . . . # ) d e a # . . . . . 6 . . . . . . . . . . . . . . . . . # $ . # . . . . . . . . . . . ",
"f $ . . . # g a h h ) # > $ . . . % . . . i ) } j . . . . . . . . . . . . . . . . . . . . . . . # # . . . . . . $ . . . $ $ . . ",
"f $ . . . # g ) ] k 4 ) % % + . . . . # - - . g l = = m = l . . . . . . . . . . . . . . . . . . # # + . # # . . . % . . $ $ . . ",
"+ . . . . . . n o p q ] ) . n r . . > + m . . # s t u t v = # . . . . . . . . . . . . . . . . . . . . . . . . # # . . . # . . . ",
". . . . . . . # * w x x 8 g - r . + y ~ ) z l A B C C C C B D = . . . . . . . . . . . . . . . . . . . . . . - > # . . % 6 6 . # ",
"+ . . . . . . # . a b b 8 - - $ % 6 . ) ] E F G H I J J I H K L = $ ~ % . . % . . . 6 6 . . 6 . . . . . . . . . . . . . . . . . ",
"+ . . . . . . . . ) d M ) - . . n 5 ' N O P Q R S T U T V S W X Y = . % . . - . g . . . . . # . . . . . . . . . . . . . . . . . ",
"  $ . . . . . . . , ) ' n . . . # Z d `  ...+.@.#.$.%.%.%.&.S *.=.L = . . % . # $ -.# . . $ . . . . . . . . . . . . . . . . . . ",
"  $ $ . . . . . . # # # - . . # 3 8 9 ;.>.R ,.'.).!.~.{.].%.^./.(.=.Y = m , ) ) ~ ! ) ) , . . . . . . . . . . . . . . . . . . . ",
"+ . . . . . . . . . . . n . . # # ) _.:.<.[.}.|.1.2.2.3.4.$.5.6./.7.8.L 9.0.] ] ' z / ] ) . . . . . . . . . . . . . . . . . . . ",
"+ . . . . . . . . + . . 6 . . . - j a.b.c.T d.e.2.f.g.h.i.j.k.5.V S W 8.D z ] < l.| < ] ) . . . . . . . . . . . . . . . . . . . ",
"+ . % % . . # # . . m.6 n % - . . n.o.p.q.r.%.s.t.f.f.u.v.w.x.y.z.A.B.C.D.m E.4 h F.G.) % . . . . . . . . . . . . . . . . . . . ",
"+ . % % . . # # . . r 6 % % . . . ; H.I.J.K.L.M.N.O.P.Q.R.S.T.U.V.z.W.X.C H.H.E./ / ' # . + . - . . . . . . . . . . . . . . . . ",
". . % % . . . . . . . . % % 6 m.. Y.H.Z.J.`.L. +.+++@+R.#+$+%+&+U.L.5.J C H.= % *+) % . + + . . . . . . . . . . . . . . . . . . ",
". . % % . . . . . . . . . 6 6 r . t =+-+;+>+,+'+)+$+$+$+!+!+$+T.~+,+K.{+-+]+t % . % # . . . . . . . . . . . . . . . . . . . . . ",
". . . . . . % % . . # . . . . . 6 t =+^+{+5./+T.%+$+(+(+!+!+!+%+'+_+U {+:+=+t . . . . . . . . . . . . . . . . . . . . . . . . . ",
". . . . . % % % # . . . # # . + # D <+[+}+K./+T.|+!+1+1+!+!+ +~+'+/+5.2+3+4+D # . . . . + . . . . . . . . . . . . . . . . . . . ",
". . . . . . . . . . . . . . 6 9.= 5+6+7+8+9+,+~+0+!+!+a+b+!+c+&+d+,+e+f+2+g+=.= = . . . . . # # . . . . . . . . . . . . . . . . ",
". . . . . . . . . . . . . . g l = h+i+j+8+9+,+T.%+$+!+!+b+k+l+m+n+o+p+q+r+s+t+H.t . . . . . # ; . . . . . . . . . . . . . . . . ",
". # . . # # . . . . . # # . . . # u+v+3+w+x+y+T.S.!+b+%+T.l+z+A+B+C+D+E+F+J t+H.Y.. . + . . . . . . . . . . . . . . . . . . . . ",
". # . . # # . . . . . . . . # . # D v+3+w+K./+~+S.!+!+%+T.l+G+G+l+U.H+I+K.;+t+H.Y.> # + + # . . . . . . . . . . . . . . . . . . ",
". . . . . . . . . . . . $ . . l = h+J+j+K+9+L.L+S.!+!+$+M+N+l+O+P+Q+U.y+K.J t+H.R+$ # . . . # # + . . . 6 6 . . - - . . . . . . ",
". . . . . . . . . . . . . . . l m 5+S+T+U+V+$.U.d+0+W+X+Y+Z+`+&+ @.@U.y+W.+@C H.@@$ # . . . . # . . . # 6 6 - . - . . . . . . - ",
". . . . . . . . . . - . - - . n.m u+8.#@7+5.$.H+$@%@&@*@*@&@=@&+~+].-@z.;@>@C H.s . . . # # . . . . # . . . . . . . # . . % # . ",
"# . . . . . . . . . . . # - . 6 . @@L 4+g+,@'@)@!@~@{@]@]@^@/@(@(@_@:@<@[@H B Y.= . . . # # . . . # . . . . # . $ % . . % . . # ",
"# . . . # # . . # . }@% . . . . % n = |@1@2@3@4@5@6@7@8@9@0@a@b@c@d@e@f@R 8.D # + . . . . . . . . . . . . . 6 6 . % % g@6 - $ $ ",
"# . . . # # . . # . + % . . . . % 6 g Y h@W i@j@k@l@m@n@o@o@p@q@r@s@t@u@v@]+t . % . . . . . . . . . . . + w@x@x@y@y@z@z@; . $ $ ",
". . . . . . . . . . . . . - . . . # 9.5+J+A@B@C@D@E@F@G@H@H@I@n@J@K@L@M@N@l g . . . . . . . $ $ . . . . + O@P@Q@z@R@S@T@U@. . $ ",
". . . . % % . . % . . # n . . . . = H.t+q.V@W@X@Y@Z@`@ #.#c@+#@###$#%#&#*#6 6 % . . . . . . $ $ . . . 6 =#O@Q@-#;#;#>#,#U@6 % % ",
"+ . . . 6 . . . $ . g 6 . $ . . . l s '#q.V@W@)#!#~#{#_@_@]#^#/#(#_#:#<#*#[#6 . . . . . - - . . . . - $ 6 3 }#;#|#|#1#z@2#. . . ",
". % . . . % . . . 6 =#6 r 3#x@x@4#m t 5#H 6#7#8#9#d+d+c+c+0#H+$.5.a#b#c#d#6 6 . . . . . - - . . . . - - r , , z@Q@Q@z@~ 6 # . . ",
"# # . . . # . $ . . . 6 % z@e#e#O@. . D f#g#h#i#j#k#&+S.%+&+H+$.l#J m#n#H.. - - . . . . . . . . $ . . . . , % y@x@o#p#. . . . . ",
"# # . + . . . . . + . y@q#1#r#e#O@6 g = s#t#u#v#w#x#y#z#z#9#x#A#[@B#C#l # . . . . . . . . . . . . . . . ~ . # . 6 6 . . . # . # ",
"# # . . . 6 6 6 . . 6 x@D#-#E#z@y@. # # = F#=.G#H#I#8#J#K#8#L#M#N#O#u+. . . - % $ $ . . . . . . . . . - $ . . . . . . . . . . . ",
"# # . . . 4#x@x@y@% % P#Q#R#x@, n . % . . = S#O#T#U#7#W@W@V#W#X#=.L = . . % . 6 $ $ . . . . . . . . . . . + . . . . % . . . . . ",
". . # . 6 x@Q@Y#z@Z#6 P#Q#Q#o#% 6 . . . . # = D t#`# $V@V@.$`#=.+$= 3 . # . . . . . . . . . n n . . . % % . . + - . . + + + + + ",
"% . > . [#z@Y#@$#$R@3 $$Q#Q#$$%$6 . . . 6 r + = L 8.&$q.*$*.G =$= . - . . . . 6 6 6 . . . % n n . . . . . . # . - . . + + + + }@",
". . + . . 4#z@-$-#;$>$,$'$R#)$. 6 . =#=#!$% . > = u+B C C B u+n.g . . 6 6 . . 6 . . . . . $ . . . . . . . . . . . . . . . . . . ",
". . + . . & , o#Q#Q#P#~${${$x@% . . =#y@x@x@y@g . # = t t = n.6 . . . . . . . + r 6 . . 6 . . 6 . . . . . . . . . . . . . . . . ",
". . . . . 6 % o#Q#R#P#; >$]$y@. $ ~ , x@^$^$/$, 6 $ m t = l . . . . . . . . % % % 6 g@% % [#. - . . . . . . . . . . . . . . . . ",
". . . . % 6 % P#($Q#P#% _$=#. . 2 $ n x@^$|#1#:$y@. . . . . . . . . . . . . % 3 <$o#3 3 z@x@4#. . . . . . . . . . . . . . . . . ",
"6 . . $ . 6 % P#Q#Q#[$% =#6 . . . . 6 y@/$1#-#;$x@6 . . . . % $ . . $ $ . 6 % x@Q@,#z@z@Q@Y#z@[#. . . . . . . . . . . . . . . . ",
"=#. . . . 6 . x@D#D#x@=#. . . . . % g % , ~$Q#Q#P#% g . . . % . . . $ $ . 6 . x@P@@$1#1#@$}$x@6 . . . . . . . . . . . . . . . . ",
"6 . 6 6 6 6 . p#}#}#y@. 6 - $ . . % . , n o#($Q#P#% 6 . . . . . . . . . . . . |$q#1$>#>##$z@y@=#. . . . . . . . . . . . . . . . ",
". . 6 6 6 6 . 6 , , 6 . + . 6 . . . . 6 % P#Q#Q#2$6 . + % . . 6 . . . . . . . . & 3$T@Q@z@, 6 6 . . . . . . . . . . . . . . . . ",
". % . . . . . . 6 6 . . n n 6 6 . . . 6 , $$4$5$[$6 % # . . [#6 . . . . . . # # & > :$6$y@6 6 . . . . . . . . . . . . . . . . . ",
". . . . . . . . . . . . % % 6 6 . . . . 6 x@Q@Y#x@6 . # . . 6 . . . . . . . # #   & % , . . . - . . . . . . . . . . . . . . . . ",
". . . . # # . . . . . . % . . . . . . . . y@x@z@p#- . . . . 6 # $ . . . . . . . . . + + . . . . . . . . . . . . . . . . . . . . ",
"# . . . # # . . . . . . . . . . . . . . . . 6 % . - . . . . . # $ $ . . . # . . . . . . . % . . . . . . . . . . . . . . . . . . ",
". . ; # . . % % . . . . . . r r . + . . > g . . . - . . . . # # # . . n . - . . + + . - . . . . . . . . . . . . . . . . . . . . ",
". . # # . . % % . . . . . . r r - . . . # # . . . . . . . . # # . . % n . - . . . . . . . . . . . . . . . . . . . . . . . . . . ",
". . . . . . . . 7$- . . . . . . . . . . $ . . . . . + . . . % . # # . . . . 6 6 n n 6 6 - . . . . . . . . . . . . . . . . . . . ",
". # . . . . . . -.- . . . . . . . - . . . . . . $ . + + . . + . # # . + # + 6 , i i 6 . . $ . . . . . . . . . . . . . . . . . . "};
