/* XPM */
static char * player_back_grass_xpm[] = {
"64 64 527 2",
"  	c #C2D46E",
". 	c #C0D570",
"+ 	c #C0D56E",
"@ 	c #C2D56C",
"# 	c #C1D671",
"$ 	c #C2D470",
"% 	c #BFD46F",
"& 	c #BFD46D",
"* 	c #C3D56F",
"= 	c #C2D770",
"- 	c #C0D471",
"; 	c #C2D772",
"> 	c #C3D571",
", 	c #BED46F",
"' 	c #BCD26E",
") 	c #BBD16D",
"! 	c #C0D26E",
"~ 	c #C1D36F",
"{ 	c #C0D672",
"] 	c #AFC968",
"^ 	c #B0C866",
"/ 	c #B0CA69",
"( 	c #AEC968",
"_ 	c #ACCA6A",
": 	c #B4CC6A",
"< 	c #ADC869",
"[ 	c #AFC86A",
"} 	c #BCD06D",
"| 	c #B4CE6B",
"1 	c #AEC96A",
"2 	c #C3D370",
"3 	c #B5CD6B",
"4 	c #BED26F",
"5 	c #BFD570",
"6 	c #AAC868",
"7 	c #B8D06E",
"8 	c #A7C565",
"9 	c #ABC669",
"0 	c #BAD06C",
"a 	c #AAC568",
"b 	c #B9D26D",
"c 	c #AFCA69",
"d 	c #C1D572",
"e 	c #C1D36D",
"f 	c #C0D671",
"g 	c #ADC867",
"h 	c #AEC867",
"i 	c #ADC766",
"j 	c #BFD370",
"k 	c #BED06C",
"l 	c #B6CC68",
"m 	c #AFC966",
"n 	c #BBD16C",
"o 	c #BED470",
"p 	c #C4D56F",
"q 	c #BACE6B",
"r 	c #A9C467",
"s 	c #BAD06E",
"t 	c #C4D670",
"u 	c #BCD26D",
"v 	c #BAD36D",
"w 	c #C1D870",
"x 	c #BFD66E",
"y 	c #C0D76F",
"z 	c #C2D971",
"A 	c #A8C569",
"B 	c #A8C568",
"C 	c #C1D66F",
"D 	c #B1CB68",
"E 	c #B2CC69",
"F 	c #BDD46C",
"G 	c #C3D86F",
"H 	c #C2D76E",
"I 	c #C2D86C",
"J 	c #B0C96B",
"K 	c #AFCA6B",
"L 	c #AEC56B",
"M 	c #99AE6D",
"N 	c #94A56F",
"O 	c #9FAC74",
"P 	c #A7B278",
"Q 	c #A6B179",
"R 	c #AEBB76",
"S 	c #BBCE72",
"T 	c #ABBA75",
"U 	c #BACD71",
"V 	c #BCD270",
"W 	c #C4D471",
"X 	c #BED36E",
"Y 	c #B4CD67",
"Z 	c #9BB06D",
"` 	c #787E7E",
" .	c #686487",
"..	c #6D6789",
"+.	c #6F6A8A",
"@.	c #6F688A",
"#.	c #858583",
"$.	c #AEBE77",
"%.	c #C4DA6E",
"&.	c #858681",
"*.	c #6E688A",
"=.	c #6D678B",
"-.	c #838582",
";.	c #AEBE75",
">.	c #B6C96D",
",.	c #9EB16F",
"'.	c #8D987A",
").	c #827F94",
"!.	c #7C709E",
"~.	c #7E72A0",
"{.	c #7E719F",
"].	c #898196",
"^.	c #9DA482",
"/.	c #BBCF70",
"(.	c #BCD071",
"_.	c #B1BE76",
":.	c #878296",
"<.	c #7D719F",
"[.	c #888095",
"}.	c #9DA580",
"|.	c #ADBD76",
"1.	c #B5C970",
"2.	c #AAB974",
"3.	c #7D8182",
"4.	c #817E91",
"5.	c #B5B0AC",
"6.	c #D0CBB8",
"7.	c #D0CBB7",
"8.	c #B6B2A9",
"9.	c #848683",
"0.	c #C5DD6F",
"a.	c #828781",
"b.	c #868396",
"c.	c #B6B1AB",
"d.	c #D1CAB7",
"e.	c #D0C9B7",
"f.	c #B8B1AB",
"g.	c #9BAF70",
"h.	c #B0CA67",
"i.	c #A4B277",
"j.	c #FBFAC2",
"k.	c #FAF9C3",
"l.	c #665F8B",
"m.	c #90957E",
"n.	c #AAB676",
"o.	c #ABB777",
"p.	c #FBFAC1",
"q.	c #FBF8C3",
"r.	c #FCF9C2",
"s.	c #D1CAB8",
"t.	c #94A571",
"u.	c #BFD571",
"v.	c #A4B179",
"w.	c #7E739E",
"x.	c #CFCAB7",
"y.	c #F9F7C4",
"z.	c #CFCAB6",
"A.	c #594D8F",
"B.	c #68618A",
"C.	c #716D88",
"D.	c #7C719C",
"E.	c #F9F8C2",
"F.	c #7B729F",
"G.	c #9FAE77",
"H.	c #BCD56D",
"I.	c #A5B378",
"J.	c #706B89",
"K.	c #CEC8B8",
"L.	c #F8F6C3",
"M.	c #F6F4C3",
"N.	c #F6F4C1",
"O.	c #F7F5C2",
"P.	c #D7D3BA",
"Q.	c #978EAB",
"R.	c #756AA4",
"S.	c #766BA5",
"T.	c #756AA6",
"U.	c #D6D2B9",
"V.	c #CEC9B6",
"W.	c #7D729D",
"X.	c #706B8B",
"Y.	c #A6B479",
"Z.	c #BFD870",
"`.	c #F8F5C2",
" +	c #F6F3C0",
".+	c #F5F2BF",
"++	c #F5F3C2",
"@+	c #E8E3C5",
"#+	c #CAC3CA",
"$+	c #BBB3CB",
"%+	c #BAB1CC",
"&+	c #B9B4CB",
"*+	c #C9C2C9",
"=+	c #E6E3C0",
"-+	c #C3D96D",
";+	c #C1D86E",
">+	c #F3F1C0",
",+	c #F4F2C1",
"'+	c #F1EDC7",
")+	c #E7E4D1",
"!+	c #E4DFD9",
"~+	c #E6DFD7",
"{+	c #E7DED7",
"]+	c #E9E4D1",
"^+	c #CEC9B5",
"/+	c #F3F0C3",
"(+	c #F0EEC7",
"_+	c #F0EEC8",
":+	c #EEEEC8",
"<+	c #A6B477",
"[+	c #706C87",
"}+	c #F5F1C1",
"|+	c #F5F3C0",
"1+	c #F4F2BF",
"2+	c #CDC8B5",
"3+	c #A8B377",
"4+	c #C4DB6F",
"5+	c #A7B577",
"6+	c #716C8A",
"7+	c #F7F5C4",
"8+	c #A7B675",
"9+	c #91967F",
"0+	c #6A638C",
"a+	c #7F749F",
"b+	c #6A618C",
"c+	c #ACBB76",
"d+	c #685F8C",
"e+	c #5C5090",
"f+	c #80759F",
"g+	c #F8F7C1",
"h+	c #5E4F90",
"i+	c #868686",
"j+	c #ADBC77",
"k+	c #868883",
"l+	c #69628C",
"m+	c #5C5092",
"n+	c #8176A0",
"o+	c #F4F2C2",
"p+	c #F4F3BD",
"q+	c #F7F6C0",
"r+	c #68618D",
"s+	c #858784",
"t+	c #B0C075",
"u+	c #949A7E",
"v+	c #6A648A",
"w+	c #F3F3C1",
"x+	c #F3F3BF",
"y+	c #69658A",
"z+	c #92987C",
"A+	c #B0C077",
"B+	c #93997F",
"C+	c #F8F6C5",
"D+	c #F2F1C1",
"E+	c #69628B",
"F+	c #868684",
"G+	c #F3F1C1",
"H+	c #858585",
"I+	c #AFBC76",
"J+	c #675F8E",
"K+	c #5A4E90",
"L+	c #7F749E",
"M+	c #D0CBB5",
"N+	c #FAF9C1",
"O+	c #F5F3C3",
"P+	c #F9F8C0",
"Q+	c #675E8B",
"R+	c #FCFBC3",
"S+	c #7C739E",
"T+	c #919680",
"U+	c #C4DA6D",
"V+	c #AEBE73",
"W+	c #858881",
"X+	c #878394",
"Y+	c #B7B3A8",
"Z+	c #D5D0BA",
"`+	c #D7D2BC",
" @	c #D6D1BB",
".@	c #D5D1B8",
"+@	c #B7B2AC",
"@@	c #888495",
"#@	c #C5D774",
"$@	c #CADB7D",
"%@	c #C9DA7C",
"&@	c #C2D673",
"*@	c #C8D97B",
"=@	c #BCD06F",
"-@	c #AFC072",
";@	c #9EA67F",
">@	c #868293",
",@	c #7B6F9D",
"'@	c #8378A2",
")@	c #9086AB",
"!@	c #968FB1",
"~@	c #948CB1",
"{@	c #938CAE",
"]@	c #958EB0",
"^@	c #958EAF",
"/@	c #968CAF",
"(@	c #978DB0",
"_@	c #8E86AB",
":@	c #A0A682",
"<@	c #B1C176",
"[@	c #BDD172",
"}@	c #C9DA7A",
"|@	c #D9E593",
"1@	c #D8E394",
"2@	c #C5D978",
"3@	c #D6E391",
"4@	c #DAE295",
"5@	c #CAD97C",
"6@	c #9CA381",
"7@	c #827E99",
"8@	c #766BA3",
"9@	c #79709F",
"0@	c #7A6EA0",
"a@	c #7368AC",
"b@	c #746AA9",
"c@	c #7268A5",
"d@	c #6E63A5",
"e@	c #6B60A4",
"f@	c #6E62A4",
"g@	c #7367A7",
"h@	c #7768A9",
"i@	c #7368AA",
"j@	c #7B6FA1",
"k@	c #837D99",
"l@	c #9DA483",
"m@	c #DAE596",
"n@	c #CFDD86",
"o@	c #DCE497",
"p@	c #DAE394",
"q@	c #BDD670",
"r@	c #858782",
"s@	c #837F9A",
"t@	c #A9A0BB",
"u@	c #C1BBC7",
"v@	c #CAC6BB",
"w@	c #B7B1B1",
"x@	c #887FAA",
"y@	c #7267A9",
"z@	c #7066A5",
"A@	c #62579B",
"B@	c #5D5096",
"C@	c #5B5095",
"D@	c #63569C",
"E@	c #7065A7",
"F@	c #887FAC",
"G@	c #B8B2B4",
"H@	c #CDC4BB",
"I@	c #C2BAC9",
"J@	c #A9A0BD",
"K@	c #857F9B",
"L@	c #ACBC75",
"M@	c #C5D97A",
"N@	c #DBE698",
"O@	c #D0DE87",
"P@	c #C4D672",
"Q@	c #C3D873",
"R@	c #CBDC7C",
"S@	c #C5DA73",
"T@	c #7468A8",
"U@	c #BDB4CF",
"V@	c #EBE7DB",
"W@	c #F8F7C9",
"X@	c #E4E0BD",
"Y@	c #AFA7B4",
"Z@	c #8980AB",
"`@	c #766BA7",
" #	c #7166A2",
".#	c #7D71A3",
"+#	c #80759D",
"@#	c #79709B",
"##	c #7268A4",
"$#	c #756BA7",
"%#	c #AFA7B2",
"&#	c #E3DEBE",
"*#	c #F9F6CD",
"=#	c #EDE6DC",
"-#	c #BEB3D1",
";#	c #7667A8",
">#	c #A7B27A",
",#	c #C1D66D",
"'#	c #D9E495",
")#	c #DEE796",
"!#	c #CBDD7A",
"~#	c #EAE6DB",
"{#	c #F7F4CB",
"]#	c #E2DFBE",
"^#	c #B8AFB2",
"/#	c #776D9F",
"(#	c #766C9E",
"_#	c #B1ABAD",
":#	c #D3CEB8",
"<#	c #D3CFB4",
"[#	c #B6B0B0",
"}#	c #F8F5CC",
"|#	c #ECE5DB",
"1#	c #BEB4CF",
"2#	c #A6B177",
"3#	c #C4D673",
"4#	c #DEE798",
"5#	c #DCE594",
"6#	c #ABBB72",
"7#	c #848482",
"8#	c #837C9B",
"9#	c #C1B9C8",
"0#	c #C9C5BC",
"a#	c #DBD8B9",
"b#	c #F1EFBF",
"c#	c #DAD7B8",
"d#	c #9A93A5",
"e#	c #9B92A5",
"f#	c #FFFDC4",
"g#	c #9894A5",
"h#	c #D9D6B7",
"i#	c #DCD9BA",
"j#	c #C8C5BC",
"k#	c #C0B8C7",
"l#	c #848681",
"m#	c #D7E293",
"n#	c #D9E696",
"o#	c #9CA384",
"p#	c #7769A4",
"q#	c #796FA3",
"r#	c #9D94A5",
"s#	c #DCD7B9",
"t#	c #EFECBF",
"u#	c #DAD6B9",
"v#	c #F0EDC0",
"w#	c #D9D5B8",
"x#	c #EFEDBD",
"y#	c #7669A1",
"z#	c #9BA283",
"A#	c #C3D774",
"B#	c #C1D773",
"C#	c #CBDC80",
"D#	c #E0E89D",
"E#	c #BCD56F",
"F#	c #C4D970",
"G#	c #AFBF76",
"H#	c #564B8F",
"I#	c #7C6EA1",
"J#	c #F5F3CC",
"K#	c #F8F3CB",
"L#	c #EBE9C3",
"M#	c #CDC7B7",
"N#	c #CCC7B4",
"O#	c #EAE7C4",
"P#	c #F6F3CA",
"Q#	c #F5F1CB",
"R#	c #7B6F9F",
"S#	c #D8E395",
"T#	c #BED56D",
"U#	c #CADB7F",
"V#	c #655D8C",
"W#	c #786AA5",
"X#	c #E9E5DA",
"Y#	c #CEC8CC",
"Z#	c #978EAD",
"`#	c #7A6E9E",
" $	c #7A6E9C",
".$	c #CDC9CA",
"+$	c #7869A4",
"@$	c #DAE597",
"#$	c #C1D574",
"$$	c #DFE79C",
"%$	c #C3DA6E",
"&$	c #ADBD74",
"*$	c #837C9E",
"=$	c #C1B4D0",
"-$	c #827B9A",
";$	c #6D6888",
">$	c #6E6987",
",$	c #827D9B",
"'$	c #A7A1BB",
")$	c #BEB6CE",
"!$	c #C0D56C",
"~$	c #D1DF88",
"{$	c #D6E290",
"]$	c #C7DB7A",
"^$	c #CBDC7E",
"/$	c #E4E89E",
"($	c #E2E89E",
"_$	c #837C9D",
":$	c #817C9A",
"<$	c #9AA182",
"[$	c #7569A7",
"}$	c #9BA185",
"|$	c #D8E492",
"1$	c #DAE392",
"2$	c #C6DC70",
"3$	c #838584",
"4$	c #C5DD6D",
"5$	c #ADBE77",
"6$	c #6D6688",
"7$	c #6E6789",
"8$	c #E1E79D",
"9$	c #C6DA79",
"0$	c #D9E496",
"a$	c #C7DD79",
"b$	c #B9CD6E",
"c$	c #AABA73",
"d$	c #AEBB75",
"e$	c #B9CC70",
"f$	c #AFBC77",
"g$	c #E0E89F",
"h$	c #D6E393",
"i$	c #C3DA72",
"j$	c #C0D473",
"k$	c #CCDB80",
"l$	c #CADB7B",
"m$	c #C1D76B",
"n$	c #D7E391",
"o$	c #D9E293",
"p$	c #C7DB7C",
"q$	c #E2E8A0",
"r$	c #DAE599",
"s$	c #C6DA7B",
"t$	c #E0E69C",
"u$	c #D1DD87",
"v$	c #C8D979",
"w$	c #CCD97F",
"x$	c #E1E7A1",
"y$	c #C2D675",
"z$	c #C9D87B",
"A$	c #C8D97D",
"B$	c #C2D471",
"      . . . . +     . .   @ + . . . . # . . . $ # . # . . % . . . . . . . . . . . . . . . . . .     & . % % . # * = # . . . % % ",
"    . . . . . . $ $ . . $ $ . . # . % . . . . . . # - . # . . . . . . . . . . . . . . . . . . . $ $ . . % % . # * # # . . . % % ",
"  . . . . . . . . . . . . . . . . . . . . . % . . . . . . . $ $ . . . . . . . . . . . . . . . . . . . . . . . . # # . . . . . . ",
". . . . . . . . . . . . . . . . . . . . . . . . . . . . . . $ $ . . . . . . . . . . . . . . . . . . . . # # . . . . . . . . . . ",
". . . . . - . . . . . . . . . . $ $ . . . . . . ; # . . . . . . . . . . . . . . . . . . . . . . + . . # + + + . . . . . . . # # ",
". . . . . . . . . . . . . . . . $ > . . . . . , ' ) , . . . . . . . . . . . . . . . . . . . . . # , ) ) ! ~ ) ' % # . . . . # # ",
". . . . . . . . . . . . . . . . . . . . . . { ) ] ^ ) - . . . . . . . . . . . . . . . . . . . . % ) ] / ' ' ( _ ) . . . . . . % ",
". . . . . . . . . . . . . . . . . . % . . % ' : < [ ) - . % . . . . . . . . . . . . . . . . . . # } ] < | | < 1 ) - . . . . . . ",
". . . . . . . . % . 2 $ % . + . . . # # > ) ] < 3 ) 4 5 . . . . . . . . . . . . . . . . . . . .   ~ ) 3 < 6 3 ' . # . . # # . . ",
". . . . . . . . . # ~ $ . . . . . . # # # 7 8 9 0 # $ % . . . . . . . . . . . . . . . . . . . . $ > # ) ] ] ) # # # . . # # . . ",
". . . . . . . . # # ; . $ . . . . , % # # 7 a a 0 ; . . . . . # . . . . . . . . . . . . . . . . . ; # , b ) , # % . . . . . . . ",
". . . . . . . % ) ) , % . . . # + . . . # ) c c ) d . . . . . . . . . . . . . . . . . . . . . . . # $ . # . . . . . . . . . . . ",
"e $ . . . # f 0 g h ) # d . . . . . . . . % ) } , % . . % . # . . . . . . . . . . . . . . . . . # # . . . . . . $ . . . $ $ . . ",
"e $ . . . # f ) ] i 3 ) % . . . . . . # . . . . . . . . . . . % . . . . . . . . . . . . . . . . # # + . # # . . . % . . $ $ . . ",
"+ . . . . . . j k l i m n . j o . . $ + # ; . . $ . . . . . . . . . . . . . . . . . . . . . . . . . . . . . . # # . . . # . . . ",
". . . . . . . # p q r r s - - { # # t & u v w t = w + . . . . . x x y w z z w w . . . . . . . . . . . . . . - > # . . % 5 5 . # ",
"+ . . . . . . # # 0 A B 7 - - 5 f # C u D E F G G = # . $ $ . + . + = H H I = y f + . . . . . . . . . . . . . . . . . . . . . . ",
"+ . . . . . . . . } J K ) - # . # . F L M N O P Q R S = >   . # = S T Q Q Q Q T U = f . . - . $ . . . . . . . . . . . . . . . . ",
"  $ . . . . . . + , V ) o . . # W X Y Z `  ...+.@.#.$.%.= . . = %.$.&.*.+.*.=.-.;.%.z 5 + + . . . . . . . . . . . . . . . . . . ",
"  $ $ . . . . . . . # # - . . # > >.,.'.).!.~.~.{.].^.;./.H H (._.^.:.<.<.<.!.[.}.|.1.u % . . . . . . . . . . . . . . . . . . . ",
"+ . . . . . . . . % . . . . . C = 2.3.4.5.6.6.7.6.8.:.9.|.0.0.|.a.b.c.d.e.e.d.f.:.3.g.h.u # . . . . . . . . . . . . . . . . . . ",
"+ . . . . . . . . . . % 5 . . w H i.*.<.6.j.k.k.j.6.!.l.m.n.o.m.l.!.6.p.k.q.r.s.<. .t.E u # % $ . . . . . . . . . . . . . . . . ",
"+ . % % . . # # . . u.x j % - w H v.+.w.x.k.y.y.k.z.!.A.B.C.C.B.A.D.z.E.E.k.k.e.F...G.H.y . . . . . . . . . . . . . . . . . . . ",
"+ . % % . . # # . . u.x % % . z H I.J.w.K.L.M.N.O.P.Q.R.R.S.S.T.R.Q.U.N.N.M.L.V.W.X.Y.G = $ . . . . . . . . . . . . . . . . . . ",
". . % % . . . . . # . . & % 5 Z.H I.J.w.V.`. +.+++@+#+$+%+$+&+%+$+*+=+++++M.L.V.w.X.P -+= . . . . . . . . . . . . . . . . . . . ",
". . % % . . . . - . . . . 5 5 w ;+I.X.w.V.`. +>+,+'+)+!+~+{+~+~+!+]+'+,+,+M.L.^+w.J.I.G Z.. . + . . . . . . . . . . . . . . . . ",
". . . . . . % % . . . . . . . w H v.J.w.V.L.M.,+++/+(+(+_+_+:+_+_+'+/+,+,+M.L.V.w.J.I.H y . 5 # . . . . . . . . . . . . . . . . ",
". . . . . % % % . . . . # ; . ; %.<+[+w.V.L.++}+++,+++|+|+|+|+|+|+1+,+,+>+M.L.2+w.X.3+%.w . . . . . . . . . . . . . . . . . . . ",
". . . . . . . . . % . . . . . H 4+5+6+w.V.L.7+,+,+,+,+,+,+,+,+,+,+,+,+,+,+M.L.V.~.6+8+4+H . . . . . . . . . . . . . . . . . . . ",
". . . . . . . . . . . % . . # S |.9+0+a+x.L.M.,+,+,+}+,+,+,+++,+,+,+1+1+,+O.L.V.a+b+9+|.S # y + . . . . . . . . . . . . . . . . ",
". # . . # # . . . . . . . w = c+#.d+e+f+z.L.M.}+++,+,+,+,+,+,+,+,+,+,+,+,+N.g+z.f+h+d+i+j+= z . . . . . . . . . . . . . . . . . ",
". # . . # # . . . . . . . = = |.k+l+m+n+z.g+M.,+,+,+,+>+,+,+,+o+}+,+,+,+p+N.q+z.f+e+r+s+|.= w . . . . . . . . . . . . . . . . . ",
". . . . . . . . . . . . % . . /.t+u+v+w.V.L.M.,+,+,+,+,+,+,+>+>+++1+w+x+1+N.g+V.w.y+z+A+S # . . + . . . , 5 . . - - . . . . . . ",
". . . . . . . . . . . . # % # S A+B+0+w.V.C+N.,+,+,+,+,+,+,+o+,+,+o+w+D+,+N.L.V.w.E+B+A+/.# # . . . . . 5 5 - . - . . . . . . - ",
". . . . . . . . . . . . . # = |.F+r+e+f+z.g+N.,+o+1+G+>+,+,+,+,+1+,+,+,+++O.L.z.n+e+r+H+I+= C $ . . . . . . . . . . # . . % # . ",
"# . . . . . . . . . . . . d = c+#.J+K+L+M+N+E.M.M.M.O+++N.M.N.N.M.N.N.N.O.P+k.7.a+K+J+9.j+= t $ # . . . . . . % $ % . . % . . # ",
"# . . . # # . . # . + % . . C S |.m.Q+<.7.j.E.q+N.O.|+N.L.O.O.O.L.O.q+`.g+k.R+7.S+l.T+j+S C * $ . % . . . . 5 5 . % % X 5 - $ $ ",
"# . . . # # . . C . + % . . . = U+V+W+X+Y+z.^+6.Z+`+ @ @`+`+`+`+`+`+U..@z.V.7.+@@@k+;.%.H . $ $ . . . % + #@$@%@&@&@*@*@; . $ $ ",
". . . . . . . . # . . . . - . C H =@-@;@>@,@,@'@)@!@~@{@]@^@]@/@(@(@]@_@'@,@,@X+:@<@[@z # . % . . . . . + }@|@1@*@2@3@4@5@. . $ ",
". . . . % % . . . . . + - % . . f /.-@6@7@8@9@0@R.a@b@c@d@e@e@f@g@h@i@T.j@,@8@k@l@<@(.# # . . . . . . 5 x }@1@m@n@n@o@p@5@5 % % ",
"+ . . . 5 . . . . . q@5 . . . w = c+r@s@t@u@v@w@x@y@b@z@A@B@C@D@E@b@y@F@G@H@I@J@K@r@L@z w . . . . . - $ 5 d M@n@N@N@O@*@P@. . . ",
". % . . . % . . . 5 x 5 5 Q@%@R@S@i.*.T@U@V@W@X@Y@Z@`@ #.#f++#@###$#Z@%#&#*#=#-#;#..>#,#; . . . . . - - u., , *@1@1@*@~ 5 # . . ",
"# # . . . # . $ . . . 5 , *@'#)#!#i...h@U@~#{#,+]#^#/#(#_#:#<#_#(#(#[#]#>+}#|#1#;#..2#G w . . . $ . . . . , % &@%@$@3#. . . . . ",
"# # . + . . . . . . . &@*@O@4#5#R@6#7#8#J@9#0#a#b#c#d#e#a#f#f#c#g#d#h#b#i#j#k#J@8#l#c+w w - . . . . . . ~ . # . 5 5 . . . # . # ",
"# # . . . 5 5 5 5 . 5 %@m#n#O@%@Q@S ;.o#8#p#q#r#s#t#u#u#t#j.j.v#w#h#x#c#r#j@y#8#z#;./.C . . . . . . . - $ . . . . . . . . . . . ",
"# # . . . A#%@%@B#X % C#D#D#%@E#% = F#G#r@l.H#I#0#J#K#L#P.M#N#`+O#P#Q#0#R#H#l.r@G#%.H . . . . . . . . . . + . . . . % . . . . . ",
". . # . 5 %@1@S#*@T#, U#D#D#$@% - * = (.;.m.V#W#9#X#~#Y#Z#`# $Q..$~#X#9#+$l.m.;.[@= . % . . . + . . . % % . . + - . . + + + + + ",
"% . > . q@*@S#@$O@M@#$C#D#$$C#X $ $ . = %$&$#.*$J@1#=$t@-$;$>$,$'$U@)$J@8#r@;.%.= % % & . % - . . . . . . . # . - . . + + + + !$",
". . + . . A#*@~$m@{$]$^$/$($C#% # . - y ,#(.$.z#_$;#;#:$<$5+5+z#8#[$;#8#}$G#(.= C + . . . . . % . . . . . . . . . . . . . . . . ",
". . + . . & , $@D#D#U#%@|$1$%@5 u.. . A#%@R@2$;.a.....3$;.0.4$5$#.6$7$#.;.%.= . + x . . 5 . . . . . . . . . . . . . . . . . . . ",
". . . . . 5 % $@D#8$U#; 9$}@&@. . C 5 %@0$|@a$b$c$Q Q d$e$H z /.f$Q Q c+S = # 5 5 5 5 5 5 5 x . . . . . . . . . . . . . . . . . ",
". . . . % 5 % U#g$D#U#% T#x . . . + 5 %@h$N@O@9$i$H H = f u.j$# = G G H # . 5 A#5@%@d d %@%@&@. . . . . . . . . . . . . . . . . ",
"5 . . $ . 5 % U#D#D#k$% x 5 . % . . . &@*@O@m@|$l$m$w w . . . . # = t # # 5 { %@1@n$2@9$o$1@p$5 . . . . . . . . . . . . . . . . ",
"x . . . . 5 . %@m#1@%@x . % . . . . . X , $@q$g$U#% 5 . . . . . . . $ $ + f 5 %@1@@$n@n@r$1@s$5 . . . . . . . . . . . . . . . . ",
"5 . 5 5 5 5 . 3#M@M@d . . - . . . . . 5 % U#t$g$C#% X . . + j - - - . . + . . A#*@u$@$@$O@*@&@. . . . . . . . . . . . . . . . . ",
". . 5 5 5 5 . 5 % , 5 . + . . $ . . . . % C#g$D#C#% % . . . . - . - . . . . . 5 % v$1@1@*@% % . . . . . . . . . . . . . . . . . ",
". % . . . . . . 5 5 . . j j 5 5 $ . . . % w$x$8$C#% 5 . . . j j . . . . . . . + q@y$*@%@A#5 + # . . . . . . . . . . . . . . . . ",
". . . . . . . . . . . . % % 5 5 . . . . . z$o$3@*@% f . . . % % . . . . . . . . . % % % . . # # . . . . . . . . . . . . . . . . ",
". . . . # # . . . . . . % . . . . . . . . 3#A$*@3#% . . . . . . $ . . . . . $ $ $ % , 5 . . # . . . . . . . . . . . . . . . . . ",
"# . . . # # . . . . . . . . . . . . . . . . , % % % . . . . . . . . . . . . $ $ . % . . . . . . . . . . . . . . . . . . . . . . ",
". . ; # . . % % . . . . . . u.u.. . . . - # . 5 . . . . . . . . . . . . . . $ $ # . . . . . . . . . . . . . . . . . . . . . . . ",
". . # # . . % % . . . . . . u.u.. . . . - - . - . . . . # . . . . . . . - - $ $ . . . . . . . . . . . . . . . . . . . . . . . . ",
". . . . . . . . j$- . . . . . . . . . . . . . $ # C . . . . . . 5 5 . . . . . . . . . . . . . . . . . . . . . . . . . . . . . . ",
". # . . . . . . B$- . . . . . . . . . . . . $ d d C . + . + . % 5 5 . . . . . . . . . % . . . . . . . . . . . . . . . . . . . . "};
