/* XPM */
static char * player_left_grass_xpm[] = {
"64 64 512 2",
"  	c #C2D46E",
". 	c #C0D570",
"+ 	c #C0D56E",
"@ 	c #C2D56C",
"# 	c #C1D671",
"$ 	c #C2D470",
"% 	c #BFD46F",
"& 	c #BFD46D",
"* 	c #C3D56F",
"= 	c #C2D770",
"- 	c #C0D471",
"; 	c #C2D772",
"> 	c #C3D571",
", 	c #BED46F",
"' 	c #BCD26E",
") 	c #BBD16D",
"! 	c #C0D26E",
"~ 	c #C1D36F",
"{ 	c #C0D672",
"] 	c #AFC968",
"^ 	c #B0C866",
"/ 	c #B0CA69",
"( 	c #AEC968",
"_ 	c #ACCA6A",
": 	c #B4CC6A",
"< 	c #ADC869",
"[ 	c #AFC86A",
"} 	c #BCD06D",
"| 	c #B4CE6B",
"1 	c #AEC96A",
"2 	c #C3D370",
"3 	c #B5CD6B",
"4 	c #BED26F",
"5 	c #BFD570",
"6 	c #AAC868",
"7 	c #B8D06E",
"8 	c #A7C565",
"9 	c #AAC568",
"0 	c #BAD06C",
"a 	c #B9D16F",
"b 	c #B9D26D",
"c 	c #AFCA69",
"d 	c #C1D36D",
"e 	c #C0D671",
"f 	c #ADC867",
"g 	c #AEC867",
"h 	c #C1D572",
"i 	c #BDD36E",
"j 	c #ADC766",
"k 	c #C0D76F",
"l 	c #BFD370",
"m 	c #BED06C",
"n 	c #B6CC68",
"o 	c #AFC966",
"p 	c #BBD16C",
"q 	c #BED470",
"r 	c #C1D870",
"s 	c #C2D76E",
"t 	c #C1D66F",
"u 	c #C4D56F",
"v 	c #BACE6B",
"w 	c #A9C467",
"x 	c #BAD06E",
"y 	c #BBCE72",
"z 	c #ACBB76",
"A 	c #A5B078",
"B 	c #A6B179",
"C 	c #A6B07B",
"D 	c #A4B179",
"E 	c #A8C568",
"F 	c #BFD571",
"G 	c #C5DB6F",
"H 	c #AEBE75",
"I 	c #848482",
"J 	c #6E688A",
"K 	c #6F6A8A",
"L 	c #B0BD75",
"M 	c #C6D96E",
"N 	c #AFCA6B",
"O 	c #BAD36E",
"P 	c #C2D96F",
"Q 	c #BECF71",
"R 	c #9DA482",
"S 	c #878296",
"T 	c #7D719F",
"U 	c #7E72A0",
"V 	c #7F72A0",
"W 	c #9BA280",
"X 	c #ACBC73",
"Y 	c #BBCF70",
"Z 	c #C4DA6E",
"` 	c #ADBD76",
" .	c #848683",
"..	c #878298",
"+.	c #B7B2AC",
"@.	c #D0CBB8",
"#.	c #D0CBB7",
"$.	c #D1CCB8",
"%.	c #B6B1AD",
"&.	c #847F95",
"*.	c #828284",
"=.	c #AFBC74",
"-.	c #C3D871",
";.	c #A8C666",
">.	c #BBD073",
",.	c #ACBD76",
"'.	c #90957F",
").	c #645C8B",
"!.	c #7C70A0",
"~.	c #FDF6C2",
"{.	c #F8EDBF",
"].	c #F6E9BD",
"^.	c #F7EABE",
"/.	c #D7CAB7",
"(.	c #998CA6",
"_.	c #9CA181",
":.	c #AFBC76",
"<.	c #B6CB70",
"[.	c #BCD26D",
"}.	c #C2D471",
"|.	c #B7D06B",
"1.	c #A8C664",
"2.	c #A8C662",
"3.	c #B8D16C",
"4.	c #C3D86F",
"5.	c #C5DC70",
"6.	c #655D8C",
"7.	c #564B8F",
"8.	c #7B729D",
"9.	c #F1D4B6",
"0.	c #EEC5B1",
"a.	c #E7C8B3",
"b.	c #B5B0AC",
"c.	c #7F8180",
"d.	c #9BB06F",
"e.	c #B3CB69",
"f.	c #BDD36F",
"g.	c #AEBE77",
"h.	c #7C709E",
"i.	c #9C95A7",
"j.	c #DAD6B9",
"k.	c #F4E7BD",
"l.	c #EEC3B2",
"m.	c #E4AFA9",
"n.	c #E5B0AA",
"o.	c #686487",
"p.	c #94A571",
"q.	c #B1CB68",
"r.	c #B6CF6A",
"s.	c #B5CD6D",
"t.	c #BFD573",
"u.	c #BCD36B",
"v.	c #838381",
"w.	c #B6B1AB",
"x.	c #D1CAB7",
"y.	c #CEC9B5",
"z.	c #D9D5B8",
"A.	c #ECEBBF",
"B.	c #F3E5BE",
"C.	c #EBC5B2",
"D.	c #E6AFAA",
"E.	c #E5B0AC",
"F.	c #F5E8BC",
"G.	c #CFCDB6",
"H.	c #7B729F",
"I.	c #6D6A89",
"J.	c #A0AD75",
"K.	c #B7D06A",
"L.	c #B0CA67",
"M.	c #A7B17C",
"N.	c #6E688C",
"O.	c #FBFAC1",
"P.	c #FBF8C3",
"Q.	c #F7F5C2",
"R.	c #F5F5BF",
"S.	c #F3E7BF",
"T.	c #EDCFB5",
"U.	c #E9C3B0",
"V.	c #EAC4B1",
"W.	c #EFD1B5",
"X.	c #F6EBBE",
"Y.	c #CFCAB7",
"Z.	c #7D749F",
"`.	c #716C8A",
" +	c #A5B378",
".+	c #BCD56D",
"++	c #C5D86D",
"@+	c #A6B177",
"#+	c #6F698B",
"$+	c #F9F8C2",
"%+	c #F6F4C3",
"&+	c #F5F3C2",
"*+	c #F3EFC0",
"=+	c #F3E7BD",
"-+	c #F2E3BC",
";+	c #F1E3BC",
">+	c #F4E8BE",
",+	c #F6F2C3",
"'+	c #CEC9B6",
")+	c #7C739E",
"!+	c #706B8B",
"~+	c #A7B276",
"{+	c #BDD26D",
"]+	c #A9B577",
"^+	c #706C87",
"/+	c #7D729D",
"(+	c #CEC8B8",
"_+	c #F8F7C1",
":+	c #F5F3C0",
"<+	c #F4F2C1",
"[+	c #F4F4C2",
"}+	c #F3F3C1",
"|+	c #F6F6C2",
"1+	c #F8F6C3",
"2+	c #CFC8B5",
"3+	c #7E739E",
"4+	c #706B89",
"5+	c #A6B476",
"6+	c #C3DA6E",
"7+	c #C1D86E",
"8+	c #A6B477",
"9+	c #7C719C",
"0+	c #CDC8B5",
"a+	c #F6F4C1",
"b+	c #CFC8B6",
"c+	c #C6D96D",
"d+	c #AFBF76",
"e+	c #92987E",
"f+	c #67608A",
"g+	c #7B709B",
"h+	c #F8F5C2",
"i+	c #F7F1BF",
"j+	c #F7F6C0",
"k+	c #CFCAB6",
"l+	c #69628C",
"m+	c #91967F",
"n+	c #878883",
"o+	c #68618B",
"p+	c #594D8F",
"q+	c #FAF7C2",
"r+	c #F5F1C1",
"s+	c #80759F",
"t+	c #5C5090",
"u+	c #675F8E",
"v+	c #848685",
"w+	c #ABBB74",
"x+	c #5D5096",
"y+	c #736799",
"z+	c #9D94A5",
"A+	c #EEE9BF",
"B+	c #D7D3B6",
"C+	c #D7D1B9",
"D+	c #EBE8BF",
"E+	c #F6F2C2",
"F+	c #F3F1C0",
"G+	c #F5F5C1",
"H+	c #67608C",
"I+	c #868684",
"J+	c #74679C",
"K+	c #B2A9AC",
"L+	c #DED9BB",
"M+	c #F1EEC1",
"N+	c #D8D2B8",
"O+	c #978DA5",
"P+	c #958DA4",
"Q+	c #93997F",
"R+	c #B0C077",
"S+	c #6F6A88",
"T+	c #FCFBC3",
"U+	c #D6D0B8",
"V+	c #988EA7",
"W+	c #968EA5",
"X+	c #D6D2B9",
"Y+	c #CECCB7",
"Z+	c #6A638C",
"`+	c #C4D76E",
" @	c #E9E7BE",
".@	c #D5D1B8",
"+@	c #D5D1B6",
"@@	c #EBE9C0",
"#@	c #F5F5C3",
"$@	c #68618D",
"%@	c #6E6B8A",
"&@	c #CDCAB7",
"*@	c #FAF8C5",
"=@	c #F7F0C2",
"-@	c #F4EDC1",
";@	c #F6EDC2",
">@	c #F6EFC1",
",@	c #F9F6C1",
"'@	c #FAF9C3",
")@	c #7F749F",
"!@	c #5A4E90",
"~@	c #868686",
"{@	c #ADBC77",
"]@	c #FBFAC2",
"^@	c #F7F5C4",
"/@	c #F9F3C3",
"(@	c #F6E6C4",
"_@	c #F5E0C5",
":@	c #F8F1C3",
"<@	c #FAF9C1",
"[@	c #919680",
"}@	c #868396",
"|@	c #B8B0AD",
"1@	c #D2CDB9",
"2@	c #D7D2BC",
"3@	c #D5D3BA",
"4@	c #D6CDBC",
"5@	c #D5C2BE",
"6@	c #D5BCBF",
"7@	c #D4BBBE",
"8@	c #D7CBBD",
"9@	c #D2D0B9",
"0@	c #D3CEB8",
"a@	c #B6B2A9",
"b@	c #888495",
"c@	c #868883",
"d@	c #AEBE73",
"e@	c #C1D66D",
"f@	c #BFD46B",
"g@	c #9DA483",
"h@	c #868195",
"i@	c #8077A4",
"j@	c #8E86AD",
"k@	c #968FB1",
"l@	c #958EB0",
"m@	c #958BB0",
"n@	c #9588B3",
"o@	c #9687B2",
"p@	c #9586AF",
"q@	c #9488B0",
"r@	c #948AAF",
"s@	c #8C84AB",
"t@	c #8077A2",
"u@	c #868492",
"v@	c #9EA67F",
"w@	c #B2C277",
"x@	c #BDD172",
"y@	c #BED36E",
"z@	c #C4DB6F",
"A@	c #B1BE76",
"B@	c #8C8784",
"C@	c #776B93",
"D@	c #756AA4",
"E@	c #756BAA",
"F@	c #7368AA",
"G@	c #7267A9",
"H@	c #7B70AA",
"I@	c #8B82AD",
"J@	c #8A81AC",
"K@	c #7C72A7",
"L@	c #817D98",
"M@	c #9DA580",
"N@	c #B2C075",
"O@	c #C5D774",
"P@	c #C9DA7C",
"Q@	c #C2D673",
"R@	c #C8D97B",
"S@	c #C3D172",
"T@	c #C7C477",
"U@	c #B2A789",
"V@	c #8A7FA1",
"W@	c #7469AB",
"X@	c #7168A9",
"Y@	c #7166AA",
"Z@	c #BDB8B5",
"`@	c #D0CCC1",
" #	c #C4BCC9",
".#	c #A9A0BF",
"+#	c #837F9A",
"@#	c #858782",
"##	c #ACBC75",
"$#	c #C9DA7A",
"%#	c #D9E593",
"&#	c #D8E394",
"*#	c #C5D978",
"=#	c #D6E391",
"-#	c #DAE295",
";#	c #CAD97C",
">#	c #CEDB71",
",#	c #E7E375",
"'#	c #D1C782",
")#	c #8F839B",
"!#	c #766CA8",
"~#	c #8982AC",
"{#	c #938CAE",
"]#	c #928AB1",
"^#	c #ADA7B3",
"/#	c #E0DDBC",
"(#	c #F6F3CA",
"_#	c #E9E7DB",
":#	c #BEB4CF",
"<#	c #7667A8",
"[#	c #6D6789",
"}#	c #C2D86C",
"|#	c #BFD66E",
"1#	c #DAE596",
"2#	c #CFDD86",
"3#	c #DCE497",
"4#	c #DAE394",
"5#	c #CCDC71",
"6#	c #E5E374",
"7#	c #CBC080",
"8#	c #82768E",
"9#	c #7971A0",
"0#	c #B8B2B4",
"a#	c #D9D5BC",
"b#	c #D8D4BB",
"c#	c #D6D1BB",
"d#	c #DEDBBC",
"e#	c #F0ECBF",
"f#	c #F5F1CB",
"g#	c #EBE4DA",
"h#	c #6C6889",
"i#	c #C5D97A",
"j#	c #DBE698",
"k#	c #D0DE87",
"l#	c #C4D672",
"m#	c #C3D873",
"n#	c #C2D874",
"o#	c #BDD670",
"p#	c #CAD972",
"q#	c #DCE072",
"r#	c #BDB77B",
"s#	c #766B8B",
"t#	c #EAE5C7",
"u#	c #CBC4CB",
"v#	c #A89FBC",
"w#	c #848780",
"x#	c #AEBB76",
"y#	c #C2D971",
"z#	c #D9E496",
"A#	c #D9E495",
"B#	c #CADB71",
"C#	c #A9B279",
"D#	c #70698B",
"E#	c #7D71A1",
"F#	c #D2CBB8",
"G#	c #F6F3C0",
"H#	c #D8D3BD",
"I#	c #968AAE",
"J#	c #80799A",
"K#	c #9AA182",
"L#	c #CADB7D",
"M#	c #C4D673",
"N#	c #C7D878",
"O#	c #DEE699",
"P#	c #DBE495",
"Q#	c #ABBA75",
"R#	c #838582",
"S#	c #EAE5C5",
"T#	c #F1EFC9",
"U#	c #E9E6C5",
"V#	c #828481",
"W#	c #ADBD74",
"X#	c #C0D971",
"Y#	c #D7E293",
"Z#	c #BDD66E",
"`#	c #BACE6F",
" $	c #9CA280",
".$	c #958BAE",
"+$	c #EAE3D9",
"@$	c #837E94",
"#$	c #9BA281",
"$$	c #BDCE70",
"%$	c #C3D774",
"&$	c #C8DB7F",
"*$	c #E0E89F",
"=$	c #E0E89D",
"-$	c #BED56D",
";$	c #A89FBE",
">$	c #BFB5D0",
",$	c #828483",
"'$	c #D8E395",
")$	c #CADB7F",
"!$	c #9BA283",
"~$	c #817C9A",
"{$	c #7667AA",
"]$	c #827B9A",
"^$	c #9AA084",
"/$	c #DAE597",
"($	c #CBDC80",
"_$	c #C9DC80",
":$	c #6E6789",
"<$	c #C0D56C",
"[$	c #D1DF88",
"}$	c #D7E391",
"|$	c #C6DA79",
"1$	c #CBDC7E",
"2$	c #E4E89E",
"3$	c #E1E79D",
"4$	c #A5B27A",
"5$	c #BBCE74",
"6$	c #CBDA7D",
"7$	c #D8E492",
"8$	c #C9DA7E",
"9$	c #CAD97A",
"0$	c #C6D97D",
"a$	c #C7DB7C",
"b$	c #CCDB80",
"c$	c #C6DA7B",
"d$	c #D9E291",
"e$	c #DFE79C",
"f$	c #C7D87A",
"g$	c #D1DD87",
"h$	c #CFDF87",
"i$	c #C8D979",
"j$	c #E1E9A0",
"k$	c #E2E8A0",
"l$	c #C9D87B",
"m$	c #C0D473",
"      . . . . +     . .   @ + . . . . # . . . $ # . # . . % . . . . . . . . . . . . . . . . . .     & . % % . # * = # . . . % % ",
"    . . . . . . $ $ . . $ $ . . # . % . . . . . . # - . # . . . . . . . . . . . . . . . . . . . $ $ . . % % . # * # # . . . % % ",
"  . . . . . . . . . . . . . . . . . . . . . % . . . . . . . $ $ . . . . . . . . . . . . . . . . . . . . . . . . # # . . . . . . ",
". . . . . . . . . . . . . . . . . . . . . . . . . . . . . . $ $ . . . . . . . . . . . . . . . . . . . . # # . . . . . . . . . . ",
". . . . . - . . . . . . . . . . $ $ . . . . . . ; # . . . . . . . . . . . . . . . . . . . . . . + . . # + + + . . . . . . . # # ",
". . . . . . . . . . . . . . . . $ > . . . . . , ' ) , . . . . . . . . . . . . . . . . . . . . . # , ) ) ! ~ ) ' % # . . . . # # ",
". . . . . . . . . . . . . . . . . . . . . . { ) ] ^ ) - . . . . . . . . . . . . . . . . . . . . % ) ] / ' ' ( _ ) . . . . . . % ",
". . . . . . . . . . . . . . . . . . % . . % ' : < [ ) - . % . . . . . . . . . . . . . . . . . . # } ] < | | < 1 ) - . . . . . . ",
". . . . . . . . % . 2 $ % . + . . . # # > ' ] 1 3 ) 4 5 . . . . . . . . . # . . . . . . . . . .   ~ ) 3 < 6 3 ' . # . . # # . . ",
". . . . . . . . . # ~ $ . . . . . % # > # 7 8 9 0 # . . . . . . . . + . . . . + . . . . . . . . $ > # ) ] ] ) # # # . . # # . . ",
". . . . . . . . # # ; . $ . . . . 5 % # # a 9 9 0 # . . . . . . . . . . . . . . . . . . . . . . . ; # , b ) , # % . . . . . . . ",
". . . . . . . % ) ) , % . . . # . . . . # ) c c ) # . . . . . . . . . . . . . . . . . . . . . . . # $ . # . . . . . . . . . . . ",
"d $ . . . # e 0 f g ) # h . . . . . . 5 . i ) ) , . % % . . . . # . - . . . . . . . . . . . . . # # . . . . . . $ . . . $ $ . . ",
"d $ . . . # e ) ] j 3 ) % . . . . $ . # + . 5 . . . . . k = = = = = . . . % . % . . . . . . . . # # + . # # . . . % . . $ $ . . ",
"+ . . . . . . l m n j o p . l q . - $ + # h . . . # . # r s s s s = t . . . . . . . . . . . . . . . . . . . . # # . . . # . . . ",
". . . . . . . # u v w w x - - { . # * d 0 b , . - # = y z A B C D z y s # . . . . . . . . . . . . . . . . . - > # . . % 5 5 . # ",
"+ . . . . . . # # 0 E E 7 - - $ F # # ) o ] ) . # = G H I J K K J I L M = . . % # e . . + . . + . . . . . . . . . . . . . . . . ",
"+ . . . . . . . . ) c N ) - . . # % O 3 < ] ) h P Q H R S T U V U S W X Y = # . > . > . . . . + . . . . . . . . . . . . . . . . ",
"  $ . . . . . . . , ) ) l . . . # ) c < 3 ) , = Z `  ...+.@.#.#.$.%.&.*.=.M -.. . . # . . . $ > . . . . . . . . . . . . . . . . ",
"  $ $ . . . . . . . # # - . . . # 7 ;.;.0 = r >.,.'.).!.#.~.{.].^./.(.&._.:.<.[.5 , ) ) , # $ }.. . . . . . . . . . . . . . . . ",
"+ . . . . . . . . . . . - . . . # |.1.2.3.4.5.H  .6.7.8.#.{.9.0.0.a./.b...c.d.e.i f.g ] ) # # % . . . . . . . . . . . . . . . . ",
"+ . . . . . . . . + . . 5 . . . # ) / / O y g.R S !.h.i.j.k.l.m.n.0.^.$.U o.p.q.r.s.< g ) # . 5 . . . . . . . . . . . . . . . . ",
"+ . % % . . # # . . t.5 l % - . # , p u.k z v.S w.x.y.z.A.B.C.D.E.0.F.G.H.I.J.K.L.< s.) , . # # . . . . . . . . . . . . . . . . ",
"+ . % % . . # # . . F 5 % % . . . . + s 4.M.N.T #.O.P.Q.R.S.T.U.V.W.X.Y.Z.`. +.+q.] ) t . . # t . . . . . . . . . . . . . . . . ",
". . % % . . . . . . . . % , 5 5 + . 5 = ++@+#+T Y.$+$+%+&+*+=+-+;+>+,+'+)+!+~+r {+) , . . . . . . . . . . . . . . . . . . . . . ",
". . % % . . . . . . . . . 5 5 5 . . . = M ]+^+/+(+_+:+<+<+<+[+}+[+|+1+2+3+4+5+6+P # # . % . . . . . . . . . . . . . . . . . . . ",
". . . . . . % % . . . . . . . . . . 5 7+Z 8+4+9+0+1+%+<+<+&+&+&+a+a+_+b+3+4+8+c+= # $   . . $ $ . . . . . . . . . . . . . . . . ",
". . . . . % % % . . . . # # . . . # - y d+e+f+g+0+_+h+a+i+<+<+<+<+Q.j+k+3+l+m+:.y t > $ # % $ $ . . . . . . . . . . . . . . . . ",
". . . . . . . . . . . . . . . . # ; = ` n+o+p+9+'+q+$+Q.r+r+<+<+<+:+a+k+s+t+u+v+w+s t # . . . . . . . . . . . . . . . . . . . . ",
". . . . . . . . . . . . . . . . # ; s  +!+x+y+z+z.A+B+C+D+E+<+<+F+G+a+k+s+t+H+I+:.s r . $ # . - . . . . . . . . . . . . . . . . ",
". # . . # # . . . . . . . . . . + = s @+K J+K+L+M+N+O+P+C+Q.%+<+<+a+Q.'+3+l+Q+R+Y t . . 5 5 . . . . . . . . . . . . . . . . . . ",
". # . . # # . . . . . . . . . . - r s @+S+3+#.T+P.U+V+W+X+Q.a+<+<+a+Q.Y+)+Z+Q+R+y ; . . 5 5 % . . . . . . . . . . . . . . . . . ",
". . . . . . . . . . . . . . . . . r `+ +4+3+@.$+1+ @.@+@@@:+&+<+E+#@Q.k+s+t+$@I+:.= r 5 . . . . + . . . 5 5 . . - - . . . . . . ",
". . . . . . . . . . + . - . . . . = s @+%@T &@*@1+Q.P.h+=@-@;@>@&+,@'@#.)@!@u+~@{@= t . . . . . . . . # 5 5 - . - . . . . . . - ",
". . . . . . . . . . . . - - . . . = s D N.T #.]@$+^@$+/@(@_@_@(@:@<@]@#.U H+[@` y # > $ $ . . . . . # . . . . . . . # . . % # . ",
"# . . . . . . . . . . . . - . . . r ; z v.}@|@1@X+2@3@4@5@6@7@5@8@9@0@a@b@c@d@Z e@}.$ $ $ + . . . # . . . . # . $ % . . % . . # ",
"# . . . # # . . # . f@% . . # . # # # Y H g@h@i@j@k@l@m@n@o@p@q@r@s@t@u@v@w@x@= e . . # . . # # . . . . . . 5 5 . % % y@5 - $ $ ",
"# . . . # # . . # . + % . . # . # t . ; z@A@B@C@D@E@F@G@F@F@G@H@I@J@K@L@M@N@Y # + % . . . - e e . . . . + O@P@P@Q@Q@R@R@; . $ $ ",
". . . . . . . . . . . . . - . . # . . e r S@T@U@V@W@F@G@X@X@Y@J@Z@`@ #.#+#@###= # . . . . . . . . . . . + $#%#&#R@*#=#-#;#. . $ ",
". . . . % % . . . . . . - . . . . . + 5 5 >#,#'#)#!#~#l@k@{#]#^#/#(#_#:#<#[#B }#= . . . . + 5 5 . . . 5 |#$#&#1#2#2#3#4#;#5 % % ",
"+ . . . 5 . . . . . e 5 . . . . . . 5 |#e 5#6#7#8#9#0#a#b#c#2@d#e#f#g#:#<#h#B s -.. . . . . - - . . - $ 5 h i#2#j#j#k#R@l#. . . ",
". % . . . % . . . 5 5 5 5 m#P@P@n#. . . o#p#q#r#s#T $.T+<@j+j+1+,@t#u#v#L@w#x#y#r 5 . . . . - - . . - - F , , R@&#&#R@~ 5 # . . ",
"# # . . . # . $ + . . 5 , R@z#A#P@$ # # . 4.B#C#D#E#F#T+$+G#a+$+'@H#I#J#K#L y . # . . . . 5 5 5 $ . . . . , % Q@P@L#M#. . . . . ",
"# # . + . . . . . . 5 Q@N#k#O#P#P@% # > > t r Q#R#h@b.H#S#T#T#U#H#b.&.V#W#Z X## . . . . . . 5 5 . . . . ~ . # . 5 5 . . . # . # ",
"# # . . . 5 5 5 + . 5 P@Y#1#k#R@Q@. . ; $ . Z#`#H  $&..$u#+$+$u#I#@$#$W#$$; # . . - - - . . . . . . . - $ . . . . . . . . . . . ",
"# # . . . %$P@P@Q@% q &$*$=$P@-$|#. . 5 . . . s Z W#V#J#;$>$:#;$J#,$` 6+= . . . . . . . . . . . . . . . . + . . . . % . . . . . ",
". . # . 5 P@&#'$R@-$5 )$=$=$L#% |#. $ $ . . . > = Y ` !$~${$<#]$^$:.Q s t . . . . . l l . . . # . . . % % . . + - . . + + + + + ",
"% . > . o#R@'$/$k#*#h ($=$=$_$y@|#. + $ . 5 . . . s Z d@v+:$[# .H Z s $ . . . . 5 . % % . . e e . . . . . . # . - . . + + + + <$",
". . + . . %$R@[$1#}$|$1$2$3$_$. 5 . . & 5 5 . 5 . # ; y z 4$D ##5$t # . # . . . . . $ . . $ . . . . . . . . . . . . . . . . . . ",
". . + . . & , L#=$=$)$6$7$7$P@% . . |#Q@R@8$Q@5 . 5 . = r s s y#e . . . . , % . F 5 . . 5 . . . . . . . . . . . . . . . . . . . ",
". . . . . 5 % L#=$3$)$; |$9$Q@. $ }.5 P@A#z#0$% 5 . . . r r e@e@+ . . . . . % % % . ! % % 5 . - . . . . . . . . . . . . . . . . ",
". . . . % 5 % )$*$=$)$% .+|#. . $ $ % P@A#j#k#R@%$- 5 . . . . . . . . . + . % Q@a$L#h h R@P@%$. . . . . . . . . . . . . . . . . ",
"5 . . $ . 5 % )$=$=$b$% |#5 . . . . 5 Q@c$k#1#d$P@5 . # . - # . # + $ $ . 5 % P@&#&#R@R@&#'$R@5 . . . . . . . . . . . . . . . . ",
"|#. . . . 5 . P@Y#Y#P@|#. . . . # . 5 5 , L#=$e$)$% 5 + . . . . . . $ $ . . 5 P@%#/$k#k#/$&#P@5 . . . . . . . . . . . . . . . . ",
"5 . 5 5 5 5 . M#i#i#Q@. 5 - $ . . . ~ |#% L#=$=$)$% o#. . . . . . . . . . . . Q@f$g$3#3#h$R@Q@|#. . . . . . . . . . . . . . . . ",
". . 5 5 5 5 . 5 , , 5 . + . 5 . . . . 5 y@)$=$=$)$5 . . . . . . 5 . . 5 5 . . F & i$-#&#R@, 5 5 . . . . . . . . . . . . . . . . ",
". % . . . . . . 5 5 . . l l 5 5 . . . 5 , ($j$k$b$5 % # . . o#5 . . . . . . # # & > l$8$Q@5 5 . . . . . . . . . . . . . . . . . ",
". . . . . . . . . . . . % % 5 5 . . . . 5 P@&#'$P@5 . # . . 5 . . . . . . . # #   & % , . . . - . . . . . . . . . . . . . . . . ",
". . . . # # . . . . . . % . . . . . . . . Q@P@R@M#- . . . . 5 # $ . . . . . . . . . + + . . . . . . . . . . . . . . . . . . . . ",
"# . . . # # . . . . . . . . . . . . . . . . 5 % . - . . . . . # $ $ . . . # . . . . . . . % . . . . . . . . . . . . . . . . . . ",
". . ; # . . % % . . . . . . F F . + . . > e . . . - . . . . # # # . . l . - . . + + . - . . . . . . . . . . . . . . . . . . . . ",
". . # # . . % % . . . . . . F F - . . . # # . . . . . . . . # # . . % l . - . . . . . . . . . . . . . . . . . . . . . . . . . . ",
". . . . . . . . m$- . . . . . . . . . . $ . . . . . + . . . % . # # . . . . 5 5 l l 5 5 - . . . . . . . . . . . . . . . . . . . ",
". # . . . . . . }.- . . . . . . . - . . . . . . $ . + + . . + . # # . + # + 5 , q q 5 . . $ . . . . . . . . . . . . . . . . . . "};
