/* XPM */
static char * exit_locked_xpm[] = {
"64 64 19 1",
" 	c #C0D470",
".	c #A4C263",
"+	c #90625D",
"@	c #DCB98A",
"#	c #862718",
"$	c #DA6755",
"%	c #B23724",
"&	c #D84D37",
"*	c #A92F1B",
"=	c #C49A6C",
"-	c #5F2A21",
";	c #E8EEAA",
">	c #AA7959",
",	c #E8CFA6",
"'	c #F3E5C2",
")	c #B68962",
"!	c #754C60",
"~	c #6B4B5B",
"{	c #B7C973",
"                                                                ",
"                                                                ",
"                                                                ",
"            .            . .                .            . .    ",
"           .              .                .              .     ",
"           .                               .                    ",
"    .                               .                           ",
"     .                               .                          ",
"     .    .                  ++++++  .    .                     ",
"         .                +++@@@@@@+++   .                      ",
"         .         . . +++@@@@@@@@@@@@+++.         . .          ",
"                    +++@@@@@@######@@@@@@+++        .           ",
"                 +++@@@@@@###$%%%%$###@@@@@@+++                 ",
"              +++@@@@@@###&*#$%%%%$#*&###@@@@@@+++              ",
"             +@@@@@@####$$&*#&****&#*&$$####@@@@@@+             ",
"             +@@@###&&*#$$&*#$%%%%$#*&$$#*&&###@@@+             ",
"             +=##*#$$&*#&&&*#$%%%%$#*&&&#*&$$#*##=+             ",
"              +-&*#$$&*#$$&*#&****&#*&$$#*&$$#*$-+              ",
"               -&*#&&&*#$$&*#$%%%%$#*&$$#*&&&#*$-               ",
"               -&*#$$&*#&&&*#$%%%%$#*&&&#*&$$#*$-          ; ;  ",
"               -&*#$$&*#$$&*#>>>>>>#*&$$#*&$$#*$-           ;   ",
"       ;       -&*#&&&*#$$>>>,,,,,,>>>$$#*&&&#*$-               ",
"      ;        -&*#$$&*>>>,,,'''''',,,>>>*&$$#*$-               ",
"   ;  ;        -&*#$>>>,,,'''@@@@@@''',,,>>>$#*$-               ",
"    ; ;        -&>>>,,,'''@@@@@@@@@@@@''',,,>>>$-               ",
"    ;     ;   >>>,,,'''@@@@@@++++++@@@@@@''',,,>>>              ",
"    ;      ; >,,,'''@@@@@@++++++++++++@@@@@@''',,,> ; ;         ",
"           ; >'''@@@@@@++++++++++++++++++@@@@@@'''>  ;          ",
"           ; +@@@@@@++++++++++++++++++++++++@@@@@@+             ",
"             +@@@+++>>>>>>>>>>>>>>>>>>>>>>>>+++@@@+             ",
"              +++)============================)+++              ",
"                !==============================~                ",
"                !>>>>>>>>>>>>>>>>>>>>>>>>>>>>>>!                ",
"                !==============================!                ",
"                !==============================!                ",
"            .   !===!!!==================!!!===!         . .    ",
"           .    !>>!+'+!>>>>>!!!!!!>>>>>!+'+!>>!          .     ",
"           .    !==!'''!====!+'++'+!====!'''!==!                ",
"    .           !==!+'+!===!''''''''!===!+'+!==!                ",
"     .          !==!'''!===!'+'++'+'!===!'''!==!                ",
"     .    .     !>>>@@@>>>>!''''''''!>>>>@@@>>>!                ",
"         .      !==========!'+'++'+'!==========!                ",
"         .      !==========!''''''''!==========!   . .          ",
"                !==========!'>'>>'>'!==========!    .           ",
"                 !!!!!!!!!!!''''''''!!!!!!!!!!!                 ",
"                 {{!))!{{{{{{{{{{{{{{{{{{!))!{{                 ",
"                 {{!==!{{{{{{{{{{{{{{{{{{!==!{{                 ",
"                 {{!==!{{{{{{{{{{{{{{{{{{!==!{{                 ",
"                 {{!==!{{{{{{{{{{{{{{{{{{!==!{{                 ",
"                 {{!==!{{{{{{{{{{{{{{{{{{!==!{{                 ",
"                  {!==!{{{{{{{{{{{{{{{{{{!==!{                  ",
"                   {!!{{{{{{{{{{{{{{{{{{{{!!{              ; ;  ",
"                                                            ;   ",
"       ;                               ;                        ",
"      ;                               ;                         ",
"   ;  ;                     {         ;                         ",
"    ; ;                             ; ;                         ",
"    ;     ;                         ;     ;                     ",
"    ;      ;        ; ;             ;      ;        ; ;         ",
"           ;         ;                     ;         ;          ",
"           ;                               ;                    ",
"                                                                ",
"                                                                ",
"                                                                "};
