/* XPM */
static char * collect_water_xpm[] = {
"32 32 11 1",
" 	c #C0D470",
".	c #A4C263",
"+	c #F3F4E7",
"@	c #555793",
"#	c #4C468B",
"$	c #8599C7",
"%	c #7180B1",
"&	c #CBE0DE",
"*	c #B6CAD4",
"=	c #5F699C",
"-	c #E8EEAA",
"                                ",
"                                ",
"                                ",
"            .            . .    ",
"           .              .     ",
"           .                    ",
"    .                           ",
"     .                          ",
"     .    .                     ",
"         .   ++++++             ",
"         .  +@@@@@#+ .          ",
"           +@$$$$%%#+           ",
"            +######+            ",
"           +$&+&&&*$+           ",
"           +$+&&&&*$+           ",
"           +$&&&&&*$+           ",
"          +$&&&&&&**%+          ",
"          +$&&&&&&**%+          ",
"          +%&&&&&&**=+          ",
"          +%&&&&&&**=+     - -  ",
"          +%&&&&&***=+      -   ",
"       -  +=&&******=+          ",
"      -    +========+           ",
"   -  -     ++++++++            ",
"    - -                         ",
"    -     -                     ",
"    -      -        - -         ",
"           -         -          ",
"           -                    ",
"                                ",
"                                ",
"                                "};
