/* XPM */
static char * exit_unlocked_xpm[] = {
"32 32 274 2",
"  	c #C0D470",
". 	c #BED16F",
"+ 	c #BDCE6F",
"@ 	c #B9C16E",
"# 	c #B7BB6D",
"$ 	c #B0916E",
"% 	c #AE876F",
"& 	c #C0D370",
"* 	c #BECE6F",
"= 	c #BDCB6F",
"- 	c #B3AF6C",
"; 	c #AA9669",
"> 	c #C2A57A",
", 	c #CAAA80",
"' 	c #D1B483",
") 	c #D1B683",
"! 	c #BFD270",
"~ 	c #BAC96D",
"{ 	c #BAC56E",
"] 	c #B9BB70",
"^ 	c #B7AA71",
"/ 	c #B48E72",
"( 	c #C6A77D",
"_ 	c #D2B584",
": 	c #C5B47D",
"< 	c #BDB179",
"[ 	c #9FB566",
"} 	c #8FB05E",
"| 	c #A3B564",
"1 	c #A4C163",
"2 	c #B8C06D",
"3 	c #B09A6E",
"4 	c #B99E73",
"5 	c #CBAA80",
"6 	c #CBAF80",
"7 	c #CCB681",
"8 	c #B0AF72",
"9 	c #A0B168",
"0 	c #9CB863",
"a 	c #83A95A",
"b 	c #ADC768",
"c 	c #A2C063",
"d 	c #966960",
"e 	c #AA946B",
"f 	c #A99468",
"g 	c #D3B383",
"h 	c #C6B37E",
"i 	c #B9B276",
"j 	c #AEB76F",
"k 	c #8CB15D",
"l 	c #88AD5C",
"m 	c #ADC668",
"n 	c #A8C466",
"o 	c #86AB5B",
"p 	c #A5C265",
"q 	c #9BBB61",
"r 	c #BED06F",
"s 	c #9E9F62",
"t 	c #AB9E6A",
"u 	c #92AB62",
"v 	c #8FB25E",
"w 	c #A6C265",
"x 	c #8DB05D",
"y 	c #A7C266",
"z 	c #A6C365",
"A 	c #ABC667",
"B 	c #A0BF62",
"C 	c #C72525",
"D 	c #ADAA68",
"E 	c #BCCF6F",
"F 	c #91A160",
"G 	c #92B25F",
"H 	c #95B560",
"I 	c #B0C869",
"J 	c #A5C164",
"K 	c #ABC568",
"L 	c #A7C465",
"M 	c #A7C466",
"N 	c #9CBD61",
"O 	c #BED26F",
"P 	c #97B561",
"Q 	c #94B560",
"R 	c #A9C567",
"S 	c #A6BE63",
"T 	c #89A459",
"U 	c #B2B16B",
"V 	c #B1AD6A",
"W 	c #BDD16F",
"X 	c #AAC069",
"Y 	c #B0C969",
"Z 	c #A4C264",
"` 	c #95A65B",
" .	c #ADAC61",
"..	c #C0B67A",
"+.	c #BEB081",
"@.	c #D8C19E",
"#.	c #DDC4A3",
"$.	c #BDD26F",
"%.	c #AAC16A",
"&.	c #93B05F",
"*.	c #97AD5D",
"=.	c #B2B569",
"-.	c #B3A56B",
";.	c #C5B286",
">.	c #D7C097",
",.	c #E3CDA7",
"'.	c #E8D2AD",
").	c #E6CCA2",
"!.	c #E6CBA0",
"~.	c #BDCE6E",
"{.	c #A9A060",
"].	c #ACA16A",
"^.	c #C9B788",
"/.	c #D7C399",
"(.	c #E4CDAB",
"_.	c #E5CCA6",
":.	c #E3C69C",
"<.	c #E2C499",
"[.	c #C19D7B",
"}.	c #BA9475",
"|.	c #BFD06F",
"1.	c #BCB070",
"2.	c #DDC69E",
"3.	c #E0CAA3",
"4.	c #E9D5B0",
"5.	c #E6CEA6",
"6.	c #E3C599",
"7.	c #D9B98F",
"8.	c #D2B087",
"9.	c #A67D69",
"0.	c #986D62",
"a.	c #B29E6E",
"b.	c #E3C89E",
"c.	c #E2C69C",
"d.	c #DFBF93",
"e.	c #CEAC86",
"f.	c #B38C71",
"g.	c #A77F6A",
"h.	c #9D7364",
"i.	c #94675F",
"j.	c #90625D",
"k.	c #91625D",
"l.	c #91635D",
"m.	c #BECF6F",
"n.	c #AFA76B",
"o.	c #CEAC83",
"p.	c #C4A07C",
"q.	c #A97F67",
"r.	c #AE8365",
"s.	c #B18460",
"t.	c #AF815F",
"u.	c #AD805E",
"v.	c #AE805E",
"w.	c #BDCD6F",
"x.	c #B1B36C",
"y.	c #A18566",
"z.	c #BF9469",
"A.	c #C0966A",
"B.	c #C1966A",
"C.	c #9F8465",
"D.	c #B0B36C",
"E.	c #B6C56D",
"F.	c #998363",
"G.	c #B58860",
"H.	c #B48761",
"I.	c #B6C66E",
"J.	c #9E8966",
"K.	c #C3986B",
"L.	c #BF956B",
"M.	c #BB916A",
"N.	c #C2986B",
"O.	c #C1976B",
"P.	c #9D8765",
"Q.	c #BA8F68",
"R.	c #9E7564",
"S.	c #80555E",
"T.	c #BA8F67",
"U.	c #BE9267",
"V.	c #B98D66",
"W.	c #AE8567",
"X.	c #AC8467",
"Y.	c #9E8866",
"Z.	c #B18866",
"`.	c #8E6460",
" +	c #93665D",
".+	c #B08766",
"++	c #BE9268",
"@+	c #9D7262",
"#+	c #8C5F5E",
"$+	c #8B5E5E",
"%+	c #E8EEAA",
"&+	c #9D8766",
"*+	c #B28865",
"=+	c #A27966",
"-+	c #B48C6E",
";+	c #B28765",
">+	c #B48A67",
",+	c #926660",
"'+	c #9A8464",
")+	c #B68962",
"!+	c #BF966E",
"~+	c #D2AC7D",
"{+	c #B58962",
"]+	c #AE8363",
"^+	c #91645F",
"/+	c #A89074",
"(+	c #C69C6D",
"_+	c #C59B6C",
":+	c #C59A6C",
"<+	c #C69C6C",
"[+	c #B9916A",
"}+	c #936861",
"|+	c #BCCE6F",
"1+	c #C1B98B",
"2+	c #A88668",
"3+	c #A67F66",
"4+	c #A77E66",
"5+	c #A88568",
"6+	c #AA8B69",
"7+	c #A28567",
"8+	c #977060",
"9+	c #B08462",
"0+	c #B38762",
"a+	c #A9A86A",
"b+	c #E0E5A6",
"c+	c #999B6A",
"d+	c #967764",
"e+	c #9A7264",
"f+	c #989268",
"g+	c #A5AF6D",
"h+	c #9F8C64",
"i+	c #BE966A",
"j+	c #BACC70",
"k+	c #BED271",
"l+	c #A9B56F",
"m+	c #A78A68",
"n+	c #AD8567",
"o+	c #C1BC8F",
"p+	c #B8CC73",
"q+	c #B8CB73",
"r+	c #A29967",
"s+	c #BC9569",
"t+	c #BD9267",
"u+	c #A7A96D",
"v+	c #A8B46F",
"w+	c #A78B68",
"x+	c #AE8668",
"y+	c #A7A96C",
"z+	c #DEE3A7",
"A+	c #B7CA73",
"B+	c #BB9468",
"C+	c #B0BE6E",
"D+	c #A68F69",
"E+	c #A88467",
"F+	c #A9AE6D",
"G+	c #BD9669",
"H+	c #BF9568",
"I+	c #B8CA73",
"J+	c #C4C193",
"K+	c #BDD170",
"L+	c #B5C06E",
"M+	c #B2BA6D",
"N+	c #B9CA70",
"O+	c #E4EAA9",
"P+	c #BCCF72",
"Q+	c #A39A66",
"R+	c #BD966A",
"S+	c #BDD071",
"T+	c #BFD370",
"U+	c #BFD371",
"V+	c #A49C67",
"W+	c #B3BE6E",
"X+	c #A58564",
"Y+	c #A37761",
"                                                                ",
"                    . + @ # $ % % $ # @ + .                     ",
"            & . * = - ; > , ' ) ) ' , > ; - = * . &             ",
"        ! ~ { ] ^ / ( _ : < [ } } [ < : _ ( / ^ ] | ~ 1         ",
"      ! 2 3 4 5 6 7 8 9 0 a b c c b a 0 9 8 7 6 d 4 e 2 !       ",
"      + f g h i j k l m n o p q q p o n m l k j d d g f +       ",
"      r s t u v b w x y z o A B B A o z y x w b d C C D r       ",
"        E F G H I J x K L o M N N M o L K x J I d C C C         ",
"        O P G Q I J x R S T U V V U T S R x J I d C C C C       ",
"        W X G Q Y Z `  ...+.@.#.#.@.+... .` Z Y d G C C C C     ",
"        $.%.&.*.=.-.;.>.,.'.).!.!.).'.,.>.;.-.=.d &.%.$.        ",
"        ~.{.].^./.(._.).:.<.[.}.}.[.<.:.)._.(./.d ].{.~.        ",
"      |.1.2.3.4.5.6.7.8./ 9.0.d d 0.9./ 8.7.6.5.d 3.2.1.|.      ",
"      + a.b.c.d.e.f.g.h.i.j.k.l.l.k.j.i.h.g.f.e.d.c.b.a.+       ",
"      m.n.o.p.q.r.s.t.u.v.v.v.v.v.v.v.v.u.t.s.r.q.p.o.n.m.      ",
"        w.x.y.z.A.B.B.B.B.B.B.B.B.B.B.B.B.B.B.A.z.C.D.w.        ",
"          E.F.G.H.H.H.H.H.H.H.H.H.H.H.H.H.H.H.H.G.F.E.          ",
"          I.J.K.L.M.L.N.N.N.O.O.O.O.N.N.N.L.M.L.K.J.I.          ",
"          I.P.Q.R.S.R.T.U.V.W.X.X.W.V.U.T.R.S.R.Q.P.I.          ",
"          I.Y.Z.`. +`..+++@+#+$+$+#+@+++.+`. +`.Z.Y.I.%+  %+    ",
"          I.&+*+=+-+=+;+>+,+,.,.,.,.,+>+;+=+-+=+*+&+I.  %+      ",
"          I.'+)+!+~+!+{+]+^+,.,.,.,.^+]+{+!+~+!+)+'+I.          ",
"          I./+(+_+:+_+<+[+}+,.,.,.,.}+[+<+_+:+_+(+Y.I.          ",
"      %+  |+1+2+3+4+5+6+7+8+9+0+0+9+8+7+6+5+4+3+2+a+|+          ",
"        %+  b+c+d+e+f+g+g+h+i+,.,.i+h+g+g+f+e+d+c+j+            ",
"        %+  k+l+m+n+o+p+q+r+s+t+t+s+r+q+p+u+n+m+l+k+            ",
"        %+  k+v+w+x+y+z+A+r+B+,.,.B+r+A+z+y+x+w+v+k+            ",
"              C+D+E+F+z+A+r+G+H+H+G+r+A+I+J+E+D+C+              ",
"              K+L+M+N+O+P+Q+R+,.,.R+Q+P+S+N+M+L+K+              ",
"                T+! T+  U+V+B+,.,.B+V+U+  T+! T+                ",
"                          W+X+Y+Y+X+W+                          ",
"                                                                "};
