/* XPM */
static char * player_back_exit_xpm[] = {
"32 32 216 2",
"  	c #C0D470",
". 	c #BED16F",
"+ 	c #BDCE6F",
"@ 	c #B9C16E",
"# 	c #B7BB6D",
"$ 	c #B0916E",
"% 	c #AE876F",
"& 	c #C0D370",
"* 	c #BECE6F",
"= 	c #BDCB6F",
"- 	c #B3AF6C",
"; 	c #AA9669",
"> 	c #C2A57A",
", 	c #CAAA80",
"' 	c #D1B483",
") 	c #D1B683",
"! 	c #BFD270",
"~ 	c #BAC96D",
"{ 	c #BAC56E",
"] 	c #B9BB70",
"^ 	c #B7AA71",
"/ 	c #B48E72",
"( 	c #C6A77D",
"_ 	c #D2B584",
": 	c #C5B47D",
"< 	c #BDB179",
"[ 	c #9FB566",
"} 	c #8FB05E",
"| 	c #A3B564",
"1 	c #A4C163",
"2 	c #B8C06D",
"3 	c #B09A6E",
"4 	c #B99E73",
"5 	c #CBAA80",
"6 	c #CBAF80",
"7 	c #CCB681",
"8 	c #B0AF72",
"9 	c #A0B168",
"0 	c #9CB863",
"a 	c #83A95A",
"b 	c #ADC768",
"c 	c #A2C063",
"d 	c #AA946B",
"e 	c #A99468",
"f 	c #D3B383",
"g 	c #C6B37E",
"h 	c #B9B276",
"i 	c #AEB76F",
"j 	c #8CB15D",
"k 	c #88AD5C",
"l 	c #ADC668",
"m 	c #A8C466",
"n 	c #86AB5B",
"o 	c #A5C265",
"p 	c #9BBB61",
"q 	c #BED06F",
"r 	c #9E9F62",
"s 	c #AB9E6A",
"t 	c #92AB62",
"u 	c #8FB25E",
"v 	c #A6C265",
"w 	c #8DB05D",
"x 	c #A7C266",
"y 	c #A6C365",
"z 	c #ABC667",
"A 	c #A0BF62",
"B 	c #ADAA68",
"C 	c #BCCF6F",
"D 	c #91A160",
"E 	c #92B25F",
"F 	c #95B560",
"G 	c #B0C869",
"H 	c #A5C164",
"I 	c #ABC568",
"J 	c #A7C465",
"K 	c #A7C466",
"L 	c #9CBD61",
"M 	c #9DA965",
"N 	c #BED26F",
"O 	c #97B561",
"P 	c #94B560",
"Q 	c #A9C567",
"R 	c #A6BE63",
"S 	c #89A459",
"T 	c #B2B16B",
"U 	c #B1AD6A",
"V 	c #AAC16A",
"W 	c #BDD16F",
"X 	c #AAC069",
"Y 	c #B0C969",
"Z 	c #A4C264",
"` 	c #95A65B",
" .	c #ADAC61",
"..	c #C0B67A",
"+.	c #BEB081",
"@.	c #D8C19E",
"#.	c #DDC4A3",
"$.	c #BDD26F",
"%.	c #93B05F",
"&.	c #97AD5D",
"*.	c #B2B569",
"=.	c #B3A56B",
"-.	c #C5B286",
";.	c #5C4E92",
">.	c #E6CCA2",
",.	c #E6CBA0",
"'.	c #BDCE6E",
").	c #A9A060",
"!.	c #ACA16A",
"~.	c #C9B788",
"{.	c #D7C399",
"].	c #E4CDAB",
"^.	c #F3F2C0",
"/.	c #BA9475",
"(.	c #BFD06F",
"_.	c #BCB070",
":.	c #DDC69E",
"<.	c #E0CAA3",
"[.	c #E9D5B0",
"}.	c #E6CEA6",
"|.	c #E3C599",
"1.	c #B29E6E",
"2.	c #E3C89E",
"3.	c #E2C69C",
"4.	c #DFBF93",
"5.	c #CEAC86",
"6.	c #B38C71",
"7.	c #DDD5DE",
"8.	c #BECF6F",
"9.	c #AFA76B",
"0.	c #CEAC83",
"a.	c #C4A07C",
"b.	c #A97F67",
"c.	c #AE8365",
"d.	c #B18460",
"e.	c #BDCD6F",
"f.	c #B1B36C",
"g.	c #A18566",
"h.	c #BF9469",
"i.	c #C0966A",
"j.	c #C1966A",
"k.	c #9F8465",
"l.	c #B0B36C",
"m.	c #B6C56D",
"n.	c #998363",
"o.	c #B58860",
"p.	c #B48761",
"q.	c #B6C66E",
"r.	c #9E8966",
"s.	c #C3986B",
"t.	c #BF956B",
"u.	c #BB916A",
"v.	c #9D8765",
"w.	c #BA8F68",
"x.	c #9E7564",
"y.	c #9E8866",
"z.	c #B18866",
"A.	c #8E6460",
"B.	c #93665D",
"C.	c #E8EEAA",
"D.	c #9D8766",
"E.	c #B28865",
"F.	c #A27966",
"G.	c #B48C6E",
"H.	c #766DAA",
"I.	c #9A8464",
"J.	c #B68962",
"K.	c #BF966E",
"L.	c #D2AC7D",
"M.	c #A89074",
"N.	c #C69C6D",
"O.	c #C59B6C",
"P.	c #C59A6C",
"Q.	c #BCCE6F",
"R.	c #C1B98B",
"S.	c #A88668",
"T.	c #A67F66",
"U.	c #A77E66",
"V.	c #A88568",
"W.	c #A9A86A",
"X.	c #E0E5A6",
"Y.	c #999B6A",
"Z.	c #967764",
"`.	c #9A7264",
" +	c #989268",
".+	c #A5AF6D",
"++	c #BACC70",
"@+	c #BED271",
"#+	c #A9B56F",
"$+	c #A78A68",
"%+	c #AD8567",
"&+	c #C1BC8F",
"*+	c #B8CC73",
"=+	c #B8CB73",
"-+	c #A7A96D",
";+	c #A8B46F",
">+	c #A78B68",
",+	c #AE8668",
"'+	c #A7A96C",
")+	c #DEE3A7",
"!+	c #B7CA73",
"~+	c #B0BE6E",
"{+	c #A68F69",
"]+	c #A88467",
"^+	c #A9AE6D",
"/+	c #B8CA73",
"(+	c #C4C193",
"_+	c #BDD170",
":+	c #B5C06E",
"<+	c #B2BA6D",
"[+	c #B9CA70",
"}+	c #E4EAA9",
"|+	c #BCCF72",
"1+	c #BDD071",
"2+	c #BFD370",
"3+	c #BFD371",
"                                                                ",
"                    . + @ # $ % % $ # @ + .                     ",
"            & . * = - ; > , ' ) ) ' , > ; - = * . &             ",
"        ! ~ { ] ^ / ( _ : < [ } } [ < : _ ( / ^ ] | ~ 1         ",
"      ! 2 3 4 5 6 7 8 9 0 a b c c b a 0 9 8 7 6 5 4 d 2 !       ",
"      + e f g h i j k l m n o p p o n m l k j i h g f e +       ",
"      q r s t u b v w x y n z A A z n y x w v b u t s B q       ",
"        C D E F G H w I J n K L L K n J I w H G F E M C         ",
"        N O E P G H w Q R S T U U T S R Q w H G P E V N         ",
"        W X E P Y Z `  ...+.@.#.#.@.+... .` Z Y P E X W         ",
"        $.V %.&.*.=.-.;.;.;.>.,.,.>.;.;.;.-.=.*.&.%.V $.        ",
"        '.).!.~.{.].;.^.^.^.;././.;.^.^.^.;.].{.~.!.).'.        ",
"      (._.:.<.[.}.|.;.^.^.^.;.;.;.;.^.^.^.;.|.}.[.<.:._.(.      ",
"      + 1.2.3.4.5.6.;.^.^.^.7.7.7.7.^.^.^.;.6.5.4.3.2.1.+       ",
"      8.9.0.a.b.c.d.;.^.^.^.^.^.^.^.^.^.^.;.d.c.b.a.0.9.8.      ",
"        e.f.g.h.i.j.;.^.^.^.^.^.^.^.^.^.^.;.j.i.h.k.l.e.        ",
"          m.n.o.p.;.;.^.^.^.^.^.^.^.^.^.^.;.;.p.o.n.m.          ",
"          q.r.s.t.u.;.^.^.^.^.^.^.^.^.^.^.;.u.t.s.r.q.          ",
"          q.v.w.x.;.;.^.^.^.^.^.^.^.^.^.^.;.;.x.w.v.q.          ",
"          q.y.z.A.B.;.^.^.^.^.^.^.^.^.^.^.;.B.A.z.y.q.C.  C.    ",
"          q.D.E.F.G.F.;.;.H.H.H.H.H.H.;.;.F.G.F.E.D.q.  C.      ",
"          q.I.J.K.L.;.7.^.H.H.;.;.H.H.^.7.;.L.K.J.I.q.          ",
"          q.M.N.O.P.;.7.^.^.;.^.^.;.^.^.7.;.P.O.N.y.q.          ",
"      C.  Q.R.S.T.U.V.;.;.^.^.^.^.^.^.;.;.V.U.T.S.W.Q.          ",
"        C.  X.Y.Z.`. +.+;.7.7.;.;.7.7.;..+ +`.Z.Y.++            ",
"        C.  @+#+$+%+&+*+=+;.;.    ;.;.=+*+-+%+$+#+@+            ",
"        C.  @+;+>+,+'+)+!+            !+)+'+,+>+;+@+            ",
"              ~+{+]+^+)+!+            !+/+(+]+{+~+              ",
"              _+:+<+[+}+|+            |+1+[+<+:+_+              ",
"                2+! 2+  3+            3+  2+! 2+                ",
"                                                                ",
"                                                                "};
