/* XPM */
static char * player_right_exit_xpm[] = {
"32 32 238 2",
"  	c #C0D470",
". 	c #BED16F",
"+ 	c #BDCE6F",
"@ 	c #B9C16E",
"# 	c #B7BB6D",
"$ 	c #B0916E",
"% 	c #AE876F",
"& 	c #C0D370",
"* 	c #BECE6F",
"= 	c #BDCB6F",
"- 	c #B3AF6C",
"; 	c #AA9669",
"> 	c #C2A57A",
", 	c #CAAA80",
"' 	c #D1B483",
") 	c #D1B683",
"! 	c #BFD270",
"~ 	c #BAC96D",
"{ 	c #BAC56E",
"] 	c #B9BB70",
"^ 	c #B7AA71",
"/ 	c #B48E72",
"( 	c #C6A77D",
"_ 	c #D2B584",
": 	c #C5B47D",
"< 	c #BDB179",
"[ 	c #9FB566",
"} 	c #8FB05E",
"| 	c #A3B564",
"1 	c #A4C163",
"2 	c #B8C06D",
"3 	c #B09A6E",
"4 	c #B99E73",
"5 	c #CBAA80",
"6 	c #CBAF80",
"7 	c #CCB681",
"8 	c #B0AF72",
"9 	c #A0B168",
"0 	c #9CB863",
"a 	c #83A95A",
"b 	c #ADC768",
"c 	c #A2C063",
"d 	c #AA946B",
"e 	c #A99468",
"f 	c #D3B383",
"g 	c #C6B37E",
"h 	c #B9B276",
"i 	c #AEB76F",
"j 	c #8CB15D",
"k 	c #88AD5C",
"l 	c #ADC668",
"m 	c #A8C466",
"n 	c #86AB5B",
"o 	c #A5C265",
"p 	c #9BBB61",
"q 	c #BED06F",
"r 	c #9E9F62",
"s 	c #AB9E6A",
"t 	c #92AB62",
"u 	c #8FB25E",
"v 	c #A6C265",
"w 	c #8DB05D",
"x 	c #A7C266",
"y 	c #A6C365",
"z 	c #ABC667",
"A 	c #A0BF62",
"B 	c #ADAA68",
"C 	c #BCCF6F",
"D 	c #91A160",
"E 	c #92B25F",
"F 	c #95B560",
"G 	c #B0C869",
"H 	c #A5C164",
"I 	c #ABC568",
"J 	c #A7C465",
"K 	c #A7C466",
"L 	c #9CBD61",
"M 	c #9DA965",
"N 	c #BED26F",
"O 	c #97B561",
"P 	c #94B560",
"Q 	c #A9C567",
"R 	c #A6BE63",
"S 	c #89A459",
"T 	c #B2B16B",
"U 	c #B1AD6A",
"V 	c #AAC16A",
"W 	c #BDD16F",
"X 	c #AAC069",
"Y 	c #B0C969",
"Z 	c #A4C264",
"` 	c #95A65B",
" .	c #ADAC61",
"..	c #C0B67A",
"+.	c #BEB081",
"@.	c #D8C19E",
"#.	c #DDC4A3",
"$.	c #BDD26F",
"%.	c #93B05F",
"&.	c #97AD5D",
"*.	c #B2B569",
"=.	c #B3A56B",
"-.	c #C5B286",
";.	c #D7C097",
">.	c #E3CDA7",
",.	c #E8D2AD",
"'.	c #5C4E92",
").	c #E6CCA2",
"!.	c #BDCE6E",
"~.	c #A9A060",
"{.	c #ACA16A",
"].	c #C9B788",
"^.	c #D7C399",
"/.	c #E4CDAB",
"(.	c #E5CCA6",
"_.	c #E3C69C",
":.	c #F3F2C0",
"<.	c #E2C499",
"[.	c #BFD06F",
"}.	c #BCB070",
"|.	c #DDC69E",
"1.	c #E0CAA3",
"2.	c #E9D5B0",
"3.	c #E6CEA6",
"4.	c #E3C599",
"5.	c #D9B98F",
"6.	c #D2B087",
"7.	c #E8B5AC",
"8.	c #B29E6E",
"9.	c #E3C89E",
"0.	c #E2C69C",
"a.	c #DFBF93",
"b.	c #CEAC86",
"c.	c #B38C71",
"d.	c #A77F6A",
"e.	c #9D7364",
"f.	c #BECF6F",
"g.	c #AFA76B",
"h.	c #CEAC83",
"i.	c #C4A07C",
"j.	c #A97F67",
"k.	c #AE8365",
"l.	c #B18460",
"m.	c #AF815F",
"n.	c #AD805E",
"o.	c #BDCD6F",
"p.	c #B1B36C",
"q.	c #A18566",
"r.	c #BF9469",
"s.	c #C0966A",
"t.	c #C1966A",
"u.	c #9F8465",
"v.	c #B0B36C",
"w.	c #B6C56D",
"x.	c #998363",
"y.	c #B58860",
"z.	c #B48761",
"A.	c #B6C66E",
"B.	c #9E8966",
"C.	c #C3986B",
"D.	c #BF956B",
"E.	c #BB916A",
"F.	c #C2986B",
"G.	c #9D8765",
"H.	c #BA8F68",
"I.	c #9E7564",
"J.	c #80555E",
"K.	c #9E8866",
"L.	c #B18866",
"M.	c #8E6460",
"N.	c #93665D",
"O.	c #B08766",
"P.	c #F3D8C5",
"Q.	c #E8EEAA",
"R.	c #9D8766",
"S.	c #B28865",
"T.	c #A27966",
"U.	c #B48C6E",
"V.	c #B28765",
"W.	c #B48A67",
"X.	c #766DAA",
"Y.	c #9A8464",
"Z.	c #B68962",
"`.	c #BF966E",
" +	c #D2AC7D",
".+	c #B58962",
"++	c #DDD5DE",
"@+	c #EAE178",
"#+	c #A89074",
"$+	c #C69C6D",
"%+	c #C59B6C",
"&+	c #C59A6C",
"*+	c #C69C6C",
"=+	c #BCCE6F",
"-+	c #C1B98B",
";+	c #A88668",
">+	c #A67F66",
",+	c #A77E66",
"'+	c #A88568",
")+	c #AA8B69",
"!+	c #A28567",
"~+	c #A9A86A",
"{+	c #E0E5A6",
"]+	c #999B6A",
"^+	c #967764",
"/+	c #9A7264",
"(+	c #989268",
"_+	c #A5AF6D",
":+	c #BACC70",
"<+	c #BED271",
"[+	c #A9B56F",
"}+	c #A78A68",
"|+	c #AD8567",
"1+	c #C1BC8F",
"2+	c #B8CC73",
"3+	c #B8CB73",
"4+	c #A7A96D",
"5+	c #A8B46F",
"6+	c #A78B68",
"7+	c #AE8668",
"8+	c #A7A96C",
"9+	c #DEE3A7",
"0+	c #B7CA73",
"a+	c #B0BE6E",
"b+	c #A68F69",
"c+	c #A88467",
"d+	c #A9AE6D",
"e+	c #B8CA73",
"f+	c #C4C193",
"g+	c #BDD170",
"h+	c #B5C06E",
"i+	c #B2BA6D",
"j+	c #B9CA70",
"k+	c #E4EAA9",
"l+	c #BCCF72",
"m+	c #BDD071",
"n+	c #BFD370",
"o+	c #BFD371",
"                                                                ",
"                    . + @ # $ % % $ # @ + .                     ",
"            & . * = - ; > , ' ) ) ' , > ; - = * . &             ",
"        ! ~ { ] ^ / ( _ : < [ } } [ < : _ ( / ^ ] | ~ 1         ",
"      ! 2 3 4 5 6 7 8 9 0 a b c c b a 0 9 8 7 6 5 4 d 2 !       ",
"      + e f g h i j k l m n o p p o n m l k j i h g f e +       ",
"      q r s t u b v w x y n z A A z n y x w v b u t s B q       ",
"        C D E F G H w I J n K L L K n J I w H G F E M C         ",
"        N O E P G H w Q R S T U U T S R Q w H G P E V N         ",
"        W X E P Y Z `  ...+.@.#.#.@.+... .` Z Y P E X W         ",
"        $.V %.&.*.=.-.;.>.,.'.'.'.).,.>.;.-.=.*.&.%.V $.        ",
"        !.~.{.].^./.(.)._.'.:.:.:.'.<._.).(./.^.].{.~.!.        ",
"      [.}.|.1.2.3.4.5.6.'.:.7.7.:.'.'./ 6.5.4.3.2.1.|.}.[.      ",
"      + 8.9.0.a.b.c.d.e.'.:.7.7.:.:.:.'.e.d.c.b.a.0.9.8.+       ",
"      f.g.h.i.j.k.l.m.n.'.:.:.:.:.:.:.'.n.m.l.k.j.i.h.g.f.      ",
"        o.p.q.r.s.t.t.t.'.:.:.:.:.:.:.'.t.t.t.s.r.u.v.o.        ",
"          w.x.y.z.z.z.'.'.:.:.:.:.:.:.'.'.z.z.z.y.x.w.          ",
"          A.B.C.D.E.D.F.'.:.:.:.:.'.:.:.'.D.E.D.C.B.A.          ",
"          A.G.H.I.J.I.'.'.:.:.:.:.:.:.:.'.I.J.I.H.G.A.          ",
"          A.K.L.M.N.M.O.'.:.:.P.P.:.:.:.'.M.N.M.L.K.A.Q.  Q.    ",
"          A.R.S.T.U.T.V.W.'.X.X.X.X.X.'.V.T.U.T.S.R.A.  Q.      ",
"          A.Y.Z.`. +`..+'.++:.X.X.X.X.@+.+`. +`.Z.Y.A.          ",
"          A.#+$+%+&+%+*+'.++:.:.:.:.'.@+*+%+&+%+$+K.A.          ",
"      Q.  =+-+;+>+,+'+)+!+'.:.:.:.:.'.!+)+'+,+>+;+~+=+          ",
"        Q.  {+]+^+/+(+_+_+  '.++++'.  _+_+(+/+^+]+:+            ",
"        Q.  <+[+}+|+1+2+3+    '.'.    3+2+4+|+}+[+<+            ",
"        Q.  <+5+6+7+8+9+0+            0+9+8+7+6+5+<+            ",
"              a+b+c+d+9+0+            0+e+f+c+b+a+              ",
"              g+h+i+j+k+l+            l+m+j+i+h+g+              ",
"                n+! n+  o+            o+  n+! n+                ",
"                                                                ",
"                                                                "};
