/* XPM */
static char * player_front_exit_xpm[] = {
"32 32 219 2",
"  	c #C0D470",
". 	c #BED16F",
"+ 	c #BDCE6F",
"@ 	c #B9C16E",
"# 	c #B7BB6D",
"$ 	c #B0916E",
"% 	c #AE876F",
"& 	c #C0D370",
"* 	c #BECE6F",
"= 	c #BDCB6F",
"- 	c #B3AF6C",
"; 	c #AA9669",
"> 	c #C2A57A",
", 	c #CAAA80",
"' 	c #D1B483",
") 	c #D1B683",
"! 	c #BFD270",
"~ 	c #BAC96D",
"{ 	c #BAC56E",
"] 	c #B9BB70",
"^ 	c #B7AA71",
"/ 	c #B48E72",
"( 	c #C6A77D",
"_ 	c #D2B584",
": 	c #C5B47D",
"< 	c #BDB179",
"[ 	c #9FB566",
"} 	c #8FB05E",
"| 	c #A3B564",
"1 	c #A4C163",
"2 	c #B8C06D",
"3 	c #B09A6E",
"4 	c #B99E73",
"5 	c #CBAA80",
"6 	c #CBAF80",
"7 	c #CCB681",
"8 	c #B0AF72",
"9 	c #A0B168",
"0 	c #9CB863",
"a 	c #83A95A",
"b 	c #ADC768",
"c 	c #A2C063",
"d 	c #AA946B",
"e 	c #A99468",
"f 	c #D3B383",
"g 	c #C6B37E",
"h 	c #B9B276",
"i 	c #AEB76F",
"j 	c #8CB15D",
"k 	c #88AD5C",
"l 	c #ADC668",
"m 	c #A8C466",
"n 	c #86AB5B",
"o 	c #A5C265",
"p 	c #9BBB61",
"q 	c #BED06F",
"r 	c #9E9F62",
"s 	c #AB9E6A",
"t 	c #92AB62",
"u 	c #8FB25E",
"v 	c #A6C265",
"w 	c #8DB05D",
"x 	c #A7C266",
"y 	c #A6C365",
"z 	c #ABC667",
"A 	c #A0BF62",
"B 	c #ADAA68",
"C 	c #BCCF6F",
"D 	c #91A160",
"E 	c #92B25F",
"F 	c #95B560",
"G 	c #B0C869",
"H 	c #A5C164",
"I 	c #ABC568",
"J 	c #A7C465",
"K 	c #A7C466",
"L 	c #9CBD61",
"M 	c #9DA965",
"N 	c #BED26F",
"O 	c #97B561",
"P 	c #94B560",
"Q 	c #A9C567",
"R 	c #A6BE63",
"S 	c #89A459",
"T 	c #B2B16B",
"U 	c #B1AD6A",
"V 	c #AAC16A",
"W 	c #BDD16F",
"X 	c #AAC069",
"Y 	c #B0C969",
"Z 	c #A4C264",
"` 	c #95A65B",
" .	c #ADAC61",
"..	c #C0B67A",
"+.	c #BEB081",
"@.	c #D8C19E",
"#.	c #DDC4A3",
"$.	c #BDD26F",
"%.	c #93B05F",
"&.	c #97AD5D",
"*.	c #B2B569",
"=.	c #B3A56B",
"-.	c #C5B286",
";.	c #5C4E92",
">.	c #E6CCA2",
",.	c #E6CBA0",
"'.	c #BDCE6E",
").	c #A9A060",
"!.	c #ACA16A",
"~.	c #C9B788",
"{.	c #D7C399",
"].	c #E4CDAB",
"^.	c #F3F2C0",
"/.	c #BA9475",
"(.	c #BFD06F",
"_.	c #BCB070",
":.	c #DDC69E",
"<.	c #E0CAA3",
"[.	c #E9D5B0",
"}.	c #E6CEA6",
"|.	c #E3C599",
"1.	c #E8B5AC",
"2.	c #B29E6E",
"3.	c #E3C89E",
"4.	c #E2C69C",
"5.	c #DFBF93",
"6.	c #CEAC86",
"7.	c #B38C71",
"8.	c #DDD5DE",
"9.	c #BECF6F",
"0.	c #AFA76B",
"a.	c #CEAC83",
"b.	c #C4A07C",
"c.	c #A97F67",
"d.	c #AE8365",
"e.	c #B18460",
"f.	c #BDCD6F",
"g.	c #B1B36C",
"h.	c #A18566",
"i.	c #BF9469",
"j.	c #C0966A",
"k.	c #C1966A",
"l.	c #9F8465",
"m.	c #B0B36C",
"n.	c #B6C56D",
"o.	c #998363",
"p.	c #B58860",
"q.	c #B48761",
"r.	c #B6C66E",
"s.	c #9E8966",
"t.	c #C3986B",
"u.	c #BF956B",
"v.	c #BB916A",
"w.	c #9D8765",
"x.	c #BA8F68",
"y.	c #9E7564",
"z.	c #9E8866",
"A.	c #B18866",
"B.	c #8E6460",
"C.	c #93665D",
"D.	c #F3D8C5",
"E.	c #E8EEAA",
"F.	c #9D8766",
"G.	c #B28865",
"H.	c #A27966",
"I.	c #B48C6E",
"J.	c #766DAA",
"K.	c #9A8464",
"L.	c #B68962",
"M.	c #BF966E",
"N.	c #D2AC7D",
"O.	c #EAE178",
"P.	c #A89074",
"Q.	c #C69C6D",
"R.	c #C59B6C",
"S.	c #C59A6C",
"T.	c #BCCE6F",
"U.	c #C1B98B",
"V.	c #A88668",
"W.	c #A67F66",
"X.	c #A77E66",
"Y.	c #A88568",
"Z.	c #A9A86A",
"`.	c #E0E5A6",
" +	c #999B6A",
".+	c #967764",
"++	c #9A7264",
"@+	c #989268",
"#+	c #A5AF6D",
"$+	c #BACC70",
"%+	c #BED271",
"&+	c #A9B56F",
"*+	c #A78A68",
"=+	c #AD8567",
"-+	c #C1BC8F",
";+	c #B8CC73",
">+	c #B8CB73",
",+	c #A7A96D",
"'+	c #A8B46F",
")+	c #A78B68",
"!+	c #AE8668",
"~+	c #A7A96C",
"{+	c #DEE3A7",
"]+	c #B7CA73",
"^+	c #B0BE6E",
"/+	c #A68F69",
"(+	c #A88467",
"_+	c #A9AE6D",
":+	c #B8CA73",
"<+	c #C4C193",
"[+	c #BDD170",
"}+	c #B5C06E",
"|+	c #B2BA6D",
"1+	c #B9CA70",
"2+	c #E4EAA9",
"3+	c #BCCF72",
"4+	c #BDD071",
"5+	c #BFD370",
"6+	c #BFD371",
"                                                                ",
"                    . + @ # $ % % $ # @ + .                     ",
"            & . * = - ; > , ' ) ) ' , > ; - = * . &             ",
"        ! ~ { ] ^ / ( _ : < [ } } [ < : _ ( / ^ ] | ~ 1         ",
"      ! 2 3 4 5 6 7 8 9 0 a b c c b a 0 9 8 7 6 5 4 d 2 !       ",
"      + e f g h i j k l m n o p p o n m l k j i h g f e +       ",
"      q r s t u b v w x y n z A A z n y x w v b u t s B q       ",
"        C D E F G H w I J n K L L K n J I w H G F E M C         ",
"        N O E P G H w Q R S T U U T S R Q w H G P E V N         ",
"        W X E P Y Z `  ...+.@.#.#.@.+... .` Z Y P E X W         ",
"        $.V %.&.*.=.-.;.;.;.>.,.,.>.;.;.;.-.=.*.&.%.V $.        ",
"        '.).!.~.{.].;.^.^.^.;././.;.^.^.^.;.].{.~.!.).'.        ",
"      (._.:.<.[.}.|.;.1.1.^.;.;.;.;.^.1.1.;.|.}.[.<.:._.(.      ",
"      + 2.3.4.5.6.7.;.1.1.^.8.8.8.8.^.1.1.;.7.6.5.4.3.2.+       ",
"      9.0.a.b.c.d.e.;.^.^.^.8.8.8.8.^.^.^.;.e.d.c.b.a.0.9.      ",
"        f.g.h.i.j.k.;.^.^.^.8.8.8.8.^.^.^.;.k.j.i.l.m.f.        ",
"          n.o.p.q.;.;.^.^.^.^.^.^.^.^.^.^.;.;.q.p.o.n.          ",
"          r.s.t.u.v.;.^.;.^.^.^.^.^.^.;.^.;.v.u.t.s.r.          ",
"          r.w.x.y.;.;.^.^.^.^.^.^.^.^.^.^.;.;.y.x.w.r.          ",
"          r.z.A.B.C.;.D.D.^.^.^.^.^.^.D.D.;.C.B.A.z.r.E.  E.    ",
"          r.F.G.H.I.H.;.;.J.J.J.J.J.J.;.;.H.I.H.G.F.r.  E.      ",
"          r.K.L.M.N.;.8.^.J.J.O.^.J.J.^.8.;.N.M.L.K.r.          ",
"          r.P.Q.R.S.;.8.^.^.^.O.O.^.^.^.8.;.S.R.Q.z.r.          ",
"      E.  T.U.V.W.X.Y.;.;.^.^.^.^.^.^.;.;.Y.X.W.V.Z.T.          ",
"        E.  `. +.+++@+#+;.8.8.;.;.8.8.;.#+@+++.+ +$+            ",
"        E.  %+&+*+=+-+;+>+;.;.    ;.;.>+;+,+=+*+&+%+            ",
"        E.  %+'+)+!+~+{+]+            ]+{+~+!+)+'+%+            ",
"              ^+/+(+_+{+]+            ]+:+<+(+/+^+              ",
"              [+}+|+1+2+3+            3+4+1+|+}+[+              ",
"                5+! 5+  6+            6+  5+! 5+                ",
"                                                                ",
"                                                                "};
