/* XPM */
static char * collect_xpm[] = {
"32 32 9 1",
" 	c #C0D470",
".	c #A4C263",
"+	c #F3F4E7",
"@	c #5F7A79",
"#	c #C2E09A",
"$	c #97BB8E",
"%	c #6E967C",
"&	c #505E77",
"*	c #E8EEAA",
"                                ",
"                                ",
"                                ",
"            .            . .    ",
"           .              .     ",
"           .                    ",
"    .                           ",
"     .                          ",
"     .    .     ++++            ",
"         .     +@@@+            ",
"         ++++ +@#$@+++          ",
"         +@@@+@#$$@@@@+         ",
"         +@##@@#$$@##$@+        ",
"         +@#$$%$$@$$$$@+        ",
"          +@%$%$$%$$%%++        ",
"         +@@@%%$$%$%%&+         ",
"        +@##$%%$%%%%##@+        ",
"        +@$$$%%%%%%$$$&+        ",
"        +&&&%%%%%%%%&&&+        ",
"        ++++&%%%%%%&++++   * *  ",
"           +&%%&%%%&+       *   ",
"       *    +&&+&+&+            ",
"      *      ++ + +             ",
"   *  *                         ",
"    * *                         ",
"    *     *                     ",
"    *      *        * *         ",
"           *         *          ",
"           *                    ",
"                                ",
"                                ",
"                                "};
