/* XPM */
static char * collect_water2_xpm[] = {
"32 32 47 1",
" 	c #C0D470",
".	c #A4C263",
"+	c #9FBA63",
"@	c #000000",
"#	c #B9CB6F",
"$	c #9FBB60",
"%	c #A0AA81",
"&	c #B9CD6D",
"*	c #BED26F",
"=	c #AEBE72",
"-	c #BFD36F",
";	c #BFD370",
">	c #A3C162",
",	c #BBCF6D",
"'	c #B4C76C",
")	c #9AB660",
"!	c #42C2B4",
"~	c #98E9EB",
"{	c #BFF7FD",
"]	c #C2F7FF",
"^	c #49C6B7",
"/	c #45C6B8",
"(	c #49C9BA",
"_	c #32BCAF",
":	c #56D0C5",
"<	c #88E7E1",
"[	c #8CE7E0",
"}	c #7BDFD9",
"|	c #249A8D",
"1	c #2CBDAF",
"2	c #31C2B4",
"3	c #32C2B4",
"4	c #28AF9E",
"5	c #2FB8AA",
"6	c #28B3A2",
"7	c #2EC3B5",
"8	c #2EC4B6",
"9	c #30BCAE",
"0	c #28B2A1",
"a	c #E8EEAA",
"b	c #2DC3B5",
"c	c #2BC1B1",
"d	c #2FBAAD",
"e	c #29C0AF",
"f	c #2CC2B3",
"g	c #2CC3B4",
"h	c #2CC3B5",
"                                ",
"                                ",
"                                ",
"            .            . .    ",
"           .              .     ",
"           .                    ",
"    .                           ",
"     .                          ",
"     .    + @@@@@@@@ #          ",
"         $ @%%%%%%%%@ &         ",
"        * @=-;;;;;;>=@ *        ",
"        , @'@@@@@@@@)@ ,        ",
"        ,@@@!!!!!!!!@@@,        ",
"        ,@@!~~~{~~]~^!@,        ",
"        ,@@/~~]]~]]~(!@,        ",
"        * @_:]]<[]}:_@ *        ",
"         *@|12333321|@*         ",
"         -@4||||||||5@-         ",
"         -@6777777789@-         ",
"         -@0888888889@-    a a  ",
"         -@0b88888889@-     a   ",
"       a -@0c8888888d@-         ",
"      a    @@efgggh@@           ",
"   a  a   -  @@@@@@  -          ",
"    a a                         ",
"    a     a                     ",
"    a      a        a a         ",
"           a         a          ",
"           a                    ",
"                                ",
"                                ",
"                                "};
