/* XPM */
static char * enemy_back_grass_xpm[] = {
"32 32 6 1",
" 	c #C0D470",
".	c #A4C263",
"+	c #90625D",
"@	c #F3E5C2",
"#	c #DCB98A",
"$	c #E8EEAA",
"                                ",
"                                ",
"                                ",
"            .            . .    ",
"           .              .     ",
"           .                    ",
"    .       .                   ",
"     .                          ",
"     .       ++  ++             ",
"           .+@+  +@+            ",
"         ++ +@++++@+ ++         ",
"        +@@++#####@@+@@+        ",
"        +@#####@@@##@@@+        ",
"         +@@#@@@@@@##@+         ",
"          ++++++++++++          ",
"         +####@@@@@@@@+         ",
"         +###@@@@@##@@+         ",
"         +##@@+@+@##@@+         ",
"         +@@@@+@+@@#@@+         ",
"         +@@@@+#+@@@@@+    $ $  ",
"         +@@###+###@@@+     $   ",
"       $ +###@@@@@##@@+         ",
"      $  +##+++++++###+         ",
"   $  $  +##+ @ @ +###+         ",
"    $ $  +##+     +###+         ",
"    $    +++       ++++         ",
"    $      $        $ $         ",
"           $         $          ",
"           $                    ",
"                                ",
"                                ",
"                                "};
