/* XPM */
static char * enemy_left_grass_xpm[] = {
"32 32 11 1",
" 	c #C0D470",
".	c #A4C263",
"+	c #90625D",
"@	c #F3E5C2",
"#	c #DCB98A",
"$	c #E8B5AC",
"%	c #754C60",
"&	c #D99A9A",
"*	c #E8EEAA",
"=	c #B7C973",
"-	c #DDE2A6",
"                                ",
"                                ",
"                                ",
"    . .            .            ",
"     .              .           ",
"                    .           ",
"                           .    ",
"                          .     ",
"                     .    .     ",
"        ++  ++        .         ",
"       +@+. +@+       .         ",
"   ++  +@++++@+ ++              ",
"  +@@++@@#####++@@+             ",
"  +@@+@@@#####@@@@+++++         ",
"  +$$+@%@@#%###@$$+@###++       ",
"   ++@@%@@@%###+++@@#####+      ",
"    +@@@@@@@@@@@@@@@@####+      ",
"    +$$$$$$@@@@@@@@@@@@##++     ",
"    +$&$$&$$@@+@@##@@@@@@+#+    ",
"  * +$$$$$$$@+@@####@@@@@++#+   ",
"   * ++++++++@@@@##@@@@@@+ ++   ",
"          +###@@@@@@@####+      ",
"          +##############+      ",
"        ==+##+++##++++##+-= *   ",
"       ===+##+=+##+==+##+-=-    ",
"       ====++===++===-++===-    ",
"         * *        *      *    ",
"          *         *           ",
"                    *           ",
"                                ",
"                                ",
"                                "};
