/* XPM */
static char * exit_end_game_xpm[] = {
"32 32 229 2",
"  	c #C0D470",
". 	c #BED16F",
"+ 	c #BDCE6F",
"@ 	c #B9C16E",
"# 	c #B7BB6D",
"$ 	c #B0916E",
"% 	c #AE876F",
"& 	c #C0D370",
"* 	c #BECE6F",
"= 	c #BDCB6F",
"- 	c #B3AF6C",
"; 	c #AA9669",
"> 	c #C2A57A",
", 	c #CAAA80",
"' 	c #D1B483",
") 	c #D1B683",
"! 	c #BFD270",
"~ 	c #BAC96D",
"{ 	c #BAC56E",
"] 	c #B9BB70",
"^ 	c #B7AA71",
"/ 	c #B48E72",
"( 	c #C6A77D",
"_ 	c #D2B584",
": 	c #C5B47D",
"< 	c #BDB179",
"[ 	c #9FB566",
"} 	c #8FB05E",
"| 	c #A3B564",
"1 	c #A4C163",
"2 	c #B8C06D",
"3 	c #B09A6E",
"4 	c #B99E73",
"5 	c #CBAA80",
"6 	c #CBAF80",
"7 	c #CCB681",
"8 	c #B0AF72",
"9 	c #A0B168",
"0 	c #9CB863",
"a 	c #83A95A",
"b 	c #ADC768",
"c 	c #A2C063",
"d 	c #966960",
"e 	c #AA946B",
"f 	c #A99468",
"g 	c #D3B383",
"h 	c #C6B37E",
"i 	c #B9B276",
"j 	c #AEB76F",
"k 	c #8CB15D",
"l 	c #88AD5C",
"m 	c #ADC668",
"n 	c #A8C466",
"o 	c #86AB5B",
"p 	c #A5C265",
"q 	c #9BBB61",
"r 	c #BED06F",
"s 	c #9E9F62",
"t 	c #AB9E6A",
"u 	c #92AB62",
"v 	c #8FB25E",
"w 	c #A6C265",
"x 	c #8DB05D",
"y 	c #A7C266",
"z 	c #A6C365",
"A 	c #ABC667",
"B 	c #A0BF62",
"C 	c #C72525",
"D 	c #ADAA68",
"E 	c #BCCF6F",
"F 	c #91A160",
"G 	c #92B25F",
"H 	c #95B560",
"I 	c #B0C869",
"J 	c #A5C164",
"K 	c #ABC568",
"L 	c #A7C465",
"M 	c #A7C466",
"N 	c #9CBD61",
"O 	c #BED26F",
"P 	c #97B561",
"Q 	c #94B560",
"R 	c #A9C567",
"S 	c #A6BE63",
"T 	c #89A459",
"U 	c #B2B16B",
"V 	c #B1AD6A",
"W 	c #BDD16F",
"X 	c #AAC069",
"Y 	c #B0C969",
"Z 	c #A4C264",
"` 	c #95A65B",
" .	c #ADAC61",
"..	c #C0B67A",
"+.	c #BEB081",
"@.	c #D8C19E",
"#.	c #DDC4A3",
"$.	c #BDD26F",
"%.	c #AAC16A",
"&.	c #93B05F",
"*.	c #97AD5D",
"=.	c #B2B569",
"-.	c #B3A56B",
";.	c #C5B286",
">.	c #D7C097",
",.	c #E3CDA7",
"'.	c #E8D2AD",
").	c #E6CCA2",
"!.	c #E6CBA0",
"~.	c #BDCE6E",
"{.	c #A9A060",
"].	c #ACA16A",
"^.	c #C9B788",
"/.	c #D7C399",
"(.	c #E4CDAB",
"_.	c #E5CCA6",
":.	c #E3C69C",
"<.	c #E2C499",
"[.	c #C19D7B",
"}.	c #BA9475",
"|.	c #BFD06F",
"1.	c #BCB070",
"2.	c #DDC69E",
"3.	c #E0CAA3",
"4.	c #E9D5B0",
"5.	c #E6CEA6",
"6.	c #E3C599",
"7.	c #D9B98F",
"8.	c #D2B087",
"9.	c #A67D69",
"0.	c #986D62",
"a.	c #B29E6E",
"b.	c #E3C89E",
"c.	c #E2C69C",
"d.	c #DFBF93",
"e.	c #CEAC86",
"f.	c #B38C71",
"g.	c #A77F6A",
"h.	c #5C4E92",
"i.	c #91625D",
"j.	c #91635D",
"k.	c #BECF6F",
"l.	c #AFA76B",
"m.	c #CEAC83",
"n.	c #C4A07C",
"o.	c #A97F67",
"p.	c #AE8365",
"q.	c #B18460",
"r.	c #F3F2C0",
"s.	c #AE805E",
"t.	c #BDCD6F",
"u.	c #B1B36C",
"v.	c #A18566",
"w.	c #BF9469",
"x.	c #C0966A",
"y.	c #C1966A",
"z.	c #9F8465",
"A.	c #B0B36C",
"B.	c #B6C56D",
"C.	c #998363",
"D.	c #B58860",
"E.	c #B48761",
"F.	c #DDD5DE",
"G.	c #B6C66E",
"H.	c #9E8966",
"I.	c #C3986B",
"J.	c #BF956B",
"K.	c #BB916A",
"L.	c #9D8765",
"M.	c #BA8F68",
"N.	c #9E7564",
"O.	c #80555E",
"P.	c #9E8866",
"Q.	c #B18866",
"R.	c #8E6460",
"S.	c #E8EEAA",
"T.	c #9D8766",
"U.	c #B28865",
"V.	c #A27966",
"W.	c #B48C6E",
"X.	c #9A8464",
"Y.	c #B68962",
"Z.	c #BF966E",
"`.	c #A89074",
" +	c #C69C6D",
".+	c #C59B6C",
"++	c #C59A6C",
"@+	c #BCCE6F",
"#+	c #C1B98B",
"$+	c #A88668",
"%+	c #A67F66",
"&+	c #A77E66",
"*+	c #A88568",
"=+	c #766DAA",
"-+	c #A9A86A",
";+	c #E0E5A6",
">+	c #999B6A",
",+	c #967764",
"'+	c #9A7264",
")+	c #BACC70",
"!+	c #BED271",
"~+	c #A9B56F",
"{+	c #A78A68",
"]+	c #AD8567",
"^+	c #A8B46F",
"/+	c #A78B68",
"(+	c #AE8668",
"_+	c #A7A96C",
":+	c #B0BE6E",
"<+	c #A68F69",
"[+	c #A88467",
"}+	c #A9AE6D",
"|+	c #DEE3A7",
"1+	c #B8CA73",
"2+	c #C4C193",
"3+	c #BDD170",
"4+	c #B5C06E",
"5+	c #B2BA6D",
"6+	c #B9CA70",
"7+	c #E4EAA9",
"8+	c #BCCF72",
"9+	c #BDD071",
"0+	c #BFD370",
"a+	c #BFD371",
"b+	c #A49C67",
"c+	c #BB9468",
"d+	c #B3BE6E",
"e+	c #A58564",
"f+	c #A37761",
"                                                                ",
"                    . + @ # $ % % $ # @ + .                     ",
"            & . * = - ; > , ' ) ) ' , > ; - = * . &             ",
"        ! ~ { ] ^ / ( _ : < [ } } [ < : _ ( / ^ ] | ~ 1         ",
"      ! 2 3 4 5 6 7 8 9 0 a b c c b a 0 9 8 7 6 d 4 e 2 !       ",
"      + f g h i j k l m n o p q q p o n m l k j d d g f +       ",
"      r s t u v b w x y z o A B B A o z y x w b d C C D r       ",
"        E F G H I J x K L o M N N M o L K x J I d C C C         ",
"        O P G Q I J x R S T U V V U T S R x J I d C C C C       ",
"        W X G Q Y Z `  ...+.@.#.#.@.+... .` Z Y d G C C C C     ",
"        $.%.&.*.=.-.;.>.,.'.).!.!.).'.,.>.;.-.=.d &.%.$.        ",
"        ~.{.].^./.(._.).:.<.[.}.}.[.<.:.)._.(./.d ].{.~.        ",
"      |.1.2.3.4.5.6.7.8./ 9.0.d d 0.9./ 8.7.6.5.d 3.2.1.|.      ",
"      + a.b.c.d.e.f.g.h.h.h.i.j.j.i.h.h.h.g.f.e.d.c.b.a.+       ",
"      k.l.m.n.o.p.q.h.r.r.r.h.s.s.h.r.r.r.h.q.p.o.n.m.l.k.      ",
"        t.u.v.w.x.y.h.r.r.r.h.h.h.h.r.r.r.h.y.x.w.z.A.t.        ",
"          B.C.D.E.E.h.r.r.r.F.F.F.F.r.r.r.h.E.E.D.C.B.          ",
"          G.H.I.J.K.h.r.r.r.r.r.r.r.r.r.r.h.K.J.I.H.G.          ",
"          G.L.M.N.O.h.r.r.r.r.r.r.r.r.r.r.h.O.N.M.L.G.          ",
"          G.P.Q.R.h.h.r.r.r.r.r.r.r.r.r.r.h.h.R.Q.P.G.S.  S.    ",
"          G.T.U.V.W.h.r.r.r.r.r.r.r.r.r.r.h.W.V.U.T.G.  S.      ",
"          G.X.Y.Z.h.h.r.r.r.r.r.r.r.r.r.r.h.h.Z.Y.X.G.          ",
"          G.`. +.+++h.r.r.r.r.r.r.r.r.r.r.h.++.+ +P.G.          ",
"      S.  @+#+$+%+&+*+h.h.=+=+=+=+=+=+h.h.*+&+%+$+-+@+          ",
"        S.  ;+>+,+'+h.F.r.=+=+h.h.=+=+r.F.h.'+,+>+)+            ",
"        S.  !+~+{+]+h.F.r.r.h.r.r.h.r.r.F.h.]+{+~+!+            ",
"        S.  !+^+/+(+_+h.h.r.r.r.r.r.r.h.h._+(+/+^+!+            ",
"              :+<+[+}+|+h.F.F.h.h.F.F.h.1+2+[+<+:+              ",
"              3+4+5+6+7+8+h.h.,.,.h.h.8+9+6+5+4+3+              ",
"                0+! 0+  a+b+c+,.,.c+b+a+  0+! 0+                ",
"                          d+e+f+f+e+d+                          ",
"                                                                "};
