/* XPM */
static char * exit_closed_xpm[] = {
"32 32 263 2",
"  	c #C0D470",
". 	c #BED16F",
"+ 	c #BDCE6F",
"@ 	c #B9C16E",
"# 	c #B7BB6D",
"$ 	c #B0916E",
"% 	c #AE876F",
"& 	c #C0D370",
"* 	c #BECE6F",
"= 	c #BDCB6F",
"- 	c #B3AF6C",
"; 	c #AA9669",
"> 	c #C2A57A",
", 	c #CAAA80",
"' 	c #D1B483",
") 	c #D1B683",
"! 	c #BFD270",
"~ 	c #BAC96D",
"{ 	c #BAC56E",
"] 	c #B9BB70",
"^ 	c #B7AA71",
"/ 	c #B48E72",
"( 	c #C6A77D",
"_ 	c #D2B584",
": 	c #C5B47D",
"< 	c #BDB179",
"[ 	c #9FB566",
"} 	c #8FB05E",
"| 	c #A3B564",
"1 	c #A4C163",
"2 	c #B8C06D",
"3 	c #B09A6E",
"4 	c #B99E73",
"5 	c #CBAA80",
"6 	c #CBAF80",
"7 	c #CCB681",
"8 	c #B0AF72",
"9 	c #A0B168",
"0 	c #9CB863",
"a 	c #83A95A",
"b 	c #ADC768",
"c 	c #A2C063",
"d 	c #AA946B",
"e 	c #A99468",
"f 	c #D3B383",
"g 	c #C6B37E",
"h 	c #B9B276",
"i 	c #AEB76F",
"j 	c #8CB15D",
"k 	c #88AD5C",
"l 	c #ADC668",
"m 	c #A8C466",
"n 	c #86AB5B",
"o 	c #A5C265",
"p 	c #9BBB61",
"q 	c #BED06F",
"r 	c #9E9F62",
"s 	c #AB9E6A",
"t 	c #92AB62",
"u 	c #8FB25E",
"v 	c #A6C265",
"w 	c #8DB05D",
"x 	c #A7C266",
"y 	c #A6C365",
"z 	c #ABC667",
"A 	c #A0BF62",
"B 	c #ADAA68",
"C 	c #BCCF6F",
"D 	c #91A160",
"E 	c #92B25F",
"F 	c #95B560",
"G 	c #B0C869",
"H 	c #A5C164",
"I 	c #ABC568",
"J 	c #A7C465",
"K 	c #A7C466",
"L 	c #9CBD61",
"M 	c #9DA965",
"N 	c #BED26F",
"O 	c #97B561",
"P 	c #94B560",
"Q 	c #A9C567",
"R 	c #A6BE63",
"S 	c #89A459",
"T 	c #B2B16B",
"U 	c #B1AD6A",
"V 	c #AAC16A",
"W 	c #BDD16F",
"X 	c #AAC069",
"Y 	c #B0C969",
"Z 	c #A4C264",
"` 	c #95A65B",
" .	c #ADAC61",
"..	c #C0B67A",
"+.	c #BEB081",
"@.	c #D8C19E",
"#.	c #DDC4A3",
"$.	c #BDD26F",
"%.	c #93B05F",
"&.	c #97AD5D",
"*.	c #B2B569",
"=.	c #B3A56B",
"-.	c #C5B286",
";.	c #D7C097",
">.	c #E3CDA7",
",.	c #E8D2AD",
"'.	c #E6CCA2",
").	c #E6CBA0",
"!.	c #BDCE6E",
"~.	c #A9A060",
"{.	c #ACA16A",
"].	c #C9B788",
"^.	c #D7C399",
"/.	c #E4CDAB",
"(.	c #E5CCA6",
"_.	c #E3C69C",
":.	c #E2C499",
"<.	c #C19D7B",
"[.	c #BA9475",
"}.	c #BFD06F",
"|.	c #BCB070",
"1.	c #DDC69E",
"2.	c #E0CAA3",
"3.	c #E9D5B0",
"4.	c #E6CEA6",
"5.	c #E3C599",
"6.	c #D9B98F",
"7.	c #D2B087",
"8.	c #A67D69",
"9.	c #986D62",
"0.	c #966960",
"a.	c #B29E6E",
"b.	c #E3C89E",
"c.	c #E2C69C",
"d.	c #DFBF93",
"e.	c #CEAC86",
"f.	c #B38C71",
"g.	c #A77F6A",
"h.	c #9D7364",
"i.	c #94675F",
"j.	c #90625D",
"k.	c #91625D",
"l.	c #91635D",
"m.	c #BECF6F",
"n.	c #AFA76B",
"o.	c #CEAC83",
"p.	c #C4A07C",
"q.	c #A97F67",
"r.	c #AE8365",
"s.	c #B18460",
"t.	c #AF815F",
"u.	c #AD805E",
"v.	c #AE805E",
"w.	c #BDCD6F",
"x.	c #B1B36C",
"y.	c #A18566",
"z.	c #BF9469",
"A.	c #C0966A",
"B.	c #C1966A",
"C.	c #9F8465",
"D.	c #B0B36C",
"E.	c #B6C56D",
"F.	c #998363",
"G.	c #B58860",
"H.	c #B48761",
"I.	c #B6C66E",
"J.	c #9E8966",
"K.	c #C3986B",
"L.	c #BF956B",
"M.	c #BB916A",
"N.	c #C2986B",
"O.	c #C1976B",
"P.	c #9D8765",
"Q.	c #BA8F68",
"R.	c #9E7564",
"S.	c #80555E",
"T.	c #BA8F67",
"U.	c #BE9267",
"V.	c #B98D66",
"W.	c #AE8567",
"X.	c #AC8467",
"Y.	c #9E8866",
"Z.	c #B18866",
"`.	c #8E6460",
" +	c #93665D",
".+	c #B08766",
"++	c #BE9268",
"@+	c #9D7262",
"#+	c #8C5F5E",
"$+	c #8B5E5E",
"%+	c #E8EEAA",
"&+	c #9D8766",
"*+	c #B28865",
"=+	c #A27966",
"-+	c #B48C6E",
";+	c #B28765",
">+	c #B48A67",
",+	c #926660",
"'+	c #8F615D",
")+	c #9A8464",
"!+	c #B68962",
"~+	c #BF966E",
"{+	c #D2AC7D",
"]+	c #B58962",
"^+	c #AE8363",
"/+	c #91645F",
"(+	c #A89074",
"_+	c #C69C6D",
":+	c #C59B6C",
"<+	c #C59A6C",
"[+	c #C69C6C",
"}+	c #B9916A",
"|+	c #936861",
"1+	c #96675C",
"2+	c #98695B",
"3+	c #BCCE6F",
"4+	c #C1B98B",
"5+	c #A88668",
"6+	c #A67F66",
"7+	c #A77E66",
"8+	c #A88568",
"9+	c #AA8B69",
"0+	c #A28567",
"a+	c #977060",
"b+	c #B08462",
"c+	c #B38762",
"d+	c #A9A86A",
"e+	c #E0E5A6",
"f+	c #999B6A",
"g+	c #967764",
"h+	c #9A7264",
"i+	c #989268",
"j+	c #A5AF6D",
"k+	c #BACC70",
"l+	c #BED271",
"m+	c #A9B56F",
"n+	c #A78A68",
"o+	c #AD8567",
"p+	c #C1BC8F",
"q+	c #B8CC73",
"r+	c #B8CB73",
"s+	c #A7A96D",
"t+	c #A8B46F",
"u+	c #A78B68",
"v+	c #AE8668",
"w+	c #A7A96C",
"x+	c #DEE3A7",
"y+	c #B7CA73",
"z+	c #B0BE6E",
"A+	c #A68F69",
"B+	c #A88467",
"C+	c #A9AE6D",
"D+	c #B8CA73",
"E+	c #C4C193",
"F+	c #BDD170",
"G+	c #B5C06E",
"H+	c #B2BA6D",
"I+	c #B9CA70",
"J+	c #E4EAA9",
"K+	c #BCCF72",
"L+	c #BDD071",
"M+	c #BFD370",
"N+	c #BFD371",
"                                                                ",
"                    . + @ # $ % % $ # @ + .                     ",
"            & . * = - ; > , ' ) ) ' , > ; - = * . &             ",
"        ! ~ { ] ^ / ( _ : < [ } } [ < : _ ( / ^ ] | ~ 1         ",
"      ! 2 3 4 5 6 7 8 9 0 a b c c b a 0 9 8 7 6 5 4 d 2 !       ",
"      + e f g h i j k l m n o p p o n m l k j i h g f e +       ",
"      q r s t u b v w x y n z A A z n y x w v b u t s B q       ",
"        C D E F G H w I J n K L L K n J I w H G F E M C         ",
"        N O E P G H w Q R S T U U T S R Q w H G P E V N         ",
"        W X E P Y Z `  ...+.@.#.#.@.+... .` Z Y P E X W         ",
"        $.V %.&.*.=.-.;.>.,.'.).).'.,.>.;.-.=.*.&.%.V $.        ",
"        !.~.{.].^./.(.'._.:.<.[.[.<.:._.'.(./.^.].{.~.!.        ",
"      }.|.1.2.3.4.5.6.7./ 8.9.0.0.9.8./ 7.6.5.4.3.2.1.|.}.      ",
"      + a.b.c.d.e.f.g.h.i.j.k.l.l.k.j.i.h.g.f.e.d.c.b.a.+       ",
"      m.n.o.p.q.r.s.t.u.v.v.v.v.v.v.v.v.u.t.s.r.q.p.o.n.m.      ",
"        w.x.y.z.A.B.B.B.B.B.B.B.B.B.B.B.B.B.B.A.z.C.D.w.        ",
"          E.F.G.H.H.H.H.H.H.H.H.H.H.H.H.H.H.H.H.G.F.E.          ",
"          I.J.K.L.M.L.N.N.N.O.O.O.O.N.N.N.L.M.L.K.J.I.          ",
"          I.P.Q.R.S.R.T.U.V.W.X.X.W.V.U.T.R.S.R.Q.P.I.          ",
"          I.Y.Z.`. +`..+++@+#+$+$+#+@+++.+`. +`.Z.Y.I.%+  %+    ",
"          I.&+*+=+-+=+;+>+,+'+j.j.'+,+>+;+=+-+=+*+&+I.  %+      ",
"          I.)+!+~+{+~+]+^+/+'+j.j.'+/+^+]+~+{+~+!+)+I.          ",
"          I.(+_+:+<+:+[+}+|+1+2+2+1+|+}+[+:+<+:+_+Y.I.          ",
"      %+  3+4+5+6+7+8+9+0+a+b+c+c+b+a+0+9+8+7+6+5+d+3+          ",
"        %+  e+f+g+h+i+j+j+            j+j+i+h+g+f+k+            ",
"        %+  l+m+n+o+p+q+r+            r+q+s+o+n+m+l+            ",
"        %+  l+t+u+v+w+x+y+            y+x+w+v+u+t+l+            ",
"              z+A+B+C+x+y+            y+D+E+B+A+z+              ",
"              F+G+H+I+J+K+            K+L+I+H+G+F+              ",
"                M+! M+  N+            N+  M+! M+                ",
"                                                                ",
"                                                                "};
