/* XPM */
static char * exit_locked_fire_xpm[] = {
"32 32 247 2",
"  	c #C0D470",
". 	c #BED16F",
"+ 	c #BDCE6F",
"@ 	c #B9C16E",
"# 	c #B7BB6D",
"$ 	c #B0916E",
"% 	c #AE876F",
"& 	c #C0D370",
"* 	c #BECE6F",
"= 	c #BDCB6F",
"- 	c #B3AF6C",
"; 	c #AA9669",
"> 	c #C2A57A",
", 	c #CAAA80",
"' 	c #D1B483",
") 	c #D1B683",
"! 	c #BFD270",
"~ 	c #BAC96D",
"{ 	c #BAC56E",
"] 	c #B9BB70",
"^ 	c #B7AA71",
"/ 	c #B48E72",
"( 	c #C6A77D",
"_ 	c #D2B584",
": 	c #C5B47D",
"< 	c #BDB179",
"[ 	c #9FB566",
"} 	c #8FB05E",
"| 	c #A3B564",
"1 	c #A4C163",
"2 	c #B8C06D",
"3 	c #B09A6E",
"4 	c #B99E73",
"5 	c #CBAA80",
"6 	c #CBAF80",
"7 	c #CCB681",
"8 	c #B0AF72",
"9 	c #A0B168",
"0 	c #9CB863",
"a 	c #83A95A",
"b 	c #ADC768",
"c 	c #A2C063",
"d 	c #AA946B",
"e 	c #A99468",
"f 	c #D3B383",
"g 	c #C6B37E",
"h 	c #B9B276",
"i 	c #AEB76F",
"j 	c #8CB15D",
"k 	c #88AD5C",
"l 	c #ADC668",
"m 	c #A8C466",
"n 	c #86AB5B",
"o 	c #A5C265",
"p 	c #9BBB61",
"q 	c #BED06F",
"r 	c #9E9F62",
"s 	c #AB9E6A",
"t 	c #92AB62",
"u 	c #8FB25E",
"v 	c #A6C265",
"w 	c #8DB05D",
"x 	c #A7C266",
"y 	c #A6C365",
"z 	c #ABC667",
"A 	c #A0BF62",
"B 	c #ADAA68",
"C 	c #BCCF6F",
"D 	c #91A160",
"E 	c #92B25F",
"F 	c #95B560",
"G 	c #B0C869",
"H 	c #A5C164",
"I 	c #ABC568",
"J 	c #A7C465",
"K 	c #A7C466",
"L 	c #9CBD61",
"M 	c #9DA965",
"N 	c #BED26F",
"O 	c #97B561",
"P 	c #94B560",
"Q 	c #A9C567",
"R 	c #A6BE63",
"S 	c #89A459",
"T 	c #B2B16B",
"U 	c #B1AD6A",
"V 	c #AAC16A",
"W 	c #BDD16F",
"X 	c #AAC069",
"Y 	c #B0C969",
"Z 	c #A4C264",
"` 	c #95A65B",
" .	c #ADAC61",
"..	c #C0B67A",
"+.	c #BEB081",
"@.	c #D8C19E",
"#.	c #DDC4A3",
"$.	c #BDD26F",
"%.	c #93B05F",
"&.	c #97AD5D",
"*.	c #B2B569",
"=.	c #B3A56B",
"-.	c #C5B286",
";.	c #D7C097",
">.	c #E3CDA7",
",.	c #E8D2AD",
"'.	c #E6CCA2",
").	c #E6CBA0",
"!.	c #BDCE6E",
"~.	c #A9A060",
"{.	c #ACA16A",
"].	c #C9B788",
"^.	c #D7C399",
"/.	c #E4CDAB",
"(.	c #E5CCA6",
"_.	c #E3C69C",
":.	c #E2C499",
"<.	c #C19D7B",
"[.	c #BA9475",
"}.	c #9E2222",
"|.	c #BFD06F",
"1.	c #BCB070",
"2.	c #DDC69E",
"3.	c #E0CAA3",
"4.	c #E9D5B0",
"5.	c #E6CEA6",
"6.	c #E3C599",
"7.	c #D9B98F",
"8.	c #D2B087",
"9.	c #A67D69",
"0.	c #986D62",
"a.	c #966960",
"b.	c #B29E6E",
"c.	c #E3C89E",
"d.	c #E2C69C",
"e.	c #DFBF93",
"f.	c #CEAC86",
"g.	c #B38C71",
"h.	c #A77F6A",
"i.	c #9D7364",
"j.	c #90625D",
"k.	c #91625D",
"l.	c #91635D",
"m.	c #D71C19",
"n.	c #94675F",
"o.	c #BECF6F",
"p.	c #AFA76B",
"q.	c #CEAC83",
"r.	c #C4A07C",
"s.	c #A97F67",
"t.	c #AE8365",
"u.	c #B18460",
"v.	c #AF815F",
"w.	c #AD805E",
"x.	c #AE805E",
"y.	c #BDCD6F",
"z.	c #B1B36C",
"A.	c #A18566",
"B.	c #BF9469",
"C.	c #C0966A",
"D.	c #C1966A",
"E.	c #9F8465",
"F.	c #B0B36C",
"G.	c #B6C56D",
"H.	c #998363",
"I.	c #B58860",
"J.	c #B48761",
"K.	c #E6781B",
"L.	c #B6C66E",
"M.	c #9E8966",
"N.	c #C3986B",
"O.	c #BF956B",
"P.	c #BB916A",
"Q.	c #C2986B",
"R.	c #9D8765",
"S.	c #BA8F68",
"T.	c #9E7564",
"U.	c #80555E",
"V.	c #BA8F67",
"W.	c #ECD61C",
"X.	c #9E8866",
"Y.	c #B18866",
"Z.	c #8E6460",
"`.	c #93665D",
" +	c #B08766",
".+	c #E8EEAA",
"++	c #9D8766",
"@+	c #B28865",
"#+	c #A27966",
"$+	c #B48C6E",
"%+	c #9A8464",
"&+	c #B68962",
"*+	c #BF966E",
"=+	c #D2AC7D",
"-+	c #B58962",
";+	c #A89074",
">+	c #C69C6D",
",+	c #C59B6C",
"'+	c #C59A6C",
")+	c #B9916A",
"!+	c #C69C6C",
"~+	c #BCCE6F",
"{+	c #C1B98B",
"]+	c #A88668",
"^+	c #A67F66",
"/+	c #A77E66",
"(+	c #A88568",
"_+	c #AA8B69",
":+	c #A28567",
"<+	c #977060",
"[+	c #A9A86A",
"}+	c #E0E5A6",
"|+	c #999B6A",
"1+	c #967764",
"2+	c #9A7264",
"3+	c #989268",
"4+	c #A5AF6D",
"5+	c #BACC70",
"6+	c #BED271",
"7+	c #A9B56F",
"8+	c #A78A68",
"9+	c #AD8567",
"0+	c #C1BC8F",
"a+	c #B8CC73",
"b+	c #B8CB73",
"c+	c #A7A96D",
"d+	c #A8B46F",
"e+	c #A78B68",
"f+	c #AE8668",
"g+	c #A7A96C",
"h+	c #DEE3A7",
"i+	c #B7CA73",
"j+	c #B0BE6E",
"k+	c #A68F69",
"l+	c #A88467",
"m+	c #A9AE6D",
"n+	c #B8CA73",
"o+	c #C4C193",
"p+	c #BDD170",
"q+	c #B5C06E",
"r+	c #B2BA6D",
"s+	c #B9CA70",
"t+	c #E4EAA9",
"u+	c #BCCF72",
"v+	c #BDD071",
"w+	c #BFD370",
"x+	c #BFD371",
"                                                                ",
"                    . + @ # $ % % $ # @ + .                     ",
"            & . * = - ; > , ' ) ) ' , > ; - = * . &             ",
"        ! ~ { ] ^ / ( _ : < [ } } [ < : _ ( / ^ ] | ~ 1         ",
"      ! 2 3 4 5 6 7 8 9 0 a b c c b a 0 9 8 7 6 5 4 d 2 !       ",
"      + e f g h i j k l m n o p p o n m l k j i h g f e +       ",
"      q r s t u b v w x y n z A A z n y x w v b u t s B q       ",
"        C D E F G H w I J n K L L K n J I w H G F E M C         ",
"        N O E P G H w Q R S T U U T S R Q w H G P E V N         ",
"        W X E P Y Z `  ...+.@.#.#.@.+... .` Z Y P E X W         ",
"        $.V %.&.*.=.-.;.>.,.'.).).'.,.>.;.-.=.*.&.%.V $.        ",
"        !.~.{.].^./.(.'._.:.<.[.}.<.:._.'.(./.^.].{.~.!.        ",
"      |.1.2.3.4.5.6.7.8./ 9.0.a.}.}.9./ 8.7.6.5.4.3.2.1.|.      ",
"      + b.c.d.e.f.g.h.i.}.j.k.l.}.m.}.n.i.h.g.f.e.d.c.b.+       ",
"      o.p.q.r.s.t.u.v.w.}.}.x.x.}.m.}.}.w.v.u.t.s.r.q.p.o.      ",
"        y.z.A.B.C.D.D.D.}.}.D.}.}.m.m.}.}.D.D.C.B.E.F.y.        ",
"          G.H.I.J.J.J.J.J.}.}.}.m.K.m.m.}.J.J.J.I.H.G.          ",
"          L.M.N.O.P.O.Q.}.m.m.m.K.K.K.K.m.}.P.O.N.M.L.          ",
"          L.R.S.T.U.T.V.}.m.K.W.K.W.K.K.m.}.U.T.S.R.L.          ",
"          L.X.Y.Z.`.Z. +}.m.K.W.W.W.K.m.m.}.`.Z.Y.X.L..+  .+    ",
"          L.++@+#+$+#+}.m.K.W.W.W.K.m.}.}.#+$+#+@+++L.  .+      ",
"          L.%+&+*+=+*+}.m.K.W.W.W.m.}.}.-+*+=+*+&+%+L.          ",
"          L.;+>+,+'+,+}.}.}.W.W.W.}.}.)+!+,+'+,+>+X.L.          ",
"      .+  ~+{+]+^+/+(+_+:+}.}.}.}.}.<+:+_+(+/+^+]+[+~+          ",
"        .+  }+|+1+2+3+4+4+            4+4+3+2+1+|+5+            ",
"        .+  6+7+8+9+0+a+b+            b+a+c+9+8+7+6+            ",
"        .+  6+d+e+f+g+h+i+            i+h+g+f+e+d+6+            ",
"              j+k+l+m+h+i+            i+n+o+l+k+j+              ",
"              p+q+r+s+t+u+            u+v+s+r+q+p+              ",
"                w+! w+  x+            x+  w+! w+                ",
"                                                                ",
"                                                                "};
