/* XPM */
static char * exit_unlocked_fire2_xpm[] = {
"32 32 226 2",
"  	c #C0D470",
". 	c #693916",
"+ 	c #BED16F",
"@ 	c #BDCE6F",
"# 	c #B9C16E",
"$ 	c #B7BB6D",
"% 	c #B0916E",
"& 	c #AE876F",
"* 	c #50CE40",
"= 	c #C0D370",
"- 	c #BECE6F",
"; 	c #BDCB6F",
"> 	c #B3AF6C",
", 	c #AA9669",
"' 	c #C2A57A",
") 	c #CAAA80",
"! 	c #D1B483",
"~ 	c #D1B683",
"{ 	c #16691D",
"] 	c #BFD270",
"^ 	c #BAC96D",
"/ 	c #BAC56E",
"( 	c #B9BB70",
"_ 	c #B7AA71",
": 	c #B48E72",
"< 	c #C6A77D",
"[ 	c #D2B584",
"} 	c #C5B47D",
"| 	c #BDB179",
"1 	c #9FB566",
"2 	c #8FB05E",
"3 	c #B8C06D",
"4 	c #B09A6E",
"5 	c #B99E73",
"6 	c #CBAA80",
"7 	c #CBAF80",
"8 	c #CCB681",
"9 	c #B0AF72",
"0 	c #A0B168",
"a 	c #9CB863",
"b 	c #83A95A",
"c 	c #ADC768",
"d 	c #A2C063",
"e 	c #A99468",
"f 	c #D3B383",
"g 	c #C6B37E",
"h 	c #B9B276",
"i 	c #AEB76F",
"j 	c #8CB15D",
"k 	c #88AD5C",
"l 	c #ADC668",
"m 	c #A8C466",
"n 	c #86AB5B",
"o 	c #A5C265",
"p 	c #9BBB61",
"q 	c #BED06F",
"r 	c #9E9F62",
"s 	c #AB9E6A",
"t 	c #92AB62",
"u 	c #8FB25E",
"v 	c #A6C265",
"w 	c #8DB05D",
"x 	c #9E2222",
"y 	c #A6C365",
"z 	c #ABC667",
"A 	c #A0BF62",
"B 	c #A7C266",
"C 	c #ADAA68",
"D 	c #BCCF6F",
"E 	c #91A160",
"F 	c #92B25F",
"G 	c #95B560",
"H 	c #B0C869",
"I 	c #A5C164",
"J 	c #A7C466",
"K 	c #9CBD61",
"L 	c #A7C465",
"M 	c #ABC568",
"N 	c #9DA965",
"O 	c #BED26F",
"P 	c #97B561",
"Q 	c #94B560",
"R 	c #B1AD6A",
"S 	c #B2B16B",
"T 	c #89A459",
"U 	c #A9C567",
"V 	c #AAC16A",
"W 	c #BDD16F",
"X 	c #AAC069",
"Y 	c #B0C969",
"Z 	c #A4C264",
"` 	c #95A65B",
" .	c #ADAC61",
"..	c #D71C19",
"+.	c #DDC4A3",
"@.	c #D8C19E",
"#.	c #BEB081",
"$.	c #BDD26F",
"%.	c #93B05F",
"&.	c #97AD5D",
"*.	c #B2B569",
"=.	c #B3A56B",
"-.	c #C5B286",
";.	c #E6CCA2",
">.	c #E8D2AD",
",.	c #BDCE6E",
"'.	c #A9A060",
").	c #ACA16A",
"!.	c #C9B788",
"~.	c #D7C399",
"{.	c #E4CDAB",
"].	c #E5CCA6",
"^.	c #BFD06F",
"/.	c #BCB070",
"(.	c #DDC69E",
"_.	c #E0CAA3",
":.	c #E9D5B0",
"<.	c #E6CEA6",
"[.	c #E3C599",
"}.	c #D9B98F",
"|.	c #B29E6E",
"1.	c #E3C89E",
"2.	c #E2C69C",
"3.	c #DFBF93",
"4.	c #CEAC86",
"5.	c #B38C71",
"6.	c #E6781B",
"7.	c #A77F6A",
"8.	c #BECF6F",
"9.	c #AFA76B",
"0.	c #CEAC83",
"a.	c #C4A07C",
"b.	c #A97F67",
"c.	c #AE8365",
"d.	c #ECD61C",
"e.	c #AD805E",
"f.	c #AF815F",
"g.	c #B18460",
"h.	c #BDCD6F",
"i.	c #B1B36C",
"j.	c #A18566",
"k.	c #BF9469",
"l.	c #C0966A",
"m.	c #C1966A",
"n.	c #9F8465",
"o.	c #B0B36C",
"p.	c #B6C56D",
"q.	c #998363",
"r.	c #B58860",
"s.	c #B48761",
"t.	c #B6C66E",
"u.	c #9E8966",
"v.	c #C3986B",
"w.	c #BF956B",
"x.	c #BB916A",
"y.	c #9D8765",
"z.	c #BA8F68",
"A.	c #9E7564",
"B.	c #80555E",
"C.	c #9E8866",
"D.	c #B18866",
"E.	c #8E6460",
"F.	c #93665D",
"G.	c #E8EEAA",
"H.	c #9D8766",
"I.	c #B28865",
"J.	c #A27966",
"K.	c #B48C6E",
"L.	c #B28765",
"M.	c #9A8464",
"N.	c #B68962",
"O.	c #BF966E",
"P.	c #D2AC7D",
"Q.	c #B58962",
"R.	c #A89074",
"S.	c #C69C6D",
"T.	c #C59B6C",
"U.	c #C59A6C",
"V.	c #C69C6C",
"W.	c #B9916A",
"X.	c #F3F4E7",
"Y.	c #BCCE6F",
"Z.	c #C1B98B",
"`.	c #A88668",
" +	c #A67F66",
".+	c #A77E66",
"++	c #A88568",
"@+	c #AA8B69",
"#+	c #A28567",
"$+	c #977060",
"%+	c #6B7470",
"&+	c #E0E5A6",
"*+	c #999B6A",
"=+	c #967764",
"-+	c #9A7264",
";+	c #989268",
">+	c #A5AF6D",
",+	c #9DA89A",
"'+	c #C1C8B9",
")+	c #545959",
"!+	c #BED271",
"~+	c #A9B56F",
"{+	c #A78A68",
"]+	c #AD8567",
"^+	c #C1BC8F",
"/+	c #B8CC73",
"(+	c #B8CB73",
"_+	c #818B83",
":+	c #A8B46F",
"<+	c #A78B68",
"[+	c #AE8668",
"}+	c #A7A96C",
"|+	c #DEE3A7",
"1+	c #B7CA73",
"2+	c #B0BE6E",
"3+	c #A68F69",
"4+	c #A88467",
"5+	c #A9AE6D",
"6+	c #BDD170",
"7+	c #B5C06E",
"8+	c #B2BA6D",
"9+	c #B9CA70",
"0+	c #E4EAA9",
"a+	c #BCCF72",
"b+	c #BFD370",
"c+	c #BFD371",
"                                              .                 ",
"                    + @ # $ % & & % $ # @ +   . .     * * * *   ",
"            = + - ; > , ' ) ! ~ ~ ! ) ' , > . . * * * * * {     ",
"        ] ^ / ( _ : < [ } | 1 2 2 1 | } [ < : . * * * { {       ",
"      ] 3 4 5 6 7 8 9 0 a b c d d c b a 0 9 8 . * { { 3 ]       ",
"      @ e f g h i j k l m n o p p o n m l k j . h g f e @       ",
"      q r s t u c v w x y n z A A z n y B w v . u t s C q       ",
"        D E F G H I w x x n J K K J n L M w I . G F N D         ",
"        O P F Q H I w x x x x x R S T x U w I . Q F V O         ",
"        W X F Q Y Z `  .x ..x +.+.@.#.x  .` Z . Q F X W         ",
"        $.V %.&.*.=.-.x x ..x x x ;.>.x x -.=.. &.%.V $.        ",
"        ,.'.).!.~.{.].x ........x x x x x ].{.~.!.).'.,.        ",
"      ^./.(._.:.<.[.x x ............x x x }.[.<.:._.(./.^.      ",
"      @ |.1.2.3.4.5.x ......6.........x x 7.5.4.3...1.|.@       ",
"      8.9.0.a.b.c.x x ....6.6.6.d.....x e.f.g.c.b.a.0.9.8.      ",
"        h.i.j.k.l.x ......6.6.6.d.....x x m.m.l.k.n.o.h.        ",
"          p.q.r.s.x x ....d.d.d.6.......x s.s.s.r.q.p.          ",
"          t.u.v.w.x.x ....6.d.d.6.6.....x x x.w.v.u.t.          ",
"          t.y.z.A.B.x x ..6.d.d.d.6.......x B.A.z.y.t.          ",
"          t.C.D.E.F.E.x ..6.d.d.d.d.6.6...x F.E.D.C.t.G.  G.    ",
"          t.H.I.J.K.J.L.x 6.d.d.d.d.d.6...x K.J.I.H.t.  G.      ",
"          t.M.N.O.P.O.Q.x 6.d.d.d.d.6...x O.P.O.N.M.t.          ",
"          t.R.S.T.U.T.V.W.x d.d.d.X.X.x V.X.X.X.X.X.t.          ",
"      G.  Y.Z.`. +.+++@+#+$+x x X.%+%+X.X.%+%+%+%+%+X.X.X.      ",
"        G.  &+*+=+-+;+>+>+      X.%+,+%+%+'+)+)+)+'+%+%+%+X.    ",
"        G.  !+~+{+]+^+/+(+      X.%+_+,+%+,+'+'+'+_+%+,+,+%+X.  ",
"        G.  !+:+<+[+}+|+1+        X.)+_+)+,+,+,+,+_+)+)+)+_+)+X.",
"              2+3+4+5+|+1+          X.)+)+,+,+,+,+_+)+X.)+_+)+X.",
"              6+7+8+9+0+a+            X.)+_+,+,+,+_+)+)+)+_+)+X.",
"                b+] b+  c+            X.)+_+_+_+_+_+)+_+_+)+X.  ",
"                                        X.)+)+)+)+)+X.)+)+X.    ",
"                                          X.X.X.X.X.  X.X.      "};
