/* XPM */
static char * player_front_exit_fire1_xpm[] = {
"32 32 216 2",
"  	c #C0D470",
". 	c #BED16F",
"+ 	c #BDCE6F",
"@ 	c #B9C16E",
"# 	c #B7BB6D",
"$ 	c #B0916E",
"% 	c #AE876F",
"& 	c #C0D370",
"* 	c #BECE6F",
"= 	c #BDCB6F",
"- 	c #B3AF6C",
"; 	c #AA9669",
"> 	c #C2A57A",
", 	c #CAAA80",
"' 	c #D1B483",
") 	c #D1B683",
"! 	c #BFD270",
"~ 	c #BAC96D",
"{ 	c #BAC56E",
"] 	c #B9BB70",
"^ 	c #B7AA71",
"/ 	c #B48E72",
"( 	c #C6A77D",
"_ 	c #D2B584",
": 	c #C5B47D",
"< 	c #BDB179",
"[ 	c #9FB566",
"} 	c #8FB05E",
"| 	c #A3B564",
"1 	c #A4C163",
"2 	c #B8C06D",
"3 	c #B09A6E",
"4 	c #B99E73",
"5 	c #CBAA80",
"6 	c #CBAF80",
"7 	c #CCB681",
"8 	c #B0AF72",
"9 	c #A0B168",
"0 	c #9CB863",
"a 	c #83A95A",
"b 	c #ADC768",
"c 	c #A2C063",
"d 	c #AA946B",
"e 	c #A99468",
"f 	c #D3B383",
"g 	c #C6B37E",
"h 	c #B9B276",
"i 	c #AEB76F",
"j 	c #8CB15D",
"k 	c #88AD5C",
"l 	c #ADC668",
"m 	c #A8C466",
"n 	c #86AB5B",
"o 	c #A5C265",
"p 	c #9BBB61",
"q 	c #BED06F",
"r 	c #9E9F62",
"s 	c #AB9E6A",
"t 	c #92AB62",
"u 	c #8FB25E",
"v 	c #A6C265",
"w 	c #8DB05D",
"x 	c #9E2222",
"y 	c #A6C365",
"z 	c #ABC667",
"A 	c #A0BF62",
"B 	c #A7C266",
"C 	c #ADAA68",
"D 	c #BCCF6F",
"E 	c #91A160",
"F 	c #92B25F",
"G 	c #95B560",
"H 	c #B0C869",
"I 	c #A5C164",
"J 	c #A7C466",
"K 	c #9CBD61",
"L 	c #A7C465",
"M 	c #ABC568",
"N 	c #9DA965",
"O 	c #BED26F",
"P 	c #97B561",
"Q 	c #94B560",
"R 	c #B1AD6A",
"S 	c #B2B16B",
"T 	c #89A459",
"U 	c #A9C567",
"V 	c #AAC16A",
"W 	c #BDD16F",
"X 	c #AAC069",
"Y 	c #B0C969",
"Z 	c #A4C264",
"` 	c #95A65B",
" .	c #ADAC61",
"..	c #D71C19",
"+.	c #DDC4A3",
"@.	c #D8C19E",
"#.	c #BEB081",
"$.	c #BDD26F",
"%.	c #93B05F",
"&.	c #97AD5D",
"*.	c #B2B569",
"=.	c #B3A56B",
"-.	c #C5B286",
";.	c #E6CCA2",
">.	c #E8D2AD",
",.	c #BDCE6E",
"'.	c #A9A060",
").	c #ACA16A",
"!.	c #C9B788",
"~.	c #D7C399",
"{.	c #E4CDAB",
"].	c #E5CCA6",
"^.	c #BFD06F",
"/.	c #BCB070",
"(.	c #DDC69E",
"_.	c #E0CAA3",
":.	c #E9D5B0",
"<.	c #E6CEA6",
"[.	c #E3C599",
"}.	c #D9B98F",
"|.	c #B29E6E",
"1.	c #E3C89E",
"2.	c #E2C69C",
"3.	c #DFBF93",
"4.	c #CEAC86",
"5.	c #B38C71",
"6.	c #5C4E92",
"7.	c #BECF6F",
"8.	c #AFA76B",
"9.	c #CEAC83",
"0.	c #C4A07C",
"a.	c #A97F67",
"b.	c #AE8365",
"c.	c #F3F2C0",
"d.	c #ECD61C",
"e.	c #BDCD6F",
"f.	c #B1B36C",
"g.	c #A18566",
"h.	c #BF9469",
"i.	c #C0966A",
"j.	c #E8B5AC",
"k.	c #9F8465",
"l.	c #B0B36C",
"m.	c #B6C56D",
"n.	c #998363",
"o.	c #B58860",
"p.	c #B48761",
"q.	c #DDD5DE",
"r.	c #B6C66E",
"s.	c #9E8966",
"t.	c #C3986B",
"u.	c #BF956B",
"v.	c #BB916A",
"w.	c #9D8765",
"x.	c #BA8F68",
"y.	c #9E7564",
"z.	c #80555E",
"A.	c #9E8866",
"B.	c #B18866",
"C.	c #8E6460",
"D.	c #93665D",
"E.	c #E8EEAA",
"F.	c #9D8766",
"G.	c #B28865",
"H.	c #A27966",
"I.	c #B48C6E",
"J.	c #9A8464",
"K.	c #B68962",
"L.	c #BF966E",
"M.	c #D2AC7D",
"N.	c #A89074",
"O.	c #C69C6D",
"P.	c #C59B6C",
"Q.	c #C59A6C",
"R.	c #F3D8C5",
"S.	c #BCCE6F",
"T.	c #C1B98B",
"U.	c #A88668",
"V.	c #A67F66",
"W.	c #A77E66",
"X.	c #A88568",
"Y.	c #AA8B69",
"Z.	c #766DAA",
"`.	c #A9A86A",
" +	c #E0E5A6",
".+	c #999B6A",
"++	c #967764",
"@+	c #9A7264",
"#+	c #989268",
"$+	c #EAE178",
"%+	c #BACC70",
"&+	c #BED271",
"*+	c #A9B56F",
"=+	c #A78A68",
"-+	c #AD8567",
";+	c #C1BC8F",
">+	c #A8B46F",
",+	c #A78B68",
"'+	c #AE8668",
")+	c #A7A96C",
"!+	c #DEE3A7",
"~+	c #B0BE6E",
"{+	c #A68F69",
"]+	c #A88467",
"^+	c #A9AE6D",
"/+	c #B7CA73",
"(+	c #C4C193",
"_+	c #BDD170",
":+	c #B5C06E",
"<+	c #B2BA6D",
"[+	c #B9CA70",
"}+	c #E4EAA9",
"|+	c #BCCF72",
"1+	c #BDD071",
"2+	c #BFD370",
"3+	c #BFD371",
"                                                                ",
"                    . + @ # $ % % $ # @ + .                     ",
"            & . * = - ; > , ' ) ) ' , > ; - = * . &             ",
"        ! ~ { ] ^ / ( _ : < [ } } [ < : _ ( / ^ ] | ~ 1         ",
"      ! 2 3 4 5 6 7 8 9 0 a b c c b a 0 9 8 7 6 5 4 d 2 !       ",
"      + e f g h i j k l m n o p p o n m l k j i h g f e +       ",
"      q r s t u b v w x y n z A A z n y B w v b u t s C q       ",
"        D E F G H I w x x n J K K J n L M w I H G F N D         ",
"        O P F Q H I w x x x x x R S T x U w I H Q F V O         ",
"        W X F Q Y Z `  .x ..x +.+.@.#.x  .` Z Y Q F X W         ",
"        $.V %.&.*.=.-.x x ..x x x ;.>.x x -.=.*.&.%.V $.        ",
"        ,.'.).!.~.{.].x ........x x x x x ].{.~.!.).'.,.        ",
"      ^./.(._.:.<.[.x x ............x x x }.[.<.:._.(./.^.      ",
"      + |.1.2.3.4.5.x ..6.6.6.........6.6.6.5.4.3...1.|.+       ",
"      7.8.9.0.a.b.x x 6.c.c.c.6.d...6.c.c.c.6.b.a.0.9.8.7.      ",
"        e.f.g.h.i.x ..6.j.j.c.6.6.6.6.c.j.j.6.i.h.k.l.e.        ",
"          m.n.o.p.x x 6.j.j.c.q.q.q.q.c.j.j.6.p.o.n.m.          ",
"          r.s.t.u.v.x 6.c.c.c.q.q.q.q.c.c.c.6.u.t.s.r.          ",
"          r.w.x.y.z.x 6.c.c.c.q.q.q.q.c.c.c.6.y.x.w.r.          ",
"          r.A.B.C.D.6.6.c.c.c.c.c.c.c.c.c.c.6.6.B.A.r.E.  E.    ",
"          r.F.G.H.I.H.6.c.6.c.c.c.c.c.c.6.c.6.H.G.F.r.  E.      ",
"          r.J.K.L.M.6.6.c.c.c.c.c.c.c.c.c.c.6.6.K.J.r.          ",
"          r.N.O.P.Q.P.6.R.R.c.c.c.c.c.c.R.R.6.P.O.A.r.          ",
"      E.  S.T.U.V.W.X.Y.6.6.Z.Z.Z.Z.Z.Z.6.6.W.V.U.`.S.          ",
"        E.   +.+++@+#+6.q.c.Z.Z.$+c.Z.Z.c.q.6.++.+%+            ",
"        E.  &+*+=+-+;+6.q.c.c.c.$+$+c.c.c.q.6.=+*+&+            ",
"        E.  &+>+,+'+)+!+6.6.c.c.c.c.c.c.6.6.'+,+>+&+            ",
"              ~+{+]+^+!+/+6.q.q.6.6.q.q.6.(+]+{+~+              ",
"              _+:+<+[+}+|+  6.6.    6.6.1+[+<+:+_+              ",
"                2+! 2+  3+            3+  2+! 2+                ",
"                                                                ",
"                                                                "};
