/* XPM */
static char * player_left_exit_fire1_xpm[] = {
"32 32 244 2",
"  	c #C0D470",
". 	c #BED16F",
"+ 	c #BDCE6F",
"@ 	c #B9C16E",
"# 	c #B7BB6D",
"$ 	c #B0916E",
"% 	c #AE876F",
"& 	c #C0D370",
"* 	c #BECE6F",
"= 	c #BDCB6F",
"- 	c #B3AF6C",
"; 	c #AA9669",
"> 	c #C2A57A",
", 	c #CAAA80",
"' 	c #D1B483",
") 	c #D1B683",
"! 	c #BFD270",
"~ 	c #BAC96D",
"{ 	c #BAC56E",
"] 	c #B9BB70",
"^ 	c #B7AA71",
"/ 	c #B48E72",
"( 	c #C6A77D",
"_ 	c #D2B584",
": 	c #C5B47D",
"< 	c #BDB179",
"[ 	c #9FB566",
"} 	c #8FB05E",
"| 	c #A3B564",
"1 	c #A4C163",
"2 	c #B8C06D",
"3 	c #B09A6E",
"4 	c #B99E73",
"5 	c #CBAA80",
"6 	c #CBAF80",
"7 	c #CCB681",
"8 	c #B0AF72",
"9 	c #A0B168",
"0 	c #9CB863",
"a 	c #83A95A",
"b 	c #ADC768",
"c 	c #A2C063",
"d 	c #AA946B",
"e 	c #A99468",
"f 	c #D3B383",
"g 	c #C6B37E",
"h 	c #B9B276",
"i 	c #AEB76F",
"j 	c #8CB15D",
"k 	c #88AD5C",
"l 	c #ADC668",
"m 	c #A8C466",
"n 	c #86AB5B",
"o 	c #A5C265",
"p 	c #9BBB61",
"q 	c #BED06F",
"r 	c #9E9F62",
"s 	c #AB9E6A",
"t 	c #92AB62",
"u 	c #8FB25E",
"v 	c #A6C265",
"w 	c #8DB05D",
"x 	c #A7C266",
"y 	c #A6C365",
"z 	c #ABC667",
"A 	c #A0BF62",
"B 	c #ADAA68",
"C 	c #BCCF6F",
"D 	c #91A160",
"E 	c #92B25F",
"F 	c #95B560",
"G 	c #B0C869",
"H 	c #A5C164",
"I 	c #ABC568",
"J 	c #A7C465",
"K 	c #A7C466",
"L 	c #9CBD61",
"M 	c #9DA965",
"N 	c #BED26F",
"O 	c #97B561",
"P 	c #94B560",
"Q 	c #A9C567",
"R 	c #A6BE63",
"S 	c #89A459",
"T 	c #B2B16B",
"U 	c #B1AD6A",
"V 	c #AAC16A",
"W 	c #BDD16F",
"X 	c #AAC069",
"Y 	c #B0C969",
"Z 	c #A4C264",
"` 	c #95A65B",
" .	c #ADAC61",
"..	c #C0B67A",
"+.	c #BEB081",
"@.	c #D8C19E",
"#.	c #DDC4A3",
"$.	c #BDD26F",
"%.	c #93B05F",
"&.	c #97AD5D",
"*.	c #B2B569",
"=.	c #B3A56B",
"-.	c #C5B286",
";.	c #D7C097",
">.	c #E3CDA7",
",.	c #E8D2AD",
"'.	c #E6CCA2",
").	c #E6CBA0",
"!.	c #BDCE6E",
"~.	c #A9A060",
"{.	c #ACA16A",
"].	c #C9B788",
"^.	c #D7C399",
"/.	c #E4CDAB",
"(.	c #E5CCA6",
"_.	c #E3C69C",
":.	c #E2C499",
"<.	c #C19D7B",
"[.	c #BA9475",
"}.	c #9E2222",
"|.	c #BFD06F",
"1.	c #BCB070",
"2.	c #DDC69E",
"3.	c #E0CAA3",
"4.	c #E9D5B0",
"5.	c #E6CEA6",
"6.	c #E3C599",
"7.	c #D9B98F",
"8.	c #D2B087",
"9.	c #A67D69",
"0.	c #986D62",
"a.	c #5C4E92",
"b.	c #B29E6E",
"c.	c #E3C89E",
"d.	c #E2C69C",
"e.	c #DFBF93",
"f.	c #CEAC86",
"g.	c #B38C71",
"h.	c #A77F6A",
"i.	c #9D7364",
"j.	c #90625D",
"k.	c #F3F2C0",
"l.	c #94675F",
"m.	c #BECF6F",
"n.	c #AFA76B",
"o.	c #CEAC83",
"p.	c #C4A07C",
"q.	c #A97F67",
"r.	c #AE8365",
"s.	c #B18460",
"t.	c #AF815F",
"u.	c #AD805E",
"v.	c #E8B5AC",
"w.	c #BDCD6F",
"x.	c #B1B36C",
"y.	c #A18566",
"z.	c #BF9469",
"A.	c #C0966A",
"B.	c #C1966A",
"C.	c #9F8465",
"D.	c #B0B36C",
"E.	c #B6C56D",
"F.	c #998363",
"G.	c #B58860",
"H.	c #B48761",
"I.	c #B6C66E",
"J.	c #9E8966",
"K.	c #C3986B",
"L.	c #BF956B",
"M.	c #BB916A",
"N.	c #C2986B",
"O.	c #D71C19",
"P.	c #9D8765",
"Q.	c #BA8F68",
"R.	c #9E7564",
"S.	c #80555E",
"T.	c #9E8866",
"U.	c #B18866",
"V.	c #8E6460",
"W.	c #93665D",
"X.	c #E8EEAA",
"Y.	c #9D8766",
"Z.	c #B28865",
"`.	c #A27966",
" +	c #B48C6E",
".+	c #9A8464",
"++	c #B68962",
"@+	c #BF966E",
"#+	c #D2AC7D",
"$+	c #F3D8C5",
"%+	c #B58962",
"&+	c #A89074",
"*+	c #C69C6D",
"=+	c #C59B6C",
"-+	c #C59A6C",
";+	c #766DAA",
">+	c #B9916A",
",+	c #C69C6C",
"'+	c #BCCE6F",
")+	c #C1B98B",
"!+	c #A88668",
"~+	c #A67F66",
"{+	c #A77E66",
"]+	c #A88568",
"^+	c #AA8B69",
"/+	c #EAE178",
"(+	c #DDD5DE",
"_+	c #A9A86A",
":+	c #E0E5A6",
"<+	c #999B6A",
"[+	c #967764",
"}+	c #9A7264",
"|+	c #989268",
"1+	c #A5AF6D",
"2+	c #BACC70",
"3+	c #BED271",
"4+	c #A9B56F",
"5+	c #A78A68",
"6+	c #AD8567",
"7+	c #C1BC8F",
"8+	c #B8CC73",
"9+	c #B8CB73",
"0+	c #A7A96D",
"a+	c #A8B46F",
"b+	c #A78B68",
"c+	c #AE8668",
"d+	c #A7A96C",
"e+	c #DEE3A7",
"f+	c #B7CA73",
"g+	c #B0BE6E",
"h+	c #A68F69",
"i+	c #A88467",
"j+	c #A9AE6D",
"k+	c #B8CA73",
"l+	c #C4C193",
"m+	c #BDD170",
"n+	c #B5C06E",
"o+	c #B2BA6D",
"p+	c #B9CA70",
"q+	c #E4EAA9",
"r+	c #BCCF72",
"s+	c #BDD071",
"t+	c #BFD370",
"u+	c #BFD371",
"                                                                ",
"                    . + @ # $ % % $ # @ + .                     ",
"            & . * = - ; > , ' ) ) ' , > ; - = * . &             ",
"        ! ~ { ] ^ / ( _ : < [ } } [ < : _ ( / ^ ] | ~ 1         ",
"      ! 2 3 4 5 6 7 8 9 0 a b c c b a 0 9 8 7 6 5 4 d 2 !       ",
"      + e f g h i j k l m n o p p o n m l k j i h g f e +       ",
"      q r s t u b v w x y n z A A z n y x w v b u t s B q       ",
"        C D E F G H w I J n K L L K n J I w H G F E M C         ",
"        N O E P G H w Q R S T U U T S R Q w H G P E V N         ",
"        W X E P Y Z `  ...+.@.#.#.@.+... .` Z Y P E X W         ",
"        $.V %.&.*.=.-.;.>.,.'.).).'.,.>.;.-.=.*.&.%.V $.        ",
"        !.~.{.].^./.(.'._.:.<.[.}.<.:._.'.(./.^.].{.~.!.        ",
"      |.1.2.3.4.5.6.7.8./ 9.0.a.a.a.9./ 8.7.6.5.4.3.2.1.|.      ",
"      + b.c.d.e.f.g.h.i.}.j.a.k.k.k.a.l.i.h.g.f.e.d.c.b.+       ",
"      m.n.o.p.q.r.s.t.u.}.a.a.k.v.v.k.a.u.t.s.r.q.p.o.n.m.      ",
"        w.x.y.z.A.B.B.B.a.k.k.k.v.v.k.a.}.B.B.A.z.C.D.w.        ",
"          E.F.G.H.H.H.H.a.k.k.k.k.k.k.a.}.H.H.H.G.F.E.          ",
"          I.J.K.L.M.L.N.a.k.k.k.k.k.k.a.O.}.M.L.K.J.I.          ",
"          I.P.Q.R.S.R.a.a.k.k.k.k.k.k.a.a.}.S.R.Q.P.I.          ",
"          I.T.U.V.W.V.a.k.k.a.k.k.k.k.a.O.}.W.V.U.T.I.X.  X.    ",
"          I.Y.Z.`. +`.a.k.k.k.k.k.k.k.a.a.`. +`.Z.Y.I.  X.      ",
"          I..+++@+#+@+a.k.k.k.$+$+k.k.a.%+@+#+@+++.+I.          ",
"          I.&+*+=+-+=+}.a.;+;+;+;+;+a.>+,+=+-+=+*+T.I.          ",
"      X.  '+)+!+~+{+]+^+/+;+;+;+;+k.(+a.^+]+{+~+!+_+'+          ",
"        X.  :+<+[+}+|+1+/+a.k.k.k.k.(+a.1+|+}+[+<+2+            ",
"        X.  3+4+5+6+7+8+9+a.k.k.k.k.a.9+8+0+6+5+4+3+            ",
"        X.  3+a+b+c+d+e+f+  a.(+(+a.  f+e+d+c+b+a+3+            ",
"              g+h+i+j+e+f+    a.a.    f+k+l+i+h+g+              ",
"              m+n+o+p+q+r+            r+s+p+o+n+m+              ",
"                t+! t+  u+            u+  t+! t+                ",
"                                                                ",
"                                                                "};
