/* XPM */
static char * player_right_exit_fire2_xpm[] = {
"32 32 241 2",
"  	c #C0D470",
". 	c #BED16F",
"+ 	c #BDCE6F",
"@ 	c #B9C16E",
"# 	c #B7BB6D",
"$ 	c #B0916E",
"% 	c #AE876F",
"& 	c #C0D370",
"* 	c #BECE6F",
"= 	c #BDCB6F",
"- 	c #B3AF6C",
"; 	c #AA9669",
"> 	c #C2A57A",
", 	c #CAAA80",
"' 	c #D1B483",
") 	c #D1B683",
"! 	c #BFD270",
"~ 	c #BAC96D",
"{ 	c #BAC56E",
"] 	c #B9BB70",
"^ 	c #B7AA71",
"/ 	c #B48E72",
"( 	c #C6A77D",
"_ 	c #D2B584",
": 	c #C5B47D",
"< 	c #BDB179",
"[ 	c #9FB566",
"} 	c #8FB05E",
"| 	c #A3B564",
"1 	c #A4C163",
"2 	c #B8C06D",
"3 	c #B09A6E",
"4 	c #B99E73",
"5 	c #CBAA80",
"6 	c #CBAF80",
"7 	c #CCB681",
"8 	c #B0AF72",
"9 	c #A0B168",
"0 	c #9CB863",
"a 	c #83A95A",
"b 	c #ADC768",
"c 	c #A2C063",
"d 	c #AA946B",
"e 	c #A99468",
"f 	c #D3B383",
"g 	c #C6B37E",
"h 	c #B9B276",
"i 	c #AEB76F",
"j 	c #8CB15D",
"k 	c #88AD5C",
"l 	c #ADC668",
"m 	c #A8C466",
"n 	c #86AB5B",
"o 	c #A5C265",
"p 	c #9BBB61",
"q 	c #BED06F",
"r 	c #9E9F62",
"s 	c #AB9E6A",
"t 	c #92AB62",
"u 	c #8FB25E",
"v 	c #A6C265",
"w 	c #8DB05D",
"x 	c #A7C266",
"y 	c #A6C365",
"z 	c #ABC667",
"A 	c #A0BF62",
"B 	c #ADAA68",
"C 	c #BCCF6F",
"D 	c #91A160",
"E 	c #92B25F",
"F 	c #95B560",
"G 	c #B0C869",
"H 	c #A5C164",
"I 	c #ABC568",
"J 	c #A7C465",
"K 	c #A7C466",
"L 	c #9CBD61",
"M 	c #9DA965",
"N 	c #BED26F",
"O 	c #97B561",
"P 	c #94B560",
"Q 	c #A9C567",
"R 	c #A6BE63",
"S 	c #89A459",
"T 	c #B2B16B",
"U 	c #B1AD6A",
"V 	c #AAC16A",
"W 	c #BDD16F",
"X 	c #AAC069",
"Y 	c #B0C969",
"Z 	c #A4C264",
"` 	c #95A65B",
" .	c #ADAC61",
"..	c #C0B67A",
"+.	c #BEB081",
"@.	c #D8C19E",
"#.	c #DDC4A3",
"$.	c #BDD26F",
"%.	c #93B05F",
"&.	c #97AD5D",
"*.	c #B2B569",
"=.	c #B3A56B",
"-.	c #C5B286",
";.	c #D7C097",
">.	c #E3CDA7",
",.	c #E8D2AD",
"'.	c #E6CCA2",
").	c #E6CBA0",
"!.	c #BDCE6E",
"~.	c #A9A060",
"{.	c #ACA16A",
"].	c #C9B788",
"^.	c #D7C399",
"/.	c #E4CDAB",
"(.	c #E5CCA6",
"_.	c #E3C69C",
":.	c #E2C499",
"<.	c #C19D7B",
"[.	c #BA9475",
"}.	c #9E2222",
"|.	c #BFD06F",
"1.	c #BCB070",
"2.	c #DDC69E",
"3.	c #E0CAA3",
"4.	c #E9D5B0",
"5.	c #E6CEA6",
"6.	c #E3C599",
"7.	c #D9B98F",
"8.	c #D2B087",
"9.	c #A67D69",
"0.	c #5C4E92",
"a.	c #B29E6E",
"b.	c #E3C89E",
"c.	c #E2C69C",
"d.	c #DFBF93",
"e.	c #CEAC86",
"f.	c #B38C71",
"g.	c #A77F6A",
"h.	c #9D7364",
"i.	c #F3F2C0",
"j.	c #94675F",
"k.	c #BECF6F",
"l.	c #AFA76B",
"m.	c #CEAC83",
"n.	c #C4A07C",
"o.	c #A97F67",
"p.	c #AE8365",
"q.	c #B18460",
"r.	c #AF815F",
"s.	c #AD805E",
"t.	c #E8B5AC",
"u.	c #BDCD6F",
"v.	c #B1B36C",
"w.	c #A18566",
"x.	c #BF9469",
"y.	c #C0966A",
"z.	c #C1966A",
"A.	c #9F8465",
"B.	c #B0B36C",
"C.	c #B6C56D",
"D.	c #998363",
"E.	c #B58860",
"F.	c #B48761",
"G.	c #B6C66E",
"H.	c #9E8966",
"I.	c #C3986B",
"J.	c #BF956B",
"K.	c #BB916A",
"L.	c #C2986B",
"M.	c #D71C19",
"N.	c #9D8765",
"O.	c #BA8F68",
"P.	c #9E7564",
"Q.	c #80555E",
"R.	c #9E8866",
"S.	c #B18866",
"T.	c #8E6460",
"U.	c #93665D",
"V.	c #B08766",
"W.	c #E8EEAA",
"X.	c #9D8766",
"Y.	c #B28865",
"Z.	c #A27966",
"`.	c #B48C6E",
" +	c #9A8464",
".+	c #B68962",
"++	c #BF966E",
"@+	c #D2AC7D",
"#+	c #F3D8C5",
"$+	c #A89074",
"%+	c #C69C6D",
"&+	c #C59B6C",
"*+	c #C59A6C",
"=+	c #766DAA",
"-+	c #C69C6C",
";+	c #BCCE6F",
">+	c #C1B98B",
",+	c #A88668",
"'+	c #A67F66",
")+	c #A77E66",
"!+	c #A88568",
"~+	c #AA8B69",
"{+	c #DDD5DE",
"]+	c #EAE178",
"^+	c #A9A86A",
"/+	c #E0E5A6",
"(+	c #999B6A",
"_+	c #967764",
":+	c #9A7264",
"<+	c #989268",
"[+	c #A5AF6D",
"}+	c #BACC70",
"|+	c #BED271",
"1+	c #A9B56F",
"2+	c #A78A68",
"3+	c #AD8567",
"4+	c #C1BC8F",
"5+	c #B8CC73",
"6+	c #B8CB73",
"7+	c #A7A96D",
"8+	c #A8B46F",
"9+	c #A78B68",
"0+	c #AE8668",
"a+	c #A7A96C",
"b+	c #DEE3A7",
"c+	c #B7CA73",
"d+	c #B0BE6E",
"e+	c #A68F69",
"f+	c #A88467",
"g+	c #A9AE6D",
"h+	c #B8CA73",
"i+	c #C4C193",
"j+	c #BDD170",
"k+	c #B5C06E",
"l+	c #B2BA6D",
"m+	c #B9CA70",
"n+	c #E4EAA9",
"o+	c #BCCF72",
"p+	c #BDD071",
"q+	c #BFD370",
"r+	c #BFD371",
"                                                                ",
"                    . + @ # $ % % $ # @ + .                     ",
"            & . * = - ; > , ' ) ) ' , > ; - = * . &             ",
"        ! ~ { ] ^ / ( _ : < [ } } [ < : _ ( / ^ ] | ~ 1         ",
"      ! 2 3 4 5 6 7 8 9 0 a b c c b a 0 9 8 7 6 5 4 d 2 !       ",
"      + e f g h i j k l m n o p p o n m l k j i h g f e +       ",
"      q r s t u b v w x y n z A A z n y x w v b u t s B q       ",
"        C D E F G H w I J n K L L K n J I w H G F E M C         ",
"        N O E P G H w Q R S T U U T S R Q w H G P E V N         ",
"        W X E P Y Z `  ...+.@.#.#.@.+... .` Z Y P E X W         ",
"        $.V %.&.*.=.-.;.>.,.'.).).'.,.>.;.-.=.*.&.%.V $.        ",
"        !.~.{.].^./.(.'._.:.<.[.}.<.:._.'.(./.^.].{.~.!.        ",
"      |.1.2.3.4.5.6.7.8./ 9.0.0.0.}.9./ 8.7.6.5.4.3.2.1.|.      ",
"      + a.b.c.d.e.f.g.h.}.0.i.i.i.0.}.j.h.g.f.e.d.c.b.a.+       ",
"      k.l.m.n.o.p.q.r.s.0.i.t.t.i.0.0.}.s.r.q.p.o.n.m.l.k.      ",
"        u.v.w.x.y.z.z.z.0.i.t.t.i.i.i.0.}.z.z.y.x.A.B.u.        ",
"          C.D.E.F.F.F.F.0.i.i.i.i.i.i.0.}.F.F.F.E.D.C.          ",
"          G.H.I.J.K.J.L.0.i.i.i.i.i.i.0.M.}.K.J.I.H.G.          ",
"          G.N.O.P.Q.P.0.0.i.i.i.i.i.i.0.0.}.Q.P.O.N.G.          ",
"          G.R.S.T.U.T.V.0.i.i.i.i.0.i.i.0.}.U.T.S.R.G.W.  W.    ",
"          G.X.Y.Z.`.Z.0.0.i.i.i.i.i.i.i.0.Z.`.Z.Y.X.G.  W.      ",
"          G. +.+++@+++}.0.i.i.#+#+i.i.i.0.++@+++.+ +G.          ",
"          G.$+%+&+*+&+}.}.0.=+=+=+=+=+0.-+&+*+&+%+R.G.          ",
"      W.  ;+>+,+'+)+!+~+0.{+i.=+=+=+=+]+~+!+)+'+,+^+;+          ",
"        W.  /+(+_+:+<+[+0.{+i.i.i.i.0.]+[+<+:+_+(+}+            ",
"        W.  |+1+2+3+4+5+6+0.i.i.i.i.0.6+5+7+3+2+1+|+            ",
"        W.  |+8+9+0+a+b+c+  0.{+{+0.  c+b+a+0+9+8+|+            ",
"              d+e+f+g+b+c+    0.0.    c+h+i+f+e+d+              ",
"              j+k+l+m+n+o+            o+p+m+l+k+j+              ",
"                q+! q+  r+            r+  q+! q+                ",
"                                                                ",
"                                                                "};
