/* XPM */
static char * player_right_grass_xpm[] = {
"32 32 10 1",
" 	c #C0D470",
".	c #A4C263",
"+	c #5C4E92",
"@	c #F3F2C0",
"#	c #E8B5AC",
"$	c #F3D8C5",
"%	c #766DAA",
"&	c #DDD5DE",
"*	c #EAE178",
"=	c #E8EEAA",
"                                ",
"                                ",
"                                ",
"            .            . .    ",
"           .              .     ",
"           .                    ",
"    .                           ",
"     .                          ",
"     .    . +++                 ",
"         . +@@@+                ",
"         .+@##@++  . .          ",
"          +@##@@@+  .           ",
"          +@@@@@@+              ",
"          +@@@@@@+              ",
"         ++@@@@@@++             ",
"          +@@@@+@@+             ",
"         ++@@@@@@@+             ",
"          +@@$$@@@+             ",
"           +%%%%%+              ",
"          +&@%%%%*         = =  ",
"          +&@@@@+*          =   ",
"       =   +@@@@+               ",
"      =     +&&+                ",
"   =  =      ++                 ",
"    = =                         ",
"    =     =                     ",
"    =      =        = =         ",
"           =         =          ",
"           =                    ",
"                                ",
"                                ",
"                                "};
