/* XPM */
static char * player_back_exit_fire1_xpm[] = {
"32 32 222 2",
"  	c #C0D470",
". 	c #BED16F",
"+ 	c #BDCE6F",
"@ 	c #B9C16E",
"# 	c #B7BB6D",
"$ 	c #B0916E",
"% 	c #AE876F",
"& 	c #C0D370",
"* 	c #BECE6F",
"= 	c #BDCB6F",
"- 	c #B3AF6C",
"; 	c #AA9669",
"> 	c #C2A57A",
", 	c #CAAA80",
"' 	c #D1B483",
") 	c #D1B683",
"! 	c #BFD270",
"~ 	c #BAC96D",
"{ 	c #BAC56E",
"] 	c #B9BB70",
"^ 	c #B7AA71",
"/ 	c #B48E72",
"( 	c #C6A77D",
"_ 	c #D2B584",
": 	c #C5B47D",
"< 	c #BDB179",
"[ 	c #9FB566",
"} 	c #8FB05E",
"| 	c #A3B564",
"1 	c #A4C163",
"2 	c #B8C06D",
"3 	c #B09A6E",
"4 	c #B99E73",
"5 	c #CBAA80",
"6 	c #CBAF80",
"7 	c #CCB681",
"8 	c #B0AF72",
"9 	c #A0B168",
"0 	c #9CB863",
"a 	c #83A95A",
"b 	c #ADC768",
"c 	c #A2C063",
"d 	c #AA946B",
"e 	c #A99468",
"f 	c #D3B383",
"g 	c #C6B37E",
"h 	c #B9B276",
"i 	c #AEB76F",
"j 	c #8CB15D",
"k 	c #88AD5C",
"l 	c #ADC668",
"m 	c #A8C466",
"n 	c #86AB5B",
"o 	c #A5C265",
"p 	c #9BBB61",
"q 	c #BED06F",
"r 	c #9E9F62",
"s 	c #AB9E6A",
"t 	c #92AB62",
"u 	c #8FB25E",
"v 	c #A6C265",
"w 	c #8DB05D",
"x 	c #A7C266",
"y 	c #A6C365",
"z 	c #ABC667",
"A 	c #A0BF62",
"B 	c #ADAA68",
"C 	c #BCCF6F",
"D 	c #91A160",
"E 	c #92B25F",
"F 	c #95B560",
"G 	c #B0C869",
"H 	c #A5C164",
"I 	c #ABC568",
"J 	c #A7C465",
"K 	c #A7C466",
"L 	c #9CBD61",
"M 	c #9DA965",
"N 	c #BED26F",
"O 	c #97B561",
"P 	c #94B560",
"Q 	c #A9C567",
"R 	c #A6BE63",
"S 	c #89A459",
"T 	c #B2B16B",
"U 	c #B1AD6A",
"V 	c #AAC16A",
"W 	c #BDD16F",
"X 	c #AAC069",
"Y 	c #B0C969",
"Z 	c #A4C264",
"` 	c #95A65B",
" .	c #ADAC61",
"..	c #C0B67A",
"+.	c #BEB081",
"@.	c #D8C19E",
"#.	c #DDC4A3",
"$.	c #BDD26F",
"%.	c #93B05F",
"&.	c #97AD5D",
"*.	c #B2B569",
"=.	c #B3A56B",
"-.	c #C5B286",
";.	c #D7C097",
">.	c #E3CDA7",
",.	c #E8D2AD",
"'.	c #E6CCA2",
").	c #E6CBA0",
"!.	c #BDCE6E",
"~.	c #A9A060",
"{.	c #ACA16A",
"].	c #C9B788",
"^.	c #D7C399",
"/.	c #E4CDAB",
"(.	c #E5CCA6",
"_.	c #E3C69C",
":.	c #E2C499",
"<.	c #C19D7B",
"[.	c #BA9475",
"}.	c #9E2222",
"|.	c #BFD06F",
"1.	c #BCB070",
"2.	c #DDC69E",
"3.	c #E0CAA3",
"4.	c #E9D5B0",
"5.	c #E6CEA6",
"6.	c #E3C599",
"7.	c #D9B98F",
"8.	c #5C4E92",
"9.	c #986D62",
"0.	c #966960",
"a.	c #B29E6E",
"b.	c #E3C89E",
"c.	c #E2C69C",
"d.	c #DFBF93",
"e.	c #CEAC86",
"f.	c #B38C71",
"g.	c #F3F2C0",
"h.	c #91635D",
"i.	c #BECF6F",
"j.	c #AFA76B",
"k.	c #CEAC83",
"l.	c #C4A07C",
"m.	c #A97F67",
"n.	c #AE8365",
"o.	c #B18460",
"p.	c #BDCD6F",
"q.	c #B1B36C",
"r.	c #A18566",
"s.	c #BF9469",
"t.	c #C0966A",
"u.	c #C1966A",
"v.	c #DDD5DE",
"w.	c #9F8465",
"x.	c #B0B36C",
"y.	c #B6C56D",
"z.	c #998363",
"A.	c #B58860",
"B.	c #B48761",
"C.	c #B6C66E",
"D.	c #9E8966",
"E.	c #C3986B",
"F.	c #BF956B",
"G.	c #BB916A",
"H.	c #9D8765",
"I.	c #BA8F68",
"J.	c #9E7564",
"K.	c #9E8866",
"L.	c #B18866",
"M.	c #8E6460",
"N.	c #93665D",
"O.	c #E8EEAA",
"P.	c #9D8766",
"Q.	c #B28865",
"R.	c #A27966",
"S.	c #9A8464",
"T.	c #B68962",
"U.	c #BF966E",
"V.	c #D2AC7D",
"W.	c #A89074",
"X.	c #C69C6D",
"Y.	c #C59B6C",
"Z.	c #C59A6C",
"`.	c #766DAA",
" +	c #BCCE6F",
".+	c #C1B98B",
"++	c #A88668",
"@+	c #A67F66",
"#+	c #A77E66",
"$+	c #A9A86A",
"%+	c #E0E5A6",
"&+	c #999B6A",
"*+	c #967764",
"=+	c #9A7264",
"-+	c #BACC70",
";+	c #BED271",
">+	c #A9B56F",
",+	c #A78A68",
"'+	c #AD8567",
")+	c #C1BC8F",
"!+	c #A7A96D",
"~+	c #A8B46F",
"{+	c #A78B68",
"]+	c #AE8668",
"^+	c #A7A96C",
"/+	c #DEE3A7",
"(+	c #B0BE6E",
"_+	c #A68F69",
":+	c #A88467",
"<+	c #A9AE6D",
"[+	c #B7CA73",
"}+	c #B8CA73",
"|+	c #C4C193",
"1+	c #BDD170",
"2+	c #B5C06E",
"3+	c #B2BA6D",
"4+	c #B9CA70",
"5+	c #E4EAA9",
"6+	c #BCCF72",
"7+	c #BDD071",
"8+	c #BFD370",
"9+	c #BFD371",
"                                                                ",
"                    . + @ # $ % % $ # @ + .                     ",
"            & . * = - ; > , ' ) ) ' , > ; - = * . &             ",
"        ! ~ { ] ^ / ( _ : < [ } } [ < : _ ( / ^ ] | ~ 1         ",
"      ! 2 3 4 5 6 7 8 9 0 a b c c b a 0 9 8 7 6 5 4 d 2 !       ",
"      + e f g h i j k l m n o p p o n m l k j i h g f e +       ",
"      q r s t u b v w x y n z A A z n y x w v b u t s B q       ",
"        C D E F G H w I J n K L L K n J I w H G F E M C         ",
"        N O E P G H w Q R S T U U T S R Q w H G P E V N         ",
"        W X E P Y Z `  ...+.@.#.#.@.+... .` Z Y P E X W         ",
"        $.V %.&.*.=.-.;.>.,.'.).).'.,.>.;.-.=.*.&.%.V $.        ",
"        !.~.{.].^./.(.'._.:.<.[.}.<.:._.'.(./.^.].{.~.!.        ",
"      |.1.2.3.4.5.6.7.8.8.8.9.0.}.}.8.8.8.7.6.5.4.3.2.1.|.      ",
"      + a.b.c.d.e.f.8.g.g.g.8.h.}.8.g.g.g.8.f.e.d.c.b.a.+       ",
"      i.j.k.l.m.n.o.8.g.g.g.8.8.8.8.g.g.g.8.o.n.m.l.k.j.i.      ",
"        p.q.r.s.t.u.8.g.g.g.v.v.v.v.g.g.g.8.u.t.s.w.x.p.        ",
"          y.z.A.B.B.8.g.g.g.g.g.g.g.g.g.g.8.B.B.A.z.y.          ",
"          C.D.E.F.G.8.g.g.g.g.g.g.g.g.g.g.8.G.F.E.D.C.          ",
"          C.H.I.J.8.8.g.g.g.g.g.g.g.g.g.g.8.8.J.I.H.C.          ",
"          C.K.L.M.N.8.g.g.g.g.g.g.g.g.g.g.8.N.M.L.K.C.O.  O.    ",
"          C.P.Q.R.8.8.g.g.g.g.g.g.g.g.g.g.8.8.R.Q.P.C.  O.      ",
"          C.S.T.U.V.8.g.g.g.g.g.g.g.g.g.g.8.V.U.T.S.C.          ",
"          C.W.X.Y.Z.Y.8.8.`.`.`.`.`.`.8.8.Y.Z.Y.X.K.C.          ",
"      O.   +.+++@+#+8.v.g.`.`.8.8.`.`.g.v.8.#+@+++$+ +          ",
"        O.  %+&+*+=+8.v.g.g.8.g.g.8.g.g.v.8.=+*+&+-+            ",
"        O.  ;+>+,+'+)+8.8.g.g.g.g.g.g.8.8.!+'+,+>+;+            ",
"        O.  ;+~+{+]+^+/+8.v.v.8.8.v.v.8./+^+]+{+~+;+            ",
"              (+_+:+<+/+[+8.8.    8.8.[+}+|+:+_+(+              ",
"              1+2+3+4+5+6+            6+7+4+3+2+1+              ",
"                8+! 8+  9+            9+  8+! 8+                ",
"                                                                ",
"                                                                "};
