/* XPM */
static char * player_right_exit_fire1_xpm[] = {
"32 32 228 2",
"  	c #C0D470",
". 	c #BED16F",
"+ 	c #BDCE6F",
"@ 	c #B9C16E",
"# 	c #B7BB6D",
"$ 	c #B0916E",
"% 	c #AE876F",
"& 	c #C0D370",
"* 	c #BECE6F",
"= 	c #BDCB6F",
"- 	c #B3AF6C",
"; 	c #AA9669",
"> 	c #C2A57A",
", 	c #CAAA80",
"' 	c #D1B483",
") 	c #D1B683",
"! 	c #BFD270",
"~ 	c #BAC96D",
"{ 	c #BAC56E",
"] 	c #B9BB70",
"^ 	c #B7AA71",
"/ 	c #B48E72",
"( 	c #C6A77D",
"_ 	c #D2B584",
": 	c #C5B47D",
"< 	c #BDB179",
"[ 	c #9FB566",
"} 	c #8FB05E",
"| 	c #A3B564",
"1 	c #A4C163",
"2 	c #B8C06D",
"3 	c #B09A6E",
"4 	c #B99E73",
"5 	c #CBAA80",
"6 	c #CBAF80",
"7 	c #CCB681",
"8 	c #B0AF72",
"9 	c #A0B168",
"0 	c #9CB863",
"a 	c #83A95A",
"b 	c #ADC768",
"c 	c #A2C063",
"d 	c #AA946B",
"e 	c #A99468",
"f 	c #D3B383",
"g 	c #C6B37E",
"h 	c #B9B276",
"i 	c #AEB76F",
"j 	c #8CB15D",
"k 	c #88AD5C",
"l 	c #ADC668",
"m 	c #A8C466",
"n 	c #86AB5B",
"o 	c #A5C265",
"p 	c #9BBB61",
"q 	c #BED06F",
"r 	c #9E9F62",
"s 	c #AB9E6A",
"t 	c #92AB62",
"u 	c #8FB25E",
"v 	c #A6C265",
"w 	c #8DB05D",
"x 	c #9E2222",
"y 	c #A6C365",
"z 	c #ABC667",
"A 	c #A0BF62",
"B 	c #A7C266",
"C 	c #ADAA68",
"D 	c #BCCF6F",
"E 	c #91A160",
"F 	c #92B25F",
"G 	c #95B560",
"H 	c #B0C869",
"I 	c #A5C164",
"J 	c #A7C466",
"K 	c #9CBD61",
"L 	c #A7C465",
"M 	c #ABC568",
"N 	c #9DA965",
"O 	c #BED26F",
"P 	c #97B561",
"Q 	c #94B560",
"R 	c #B1AD6A",
"S 	c #B2B16B",
"T 	c #89A459",
"U 	c #A9C567",
"V 	c #AAC16A",
"W 	c #BDD16F",
"X 	c #AAC069",
"Y 	c #B0C969",
"Z 	c #A4C264",
"` 	c #95A65B",
" .	c #ADAC61",
"..	c #D71C19",
"+.	c #DDC4A3",
"@.	c #D8C19E",
"#.	c #BEB081",
"$.	c #BDD26F",
"%.	c #93B05F",
"&.	c #97AD5D",
"*.	c #B2B569",
"=.	c #B3A56B",
"-.	c #C5B286",
";.	c #E6CCA2",
">.	c #E8D2AD",
",.	c #BDCE6E",
"'.	c #A9A060",
").	c #ACA16A",
"!.	c #C9B788",
"~.	c #D7C399",
"{.	c #E4CDAB",
"].	c #E5CCA6",
"^.	c #BFD06F",
"/.	c #BCB070",
"(.	c #DDC69E",
"_.	c #E0CAA3",
":.	c #E9D5B0",
"<.	c #E6CEA6",
"[.	c #E3C599",
"}.	c #5C4E92",
"|.	c #D9B98F",
"1.	c #B29E6E",
"2.	c #E3C89E",
"3.	c #E2C69C",
"4.	c #DFBF93",
"5.	c #CEAC86",
"6.	c #B38C71",
"7.	c #F3F2C0",
"8.	c #A77F6A",
"9.	c #BECF6F",
"0.	c #AFA76B",
"a.	c #CEAC83",
"b.	c #C4A07C",
"c.	c #A97F67",
"d.	c #AE8365",
"e.	c #E8B5AC",
"f.	c #AD805E",
"g.	c #AF815F",
"h.	c #B18460",
"i.	c #BDCD6F",
"j.	c #B1B36C",
"k.	c #A18566",
"l.	c #BF9469",
"m.	c #C0966A",
"n.	c #C1966A",
"o.	c #9F8465",
"p.	c #B0B36C",
"q.	c #B6C56D",
"r.	c #998363",
"s.	c #B58860",
"t.	c #B48761",
"u.	c #B6C66E",
"v.	c #9E8966",
"w.	c #C3986B",
"x.	c #BF956B",
"y.	c #BB916A",
"z.	c #9D8765",
"A.	c #BA8F68",
"B.	c #9E7564",
"C.	c #80555E",
"D.	c #9E8866",
"E.	c #B18866",
"F.	c #8E6460",
"G.	c #93665D",
"H.	c #E8EEAA",
"I.	c #9D8766",
"J.	c #B28865",
"K.	c #A27966",
"L.	c #B48C6E",
"M.	c #9A8464",
"N.	c #B68962",
"O.	c #BF966E",
"P.	c #D2AC7D",
"Q.	c #B58962",
"R.	c #F3D8C5",
"S.	c #A89074",
"T.	c #C69C6D",
"U.	c #C59B6C",
"V.	c #C59A6C",
"W.	c #C69C6C",
"X.	c #B9916A",
"Y.	c #766DAA",
"Z.	c #BCCE6F",
"`.	c #C1B98B",
" +	c #A88668",
".+	c #A67F66",
"++	c #A77E66",
"@+	c #A88568",
"#+	c #AA8B69",
"$+	c #DDD5DE",
"%+	c #EAE178",
"&+	c #A9A86A",
"*+	c #E0E5A6",
"=+	c #999B6A",
"-+	c #967764",
";+	c #9A7264",
">+	c #989268",
",+	c #A5AF6D",
"'+	c #BACC70",
")+	c #BED271",
"!+	c #A9B56F",
"~+	c #A78A68",
"{+	c #AD8567",
"]+	c #C1BC8F",
"^+	c #B8CC73",
"/+	c #B8CB73",
"(+	c #A7A96D",
"_+	c #A8B46F",
":+	c #A78B68",
"<+	c #AE8668",
"[+	c #A7A96C",
"}+	c #DEE3A7",
"|+	c #B7CA73",
"1+	c #B0BE6E",
"2+	c #A68F69",
"3+	c #A88467",
"4+	c #A9AE6D",
"5+	c #B8CA73",
"6+	c #C4C193",
"7+	c #BDD170",
"8+	c #B5C06E",
"9+	c #B2BA6D",
"0+	c #B9CA70",
"a+	c #E4EAA9",
"b+	c #BCCF72",
"c+	c #BDD071",
"d+	c #BFD370",
"e+	c #BFD371",
"                                                                ",
"                    . + @ # $ % % $ # @ + .                     ",
"            & . * = - ; > , ' ) ) ' , > ; - = * . &             ",
"        ! ~ { ] ^ / ( _ : < [ } } [ < : _ ( / ^ ] | ~ 1         ",
"      ! 2 3 4 5 6 7 8 9 0 a b c c b a 0 9 8 7 6 5 4 d 2 !       ",
"      + e f g h i j k l m n o p p o n m l k j i h g f e +       ",
"      q r s t u b v w x y n z A A z n y B w v b u t s C q       ",
"        D E F G H I w x x n J K K J n L M w I H G F N D         ",
"        O P F Q H I w x x x x x R S T x U w I H Q F V O         ",
"        W X F Q Y Z `  .x ..x +.+.@.#.x  .` Z Y Q F X W         ",
"        $.V %.&.*.=.-.x x ..x x x ;.>.x x -.=.*.&.%.V $.        ",
"        ,.'.).!.~.{.].x ........x x x x x ].{.~.!.).'.,.        ",
"      ^./.(._.:.<.[.x x ....}.}.}...x x x |.[.<.:._.(./.^.      ",
"      + 1.2.3.4.5.6.x ....}.7.7.7.}...x x 8.6.5.4...2.1.+       ",
"      9.0.a.b.c.d.x x ..}.7.e.e.7.}.}.x f.g.h.d.c.b.a.0.9.      ",
"        i.j.k.l.m.x ....}.7.e.e.7.7.7.}.x n.n.m.l.o.p.i.        ",
"          q.r.s.t.x x ..}.7.7.7.7.7.7.}.x t.t.t.s.r.q.          ",
"          u.v.w.x.y.x ..}.7.7.7.7.7.7.}.x x y.x.w.v.u.          ",
"          u.z.A.B.C.x }.}.7.7.7.7.7.7.}.}.x C.B.A.z.u.          ",
"          u.D.E.F.G.F.x }.7.7.7.7.}.7.7.}.x G.F.E.D.u.H.  H.    ",
"          u.I.J.K.L.K.}.}.7.7.7.7.7.7.7.}.x L.K.J.I.u.  H.      ",
"          u.M.N.O.P.O.Q.}.7.7.R.R.7.7.7.}.O.P.O.N.M.u.          ",
"          u.S.T.U.V.U.W.X.}.Y.Y.Y.Y.Y.}.W.U.V.U.T.D.u.          ",
"      H.  Z.`. +.+++@+#+}.$+7.Y.Y.Y.Y.%+#+@+++.+ +&+Z.          ",
"        H.  *+=+-+;+>+,+}.$+7.7.7.7.}.%+,+>+;+-+=+'+            ",
"        H.  )+!+~+{+]+^+/+}.7.7.7.7.}./+^+(+{+~+!+)+            ",
"        H.  )+_+:+<+[+}+|+  }.$+$+}.  |+}+[+<+:+_+)+            ",
"              1+2+3+4+}+|+    }.}.    |+5+6+3+2+1+              ",
"              7+8+9+0+a+b+            b+c+0+9+8+7+              ",
"                d+! d+  e+            e+  d+! d+                ",
"                                                                ",
"                                                                "};
