/* XPM */
static char * player_back_grass_xpm[] = {
"32 32 7 1",
" 	c #C0D470",
".	c #A4C263",
"+	c #5C4E92",
"@	c #F3F2C0",
"#	c #DDD5DE",
"$	c #766DAA",
"%	c #E8EEAA",
"                                ",
"                                ",
"                                ",
"            .            . .    ",
"           .              .     ",
"           .                    ",
"    .                           ",
"     .                          ",
"     .    .                     ",
"         .+++    +++            ",
"         +@@@+  +@@@+.          ",
"         +@@@++++@@@+           ",
"         +@@@####@@@+           ",
"         +@@@@@@@@@@+           ",
"         +@@@@@@@@@@+           ",
"        ++@@@@@@@@@@++          ",
"         +@@@@@@@@@@+           ",
"        ++@@@@@@@@@@++          ",
"         +@@@@@@@@@@+           ",
"          ++$$$$$$++       % %  ",
"         +#@$$++$$@#+       %   ",
"       % +#@@+@@+@@#+           ",
"      %   ++@@@@@@++            ",
"   %  %    +##++##+             ",
"    % %     ++  ++              ",
"    %     %                     ",
"    %      %        % %         ",
"           %         %          ",
"           %                    ",
"                                ",
"                                ",
"                                "};
