/* XPM */
static char * wall3_xpm[] = {
"32 32 15 1",
" 	c #C0D470",
".	c #B09643",
"+	c #A4C263",
"@	c #EEEE9B",
"#	c #EAE178",
"$	c #957A4B",
"%	c #D4C169",
"&	c #AA7959",
"*	c #90625D",
"=	c #566560",
"-	c #78A158",
";	c #67835C",
">	c #8DB15D",
",	c #E8EEAA",
"'	c #B7C973",
"                                ",
"                                ",
"                                ",
"        ....+            + +    ",
"      ..@###$$            +     ",
"     .#%####%%$                 ",
"    +.%%&***%%$                 ",
"    .@#&&&***##$                ",
"    .##&&&&**##$                ",
"    .##&&&&&*##$                ",
"    .##&&&&&&#%$   + +          ",
"     $%%&&&&%%$     +           ",
"     $%%####%%$                 ",
"      $$###%$$=                 ",
"        $$$$===     ---         ",
"            =---   -  -         ",
"              ;;; ->> -         ",
"          ---  ;;;>>>;          ",
"         -  >--;;==;;           ",
"        -  >>>;;;          , ,  ",
"         -;;;==;;   ---     ,   ",
"       ,       ;;  -  -         ",
"      , ----   ;; ->> ;         ",
"   ,  , -  >-- ;;;>>>;          ",
"    , ,  ;;>>>-;;==;;           ",
"    ,  >  ,;;==;;               ",
"    ,      ,   ;;   , ,         ",
"           ,   ;;    ,          ",
"           ,  ';;'              ",
"            ''';;'''            ",
"                                ",
"                                "};
